<svg width="535" height="474" viewBox="0 0 535 474" fill="none" xmlns="http://www.w3.org/2000/svg">
<g clip-path="url(#clip0_892_2608)">
<g opacity="0.6">
<path d="M541 -196.778V603.233C541 647.559 505.061 683.471 460.762 683.471H80.2377C35.9387 683.471 0 647.559 0 603.233V-196.778C0 -241.077 35.9387 -276.989 80.2377 -276.989H239.346L239.504 -276.411C244.21 -259.48 255.041 -248.464 267.056 -248.464H273.944C285.959 -248.464 296.79 -259.48 301.496 -276.411L301.68 -276.989H460.762C505.061 -276.989 541 -241.077 541 -196.778Z" fill="#F2F5FA"/>
<path d="M331.743 308.956V55.8157H447.951C450.007 55.8157 451.876 54.6169 452.73 52.745L540.989 -140.225V-165.503L444.575 45.2996H331.743V-277H321.227V-147.402C216.279 -157.758 154.799 -108.277 121.592 -64.4226C92.9277 -26.57 80.1822 12.6524 75.8259 28.7368L0.00756836 -19.4006V-6.94431L135.794 79.2692H135.707V233.077L0.00756836 208.328V219.017L321.224 277.603V306.427L0.00756836 563.02V576.478L145.277 460.435L255.995 610.232C257.002 611.596 258.58 612.366 260.223 612.366C260.657 612.366 261.093 612.311 261.527 612.201L436.065 567.502V683.468H446.581V465.762C446.581 463.779 445.466 461.965 443.694 461.071L404.493 441.241L471.491 368.156L540.986 394.886V383.62L471.922 357.057C469.911 356.281 467.618 356.815 466.159 358.411L394.747 436.311L260.499 368.398L329.763 313.071C331.017 312.069 331.743 310.557 331.743 308.956ZM436.07 468.993V556.644L262.352 601.133L153.5 453.865L251.468 375.607L436.07 468.993ZM321.227 266.913L146.226 234.994V85.8917L321.227 197.005V266.913ZM321.227 184.546L85.1642 34.6652C88.3217 22.2825 100.462 -19.0956 129.976 -58.0735C175.886 -118.707 240.226 -145.181 321.227 -136.85V184.546Z" fill="white"/>
<path d="M541 200.73H525.252L485.502 300.133H406L447.959 202.938H386.125V107.978H478.876L541 -12.6152V200.73Z" fill="#E1E9F6"/>
<path d="M108.904 25.2112L304.088 151.268V-113.044C304.088 -113.044 164.479 -126.599 108.904 25.2112Z" fill="#E1E9F6"/>
<path d="M291.138 433.703L220.154 483.655L259.589 557.267L401.557 549.38L409.444 481.026L354.234 457.364L330.573 494.171L306.912 481.026L327.944 441.59L291.138 433.703Z" fill="#E1E9F6"/>
<path d="M63.6749 285.411V427.43L0 459.82V282.414L63.6749 285.411Z" fill="#E1E9F6"/>
<path d="M169.68 373.554V290.39L81.3392 286.25V418.463L169.68 373.554Z" fill="#E1E9F6"/>
<path d="M182.93 291.011V366.819L235.936 339.876V293.498L182.93 291.011Z" fill="#E1E9F6"/>
</g>
<circle cx="339" cy="300" r="230" fill="#427CEE" fill-opacity="0.09"/>
<circle cx="339" cy="300" r="229.5" stroke="#256AF2" stroke-opacity="0.06"/>
<rect x="363" y="388" width="93" height="37" rx="8" fill="#256AF2"/>
<path d="M376.96 412C376.912 411.696 376.88 411.408 376.88 411.136C376.88 407.104 382.416 406.528 382.416 403.872C382.416 402.752 381.568 402 380.384 402C378.896 402 378.096 403.44 378.096 403.44L376.928 402.656C376.928 402.656 377.952 400.512 380.496 400.512C382.576 400.512 384.064 401.808 384.064 403.76C384.064 407.472 378.672 408.048 378.64 410.624H384.24V412H376.96ZM390.148 412.192C387.14 412.192 386.164 409.6 386.164 406.336C386.164 403.088 387.14 400.512 390.148 400.512C393.172 400.512 394.148 403.088 394.148 406.336C394.148 409.6 393.172 412.192 390.148 412.192ZM390.148 410.736C392.004 410.736 392.532 408.8 392.532 406.336C392.532 403.888 392.004 401.968 390.148 401.968C388.308 401.968 387.78 403.888 387.78 406.336C387.78 408.8 388.308 410.736 390.148 410.736ZM404.258 412.192C401.25 412.192 400.274 409.6 400.274 406.336C400.274 403.088 401.25 400.512 404.258 400.512C407.282 400.512 408.258 403.088 408.258 406.336C408.258 409.6 407.282 412.192 404.258 412.192ZM404.258 410.736C406.114 410.736 406.642 408.8 406.642 406.336C406.642 403.888 406.114 401.968 404.258 401.968C402.418 401.968 401.89 403.888 401.89 406.336C401.89 408.8 402.418 410.736 404.258 410.736ZM414.258 412.192C411.25 412.192 410.274 409.6 410.274 406.336C410.274 403.088 411.25 400.512 414.258 400.512C417.282 400.512 418.258 403.088 418.258 406.336C418.258 409.6 417.282 412.192 414.258 412.192ZM414.258 410.736C416.114 410.736 416.642 408.8 416.642 406.336C416.642 403.888 416.114 401.968 414.258 401.968C412.418 401.968 411.89 403.888 411.89 406.336C411.89 408.8 412.418 410.736 414.258 410.736ZM424.258 412.192C421.25 412.192 420.274 409.6 420.274 406.336C420.274 403.088 421.25 400.512 424.258 400.512C427.282 400.512 428.258 403.088 428.258 406.336C428.258 409.6 427.282 412.192 424.258 412.192ZM424.258 410.736C426.114 410.736 426.642 408.8 426.642 406.336C426.642 403.888 426.114 401.968 424.258 401.968C422.418 401.968 421.89 403.888 421.89 406.336C421.89 408.8 422.418 410.736 424.258 410.736ZM438.463 412H437.023V404.32H433.647V403.072H441.839V404.32H438.463V412ZM433.647 400.576H441.839V401.824H433.647V400.576Z" fill="white"/>
<path d="M409.5 434L404.304 425L414.696 425L409.5 434Z" fill="#256AF2"/>
<circle cx="304.5" cy="320.5" r="8.5" fill="#256AF2"/>
<rect x="89" y="254" width="91" height="37" rx="8" fill="#256AF2"/>
<path d="M102.896 278V276.624H105.392V269.328C105.392 268.976 105.408 268.624 105.408 268.624H105.376C105.376 268.624 105.248 268.88 104.832 269.28L103.776 270.32L102.816 269.328L105.52 266.704H106.928V276.624H109.392V278H102.896ZM114.996 278.192C112.58 278.192 110.772 276.08 110.772 272.864C110.772 269.968 112.356 266.512 115.86 266.512C117.188 266.512 118.052 266.976 118.052 266.976L117.54 268.336C117.54 268.336 116.82 267.968 115.924 267.968C113.844 267.968 112.772 269.888 112.532 271.76H112.564C113.044 271.12 114.068 270.688 115.06 270.688C117.204 270.688 118.628 272.32 118.628 274.416C118.628 276.64 117.108 278.192 114.996 278.192ZM114.98 276.736C116.276 276.736 117.06 275.728 117.06 274.416C117.06 273.04 116.18 272.032 114.74 272.032C113.46 272.032 112.436 272.8 112.436 273.616C112.436 275.088 113.54 276.736 114.98 276.736ZM128.508 278.192C125.5 278.192 124.524 275.6 124.524 272.336C124.524 269.088 125.5 266.512 128.508 266.512C131.532 266.512 132.508 269.088 132.508 272.336C132.508 275.6 131.532 278.192 128.508 278.192ZM128.508 276.736C130.364 276.736 130.892 274.8 130.892 272.336C130.892 269.888 130.364 267.968 128.508 267.968C126.668 267.968 126.14 269.888 126.14 272.336C126.14 274.8 126.668 276.736 128.508 276.736ZM138.508 278.192C135.5 278.192 134.524 275.6 134.524 272.336C134.524 269.088 135.5 266.512 138.508 266.512C141.532 266.512 142.508 269.088 142.508 272.336C142.508 275.6 141.532 278.192 138.508 278.192ZM138.508 276.736C140.364 276.736 140.892 274.8 140.892 272.336C140.892 269.888 140.364 267.968 138.508 267.968C136.668 267.968 136.14 269.888 136.14 272.336C136.14 274.8 136.668 276.736 138.508 276.736ZM148.508 278.192C145.5 278.192 144.524 275.6 144.524 272.336C144.524 269.088 145.5 266.512 148.508 266.512C151.532 266.512 152.508 269.088 152.508 272.336C152.508 275.6 151.532 278.192 148.508 278.192ZM148.508 276.736C150.364 276.736 150.892 274.8 150.892 272.336C150.892 269.888 150.364 267.968 148.508 267.968C146.668 267.968 146.14 269.888 146.14 272.336C146.14 274.8 146.668 276.736 148.508 276.736ZM162.713 278H161.273V270.32H157.897V269.072H166.089V270.32H162.713V278ZM157.897 266.576H166.089V267.824H157.897V266.576Z" fill="white"/>
<path d="M134.5 300L129.304 291L139.696 291L134.5 300Z" fill="#256AF2"/>
<rect x="421" y="208" width="90" height="37" rx="8" fill="#256AF2"/>
<path d="M434.896 232V230.624H437.392V223.328C437.392 222.976 437.408 222.624 437.408 222.624H437.376C437.376 222.624 437.248 222.88 436.832 223.28L435.776 224.32L434.816 223.328L437.52 220.704H438.928V230.624H441.392V232H434.896ZM442.596 230.624L443.476 229.472C443.476 229.472 444.356 230.688 445.956 230.688C447.284 230.688 448.436 229.776 448.436 228.4C448.436 227.04 447.316 226.08 445.86 226.08C444.756 226.08 443.956 226.64 443.956 226.64L443.044 226.304L443.604 220.704H449.3V222.08H444.98L444.708 224.464C444.692 224.8 444.628 225.056 444.628 225.056H444.66C444.66 225.056 445.284 224.704 446.116 224.704C448.5 224.704 450.052 226.352 450.052 228.384C450.052 230.56 448.34 232.192 446.052 232.192C443.732 232.192 442.596 230.624 442.596 230.624ZM459.945 232.192C456.937 232.192 455.961 229.6 455.961 226.336C455.961 223.088 456.937 220.512 459.945 220.512C462.969 220.512 463.945 223.088 463.945 226.336C463.945 229.6 462.969 232.192 459.945 232.192ZM459.945 230.736C461.801 230.736 462.329 228.8 462.329 226.336C462.329 223.888 461.801 221.968 459.945 221.968C458.105 221.968 457.577 223.888 457.577 226.336C457.577 228.8 458.105 230.736 459.945 230.736ZM469.945 232.192C466.937 232.192 465.961 229.6 465.961 226.336C465.961 223.088 466.937 220.512 469.945 220.512C472.969 220.512 473.945 223.088 473.945 226.336C473.945 229.6 472.969 232.192 469.945 232.192ZM469.945 230.736C471.801 230.736 472.329 228.8 472.329 226.336C472.329 223.888 471.801 221.968 469.945 221.968C468.105 221.968 467.577 223.888 467.577 226.336C467.577 228.8 468.105 230.736 469.945 230.736ZM479.945 232.192C476.937 232.192 475.961 229.6 475.961 226.336C475.961 223.088 476.937 220.512 479.945 220.512C482.969 220.512 483.945 223.088 483.945 226.336C483.945 229.6 482.969 232.192 479.945 232.192ZM479.945 230.736C481.801 230.736 482.329 228.8 482.329 226.336C482.329 223.888 481.801 221.968 479.945 221.968C478.105 221.968 477.577 223.888 477.577 226.336C477.577 228.8 478.105 230.736 479.945 230.736ZM494.151 232H492.711V224.32H489.335V223.072H497.527V224.32H494.151V232ZM489.335 220.576H497.527V221.824H489.335V220.576Z" fill="white"/>
<path d="M466 254L460.804 245L471.196 245L466 254Z" fill="#256AF2"/>
<rect x="304" y="65" width="91" height="37" rx="8" fill="#256AF2"/>
<path d="M317.896 89V87.624H320.392V80.328C320.392 79.976 320.408 79.624 320.408 79.624H320.376C320.376 79.624 320.248 79.88 319.832 80.28L318.776 81.32L317.816 80.328L320.52 77.704H321.928V87.624H324.392V89H317.896ZM325.74 85.736C325.74 84.008 327.244 82.936 327.548 82.728C326.812 82.2 326.284 81.512 326.284 80.472C326.284 78.968 327.42 77.512 329.804 77.512C331.9 77.512 333.356 78.68 333.356 80.536C333.356 82.04 332.156 83.32 332.012 83.48C332.876 84.008 333.548 84.712 333.548 85.88C333.548 87.64 332.028 89.192 329.676 89.192C327.42 89.192 325.74 87.784 325.74 85.736ZM331.916 85.832C331.916 84.616 330.236 84.136 328.716 83.4C328.348 83.656 327.356 84.424 327.356 85.64C327.356 86.936 328.476 87.768 329.676 87.768C330.86 87.768 331.916 87 331.916 85.832ZM327.852 80.504C327.852 81.752 329.356 82.232 330.812 82.856C330.988 82.68 331.804 81.816 331.804 80.632C331.804 79.592 330.972 78.936 329.788 78.936C328.54 78.936 327.852 79.64 327.852 80.504ZM343.648 89.192C340.64 89.192 339.664 86.6 339.664 83.336C339.664 80.088 340.64 77.512 343.648 77.512C346.672 77.512 347.648 80.088 347.648 83.336C347.648 86.6 346.672 89.192 343.648 89.192ZM343.648 87.736C345.504 87.736 346.032 85.8 346.032 83.336C346.032 80.888 345.504 78.968 343.648 78.968C341.808 78.968 341.28 80.888 341.28 83.336C341.28 85.8 341.808 87.736 343.648 87.736ZM353.648 89.192C350.64 89.192 349.664 86.6 349.664 83.336C349.664 80.088 350.64 77.512 353.648 77.512C356.672 77.512 357.648 80.088 357.648 83.336C357.648 86.6 356.672 89.192 353.648 89.192ZM353.648 87.736C355.504 87.736 356.032 85.8 356.032 83.336C356.032 80.888 355.504 78.968 353.648 78.968C351.808 78.968 351.28 80.888 351.28 83.336C351.28 85.8 351.808 87.736 353.648 87.736ZM363.648 89.192C360.64 89.192 359.664 86.6 359.664 83.336C359.664 80.088 360.64 77.512 363.648 77.512C366.672 77.512 367.648 80.088 367.648 83.336C367.648 86.6 366.672 89.192 363.648 89.192ZM363.648 87.736C365.504 87.736 366.032 85.8 366.032 83.336C366.032 80.888 365.504 78.968 363.648 78.968C361.808 78.968 361.28 80.888 361.28 83.336C361.28 85.8 361.808 87.736 363.648 87.736ZM377.854 89H376.414V81.32H373.038V80.072H381.23V81.32H377.854V89ZM373.038 77.576H381.23V78.824H373.038V77.576Z" fill="white"/>
<path d="M349.5 111L344.304 102L354.696 102L349.5 111Z" fill="#256AF2"/>
</g>
<defs>
<clipPath id="clip0_892_2608">
<rect y="-2" width="555" height="476" rx="24" fill="white"/>
</clipPath>
</defs>
</svg>
