<svg width="46" height="46" viewBox="0 0 46 46" fill="none" xmlns="http://www.w3.org/2000/svg">
<g clip-path="url(#clip0_892_2650)">
<circle cx="23" cy="23" r="22.25" stroke="#256AF2" stroke-width="1.5"/>
<g clip-path="url(#clip1_892_2650)">
<path d="M30.1428 23.7142V20.857C30.1428 20.4782 29.9923 20.1148 29.7244 19.8469C29.4565 19.579 29.0931 19.4285 28.7142 19.4285H15.1428C14.7639 19.4285 14.4006 19.579 14.1327 19.8469C13.8647 20.1148 13.7142 20.4782 13.7142 20.857V30.857C13.7142 31.2359 13.8647 31.5993 14.1327 31.8672C14.4006 32.1351 14.7639 32.2856 15.1428 32.2856H28.7142C29.0931 32.2856 29.4565 32.1351 29.7244 31.8672C29.9923 31.5993 30.1428 31.2359 30.1428 30.857V27.2856" stroke="#1C1C1C" stroke-linecap="round" stroke-linejoin="round"/>
<path d="M18.4857 15.8571L26.5857 13.7428C26.6767 13.7171 26.772 13.7102 26.8658 13.7224C26.9596 13.7346 27.0499 13.7656 27.1313 13.8137C27.2128 13.8618 27.2836 13.9258 27.3396 14.002C27.3956 14.0782 27.4356 14.165 27.4571 14.2571L27.8571 15.8571" stroke="#1C1C1C" stroke-linecap="round" stroke-linejoin="round"/>
<path d="M31.5714 23.7141H27.9999C27.6054 23.7141 27.2856 24.0339 27.2856 24.4284V26.5713C27.2856 26.9657 27.6054 27.2855 27.9999 27.2855H31.5714C31.9658 27.2855 32.2856 26.9657 32.2856 26.5713V24.4284C32.2856 24.0339 31.9658 23.7141 31.5714 23.7141Z" stroke="#1C1C1C" stroke-linecap="round" stroke-linejoin="round"/>
</g>
</g>
<defs>
<clipPath id="clip0_892_2650">
<rect width="46" height="46" fill="white"/>
</clipPath>
<clipPath id="clip1_892_2650">
<rect width="20" height="20" fill="white" transform="translate(13 13)"/>
</clipPath>
</defs>
</svg>
