<svg width="24" height="25" viewBox="0 0 24 25" fill="none" xmlns="http://www.w3.org/2000/svg">
<rect x="0.5" y="1.13965" width="23" height="23" rx="3.5" stroke="#256AF2"/>
<path d="M12.0001 7.30664C12.3683 7.30664 12.6667 7.60512 12.6667 7.97331V11.9733H16.6667C17.0349 11.9733 17.3334 12.2718 17.3334 12.64C17.3334 13.0082 17.0349 13.3066 16.6667 13.3066H12.6667V17.3066C12.6667 17.6748 12.3683 17.9733 12.0001 17.9733C11.6319 17.9733 11.3334 17.6748 11.3334 17.3066V13.3066H7.33341C6.96522 13.3066 6.66675 13.0082 6.66675 12.64C6.66675 12.2718 6.96522 11.9733 7.33341 11.9733H11.3334V7.97331C11.3334 7.60512 11.6319 7.30664 12.0001 7.30664Z" fill="#256AF2"/>
</svg>
