<svg width="8" height="14" viewBox="0 0 8 14" fill="none" xmlns="http://www.w3.org/2000/svg">
<path d="M6.74995 13.2501C6.65141 13.2506 6.55377 13.2313 6.46276 13.1936C6.37175 13.1558 6.2892 13.1002 6.21995 13.0301L0.719951 7.53009C0.5795 7.38947 0.50061 7.19884 0.50061 7.00009C0.50061 6.80134 0.5795 6.61072 0.719951 6.47009L6.21995 1.00009C6.36091 0.9087 6.52847 0.867279 6.69577 0.882467C6.86307 0.897654 7.02043 0.968571 7.14263 1.08385C7.26483 1.19913 7.34478 1.3521 7.36968 1.51823C7.39458 1.68437 7.36298 1.85405 7.27995 2.00009L2.27995 7.00009L7.27995 12.0001C7.4204 12.1407 7.49929 12.3313 7.49929 12.5301C7.49929 12.7288 7.4204 12.9195 7.27995 13.0601C7.13522 13.1908 6.94475 13.2591 6.74995 13.2501Z" fill="#000D26"/>
</svg>
