<svg width="21" height="20" viewBox="0 0 21 20" fill="none" xmlns="http://www.w3.org/2000/svg">
<path d="M16.3333 14.5833C16.3375 14.8817 16.2347 15.1718 16.0437 15.401C15.8526 15.6303 15.5859 15.7836 15.2916 15.8333H15.0833H5.91662H5.70829C5.41403 15.7836 5.14727 15.6303 4.95623 15.401C4.76518 15.1718 4.66245 14.8817 4.66662 14.5833C4.66072 14.2845 4.76282 13.9936 4.95417 13.7639C5.14552 13.5343 5.41328 13.3814 5.70829 13.3333V8.54167C5.70829 7.27084 6.21313 6.05206 7.11174 5.15345C8.01035 4.25483 9.22913 3.75 10.5 3.75C11.7708 3.75 12.9896 4.25483 13.8882 5.15345C14.7868 6.05206 15.2916 7.27084 15.2916 8.54167V13.3333C15.5866 13.3814 15.8544 13.5343 16.0457 13.7639C16.2371 13.9936 16.3392 14.2845 16.3333 14.5833Z" stroke="#256AF2" stroke-width="1.5" stroke-linecap="round" stroke-linejoin="round"/>
<path d="M8.83337 17.5H12.1667" stroke="#256AF2" stroke-width="1.5" stroke-linecap="round" stroke-linejoin="round"/>
<path d="M11.1833 3.80833C11.2806 3.669 11.3329 3.50326 11.3333 3.33333C11.3333 3.11232 11.2455 2.90036 11.0892 2.74408C10.9329 2.5878 10.721 2.5 10.5 2.5C10.2789 2.5 10.067 2.5878 9.9107 2.74408C9.75442 2.90036 9.66663 3.11232 9.66663 3.33333C9.66703 3.50326 9.71937 3.669 9.81663 3.80833" stroke="#256AF2" stroke-width="1.5" stroke-linecap="round" stroke-linejoin="round"/>
</svg>
