<svg width="24" height="24" viewBox="0 0 24 24" fill="none" xmlns="http://www.w3.org/2000/svg">
<path d="M12.9626 15.5356L7.83594 16.4584L8.69039 11.2633L18.4824 1.50549C18.6412 1.34532 18.8303 1.21818 19.0385 1.13143C19.2467 1.04467 19.4701 1 19.6957 1C19.9213 1 20.1447 1.04467 20.3529 1.13143C20.5611 1.21818 20.7502 1.34532 20.909 1.50549L22.7205 3.31692C22.8806 3.47579 23.0078 3.66479 23.0945 3.87304C23.1813 4.08128 23.2259 4.30465 23.2259 4.53024C23.2259 4.75584 23.1813 4.9792 23.0945 5.18744C23.0078 5.39569 22.8806 5.5847 22.7205 5.74356L12.9626 15.5356Z" stroke="#256AF2" stroke-linecap="round" stroke-linejoin="round"/>
<path d="M20.6523 16.39V21.5167C20.6523 21.9699 20.4723 22.4046 20.1518 22.7251C19.8313 23.0455 19.3967 23.2256 18.9434 23.2256H2.7089C2.25567 23.2256 1.82101 23.0455 1.50053 22.7251C1.18004 22.4046 1 21.9699 1 21.5167V5.28214C1 4.82891 1.18004 4.39425 1.50053 4.07377C1.82101 3.75329 2.25567 3.57324 2.7089 3.57324H7.8356" stroke="#256AF2" stroke-linecap="round" stroke-linejoin="round"/>
</svg>
