<svg width="25" height="24" viewBox="0 0 25 24" fill="none" xmlns="http://www.w3.org/2000/svg">
<path d="M15 6.75H4C3.80109 6.75 3.61032 6.67098 3.46967 6.53033C3.32902 6.38968 3.25 6.19891 3.25 6C3.25 5.80109 3.32902 5.61032 3.46967 5.46967C3.61032 5.32902 3.80109 5.25 4 5.25H15C15.1989 5.25 15.3897 5.32902 15.5303 5.46967C15.671 5.61032 15.75 5.80109 15.75 6C15.75 6.19891 15.671 6.38968 15.5303 6.53033C15.3897 6.67098 15.1989 6.75 15 6.75Z" fill="black"/>
<path d="M19.5 8C20.6046 8 21.5 7.10457 21.5 6C21.5 4.89543 20.6046 4 19.5 4C18.3954 4 17.5 4.89543 17.5 6C17.5 7.10457 18.3954 8 19.5 8Z" fill="black"/>
<path d="M21 12.75H10C9.80109 12.75 9.61032 12.671 9.46967 12.5303C9.32902 12.3897 9.25 12.1989 9.25 12C9.25 11.8011 9.32902 11.6103 9.46967 11.4697C9.61032 11.329 9.80109 11.25 10 11.25H21C21.1989 11.25 21.3897 11.329 21.5303 11.4697C21.671 11.6103 21.75 11.8011 21.75 12C21.75 12.1989 21.671 12.3897 21.5303 12.5303C21.3897 12.671 21.1989 12.75 21 12.75Z" fill="black"/>
<path d="M5.5 14C6.60457 14 7.5 13.1046 7.5 12C7.5 10.8954 6.60457 10 5.5 10C4.39543 10 3.5 10.8954 3.5 12C3.5 13.1046 4.39543 14 5.5 14Z" fill="black"/>
<path d="M15 18.75H4C3.80109 18.75 3.61032 18.671 3.46967 18.5303C3.32902 18.3897 3.25 18.1989 3.25 18C3.25 17.8011 3.32902 17.6103 3.46967 17.4697C3.61032 17.329 3.80109 17.25 4 17.25H15C15.1989 17.25 15.3897 17.329 15.5303 17.4697C15.671 17.6103 15.75 17.8011 15.75 18C15.75 18.1989 15.671 18.3897 15.5303 18.5303C15.3897 18.671 15.1989 18.75 15 18.75Z" fill="black"/>
<path d="M19.5 20C20.6046 20 21.5 19.1046 21.5 18C21.5 16.8954 20.6046 16 19.5 16C18.3954 16 17.5 16.8954 17.5 18C17.5 19.1046 18.3954 20 19.5 20Z" fill="black"/>
</svg>
