<svg width="16" height="17" viewBox="0 0 16 17" fill="none" xmlns="http://www.w3.org/2000/svg">
<g id="guide-line" clip-path="url(#clip0_1362_3151)">
<path id="Vector" d="M8.66764 5.8335V11.1668C8.66764 11.6973 8.45693 12.206 8.08186 12.581C7.70678 12.9561 7.19808 13.1668 6.66764 13.1668H5.22098C5.06371 13.6118 4.75418 13.9869 4.34711 14.2257C3.94003 14.4646 3.46163 14.5518 2.99645 14.472C2.53127 14.3923 2.10928 14.1506 1.80506 13.7897C1.50084 13.4289 1.33398 12.9721 1.33398 12.5002C1.33398 12.0282 1.50084 11.5714 1.80506 11.2106C2.10928 10.8497 2.53127 10.6081 2.99645 10.5283C3.46163 10.4485 3.94003 10.5357 4.34711 10.7746C4.75418 11.0134 5.06371 11.3885 5.22098 11.8335H6.66764C6.84445 11.8335 7.01402 11.7633 7.13905 11.6382C7.26407 11.5132 7.33431 11.3436 7.33431 11.1668V5.8335C7.33431 5.30306 7.54502 4.79436 7.9201 4.41928C8.29517 4.04421 8.80388 3.8335 9.33431 3.8335H11.3343V1.8335L14.6676 4.50016L11.3343 7.16683V5.16683H9.33431C9.1575 5.16683 8.98793 5.23707 8.86291 5.36209C8.73788 5.48712 8.66764 5.65669 8.66764 5.8335ZM3.33431 13.1668C3.51112 13.1668 3.68069 13.0966 3.80571 12.9716C3.93074 12.8465 4.00098 12.677 4.00098 12.5002C4.00098 12.3234 3.93074 12.1538 3.80571 12.0288C3.68069 11.9037 3.51112 11.8335 3.33431 11.8335C3.1575 11.8335 2.98793 11.9037 2.86291 12.0288C2.73788 12.1538 2.66764 12.3234 2.66764 12.5002C2.66764 12.677 2.73788 12.8465 2.86291 12.9716C2.98793 13.0966 3.1575 13.1668 3.33431 13.1668Z" fill="#1C1C1C"/>
</g>
<defs>
<clipPath id="clip0_1362_3151">
<rect width="16" height="16" fill="white" transform="translate(0 0.5)"/>
</clipPath>
</defs>
</svg>
