<svg width="16" height="17" viewBox="0 0 16 17" fill="none" xmlns="http://www.w3.org/2000/svg">
<path d="M11.3333 6.5H4.66663C3.56206 6.5 2.66663 7.39543 2.66663 8.5V12.5C2.66663 13.6046 3.56206 14.5 4.66663 14.5H11.3333C12.4379 14.5 13.3333 13.6046 13.3333 12.5V8.5C13.3333 7.39543 12.4379 6.5 11.3333 6.5Z" stroke="#000D26" stroke-linecap="round" stroke-linejoin="round"/>
<path d="M7.09333 2.50002H8.9C9.04414 2.49914 9.18703 2.52677 9.32045 2.58132C9.45387 2.63588 9.57518 2.71627 9.67742 2.81788C9.77965 2.9195 9.86078 3.04032 9.91614 3.17341C9.9715 3.30649 10 3.44921 10 3.59335V6.50002H6V3.59335C6 3.30338 6.11519 3.02529 6.32023 2.82025C6.52527 2.61521 6.80336 2.50002 7.09333 2.50002Z" stroke="#000D26" stroke-linecap="round" stroke-linejoin="round"/>
<path d="M7.99996 11.8334C8.73634 11.8334 9.33329 11.2365 9.33329 10.5001C9.33329 9.7637 8.73634 9.16675 7.99996 9.16675C7.26358 9.16675 6.66663 9.7637 6.66663 10.5001C6.66663 11.2365 7.26358 11.8334 7.99996 11.8334Z" stroke="#000D26" stroke-linecap="round" stroke-linejoin="round"/>
</svg>
