<svg width="25" height="24" viewBox="0 0 25 24" fill="none" xmlns="http://www.w3.org/2000/svg">
<path d="M3.95001 8.19991L8.95001 4.86991C9.11329 4.76239 9.30451 4.70508 9.50001 4.70508C9.69552 4.70508 9.88673 4.76239 10.05 4.86991L14.95 8.12991C15.1133 8.23744 15.3045 8.29475 15.5 8.29475C15.6955 8.29475 15.8867 8.23744 16.05 8.12991L19.95 5.53991C20.1004 5.44086 20.2748 5.38427 20.4547 5.3761C20.6346 5.36793 20.8133 5.40849 20.9721 5.49351C21.1308 5.57852 21.2637 5.70482 21.3566 5.85908C21.4495 6.01334 21.4991 6.18983 21.5 6.36991V14.9999C21.5008 15.1663 21.4601 15.3303 21.3815 15.477C21.3029 15.6236 21.189 15.7484 21.05 15.8399L16.05 19.1699C15.8867 19.2774 15.6955 19.3347 15.5 19.3347C15.3045 19.3347 15.1133 19.2774 14.95 19.1699L10.05 15.9099C9.88673 15.8024 9.69552 15.7451 9.50001 15.7451C9.30451 15.7451 9.11329 15.8024 8.95001 15.9099L5.05001 18.4999C4.89677 18.601 4.71866 18.6579 4.5352 18.6645C4.35174 18.6711 4.17001 18.627 4.00993 18.5372C3.84985 18.4473 3.71759 18.3151 3.62764 18.1551C3.5377 17.9951 3.49354 17.8134 3.50001 17.6299V8.99991C3.50569 8.84032 3.54951 8.68442 3.6278 8.54523C3.70609 8.40605 3.81658 8.28764 3.95001 8.19991Z" stroke="#000D26" stroke-width="1.5" stroke-linecap="round" stroke-linejoin="round"/>
<path d="M9.5 4.7002V15.7002" stroke="#000D26" stroke-width="1.5" stroke-linecap="round" stroke-linejoin="round"/>
<path d="M15.5 8.2998V19.2998" stroke="#000D26" stroke-width="1.5" stroke-linecap="round" stroke-linejoin="round"/>
</svg>
