<svg width="25" height="24" viewBox="0 0 25 24" fill="none" xmlns="http://www.w3.org/2000/svg">
<path d="M1.93994 6H22.5114" stroke="#256AF2" stroke-linecap="round" stroke-linejoin="round"/>
<path d="M4.51123 6H19.9398V21.4286C19.9398 21.8832 19.7592 22.3193 19.4377 22.6408C19.1162 22.9622 18.6802 23.1429 18.2255 23.1429H6.22552C5.77086 23.1429 5.33482 22.9622 5.01333 22.6408C4.69184 22.3193 4.51123 21.8832 4.51123 21.4286V6Z" stroke="#256AF2" stroke-linecap="round" stroke-linejoin="round"/>
<path d="M7.93994 6.00028V5.14314C7.93994 4.00649 8.39147 2.91641 9.1952 2.11268C9.99893 1.30895 11.089 0.857422 12.2257 0.857422C13.3623 0.857422 14.4524 1.30895 15.2561 2.11268C16.0598 2.91641 16.5114 4.00649 16.5114 5.14314V6.00028" stroke="#256AF2" stroke-linecap="round" stroke-linejoin="round"/>
<path d="M9.6543 9.42871V18.8573" stroke="#256AF2" stroke-linecap="round" stroke-linejoin="round"/>
<path d="M14.7969 9.42871V18.8573" stroke="#256AF2" stroke-linecap="round" stroke-linejoin="round"/>
</svg>
