<svg width="19" height="18" viewBox="0 0 19 18" fill="none" xmlns="http://www.w3.org/2000/svg">
<g clip-path="url(#clip0_390_2091)">
<path d="M3.5 11.2499V6.37488C3.5 5.47977 3.85558 4.62133 4.48851 3.98839C5.12145 3.35546 5.97989 2.99988 6.875 2.99988C7.77011 2.99988 8.62855 3.35546 9.26149 3.98839C9.89442 4.62133 10.25 5.47977 10.25 6.37488V11.6249C10.25 12.1222 10.4475 12.5991 10.7992 12.9507C11.1508 13.3023 11.6277 13.4999 12.125 13.4999C12.6223 13.4999 13.0992 13.3023 13.4508 12.9507C13.8025 12.5991 14 12.1222 14 11.6249V6.62238C13.4994 6.44545 13.0774 6.09723 12.8087 5.63927C12.54 5.18132 12.4419 4.64311 12.5316 4.11979C12.6214 3.59646 12.8933 3.12172 13.2992 2.77947C13.7052 2.43723 14.219 2.24951 14.75 2.24951C15.281 2.24951 15.7948 2.43723 16.2008 2.77947C16.6067 3.12172 16.8786 3.59646 16.9684 4.11979C17.0581 4.64311 16.96 5.18132 16.6913 5.63927C16.4226 6.09723 16.0006 6.44545 15.5 6.62238V11.6249C15.5 12.52 15.1444 13.3784 14.5115 14.0114C13.8785 14.6443 13.0201 14.9999 12.125 14.9999C11.2299 14.9999 10.3715 14.6443 9.73851 14.0114C9.10558 13.3784 8.75 12.52 8.75 11.6249V6.37488C8.75 5.8776 8.55246 5.40068 8.20083 5.04905C7.84919 4.69742 7.37228 4.49988 6.875 4.49988C6.37772 4.49988 5.90081 4.69742 5.54917 5.04905C5.19754 5.40068 5 5.8776 5 6.37488V11.2499H7.25L4.25 14.9999L1.25 11.2499H3.5ZM14.75 5.24988C14.9489 5.24988 15.1397 5.17086 15.2803 5.03021C15.421 4.88956 15.5 4.69879 15.5 4.49988C15.5 4.30097 15.421 4.1102 15.2803 3.96955C15.1397 3.8289 14.9489 3.74988 14.75 3.74988C14.5511 3.74988 14.3603 3.8289 14.2197 3.96955C14.079 4.1102 14 4.30097 14 4.49988C14 4.69879 14.079 4.88956 14.2197 5.03021C14.3603 5.17086 14.5511 5.24988 14.75 5.24988Z" fill="#256AF2"/>
</g>
<defs>
<clipPath id="clip0_390_2091">
<rect width="18" height="18" fill="white" transform="translate(0.5)"/>
</clipPath>
</defs>
</svg>
