<svg width="52" height="52" viewBox="0 0 52 52" fill="none" xmlns="http://www.w3.org/2000/svg">
<g style="mix-blend-mode:multiply">
<path d="M36.4309 50.683L2.07088 30.843C-0.999115 29.073 -0.60913 25.973 2.93087 23.933C6.47087 21.883 11.8409 21.663 14.9109 23.433L49.2709 43.273C52.3409 45.043 51.9509 48.143 48.4109 50.183C44.8709 52.233 39.5009 52.453 36.4309 50.683Z" fill="#EAEAEA"/>
</g>
<path d="M7.76086 19.1932C7.36086 18.9632 6.98087 18.8532 6.64087 18.8432C5.75087 18.8132 5.14087 19.4932 5.14087 20.6832C5.14087 22.3432 6.32086 24.3632 7.76086 25.1932C8.81086 25.7932 9.71087 25.6133 10.1409 24.8333C10.2909 24.5433 10.3809 24.1633 10.3809 23.7033C10.3809 22.0533 9.20086 20.0332 7.76086 19.1932Z" fill="#676A68"/>
<path d="M6.76086 18.7333C6.83086 18.7833 6.90089 18.8233 6.97089 18.8733C6.64089 18.6833 6.34088 18.5733 6.03088 18.5433V18.5233C6.03088 18.5233 6.03087 18.4333 6.05087 18.4033C6.28087 18.4933 6.52088 18.5933 6.75089 18.7333H6.76086Z" fill="#4C4C4C"/>
<path d="M10.651 25.4332C10.651 25.6932 10.631 25.9432 10.581 26.1832C10.371 26.1132 10.141 25.9932 9.90097 25.8832C10.131 25.5132 10.271 25.0132 10.271 24.4132C10.271 24.1532 10.251 23.9032 10.201 23.6432C10.181 23.3832 10.111 23.1032 10.011 22.8432C9.94096 22.5832 9.85096 22.3232 9.73096 22.0732C10.321 23.1732 10.641 24.3632 10.641 25.4432L10.651 25.4332Z" fill="#4C4C4C"/>
<path d="M14.8109 25.5731C14.8109 21.7131 12.1009 17.0131 8.75089 15.0931C7.12088 14.1531 5.92087 13.8931 5.11087 14.2831C4.91087 14.3831 4.51086 14.6031 4.51086 14.6031L2.52087 15.7531L2.94089 16.5031L3.78088 18.0231C3.78088 18.2131 3.78087 18.4231 3.80087 18.6131V18.6331C4.10087 22.0931 6.42089 26.0731 9.32089 28.0431C9.39089 28.0931 9.46087 28.1331 9.55087 28.1831L10.7009 30.1931L10.9609 30.6631L13.0409 29.4731C13.0409 29.4731 13.4009 29.2331 13.5809 29.1331C14.3909 28.6831 14.7909 27.5131 14.7909 25.5931L14.8109 25.5731ZM9.81088 26.0331C9.81088 26.0331 9.81086 26.0531 9.79086 26.0531C9.25086 26.2431 8.55087 26.1431 7.80087 25.7031C6.04087 24.6931 4.64087 22.2631 4.64087 20.2731C4.64087 20.1531 4.64089 20.0431 4.66089 19.9431C4.71089 19.3631 4.87088 18.8931 5.15088 18.5831C5.66088 18.4231 6.27087 18.4931 6.98087 18.8631C6.98087 18.8631 7.00089 18.8631 7.00089 18.8831C7.02088 18.8831 7.05089 18.9031 7.07089 18.9331C7.23089 19.0031 7.40088 19.1431 7.56088 19.2631C8.31088 19.8931 8.99088 20.7131 9.53088 21.6231C9.62088 21.7631 9.67088 21.9031 9.74088 22.0431C10.0909 22.8131 10.2809 23.6331 10.2809 24.3831C10.2809 25.0831 10.0909 25.6431 9.81088 26.0231V26.0331Z" fill="url(#paint0_linear_28_4792)"/>
<path d="M6.76089 16.2133C5.82089 15.6733 4.96092 15.4133 4.16092 15.3933C2.10092 15.3233 0.670898 16.9133 0.670898 19.6733C0.670898 23.5333 3.41092 28.2333 6.75092 30.1533C9.18092 31.5533 11.2909 31.1333 12.2709 29.3133C12.6209 28.6333 12.8309 27.7433 12.8309 26.6933C12.8309 22.8533 10.0909 18.1533 6.75092 16.2133H6.76089ZM10.2709 24.4033C10.2709 25.1033 10.0809 25.6633 9.8009 26.0433C9.8009 26.0433 9.80091 26.0633 9.78091 26.0633C9.24091 26.2533 8.54089 26.1533 7.79089 25.7133C6.03089 24.7033 4.63092 22.2733 4.63092 20.2833C4.63092 19.5533 4.8209 18.9733 5.1409 18.6033C5.6509 18.4433 6.26092 18.5133 6.97092 18.8833C7.16092 19.0033 7.37091 19.1433 7.56091 19.2833C8.31091 19.9133 8.99091 20.7333 9.53091 21.6433C9.62091 21.7833 9.67091 21.9233 9.74091 22.0633C10.0909 22.8333 10.2809 23.6533 10.2809 24.4033H10.2709Z" fill="url(#paint1_linear_28_4792)"/>
<path d="M6.5509 17.053C5.5909 16.513 4.70091 16.263 3.93091 16.303C3.58091 16.303 3.2509 16.3729 2.9509 16.4929C1.7109 16.9629 0.940918 18.2629 0.940918 20.2529C0.940918 23.7829 3.47091 28.123 6.56091 29.913C8.20091 30.873 9.7009 30.893 10.7309 30.173C11.0809 29.933 11.3909 29.583 11.6209 29.173C11.9909 28.543 12.1809 27.6929 12.1809 26.7129C12.1809 23.1529 9.66091 18.823 6.56091 17.053H6.5509ZM9.78091 26.0629C9.25091 26.2529 8.54089 26.1629 7.79089 25.7129C6.04089 24.7029 4.63092 22.2729 4.63092 20.2829C4.63092 20.1629 4.63091 20.043 4.65091 19.953C4.69091 19.373 4.8609 18.9029 5.1409 18.5929C5.6509 18.4329 6.26091 18.5029 6.96091 18.8729C6.96091 18.8729 6.9809 18.873 6.9809 18.893C7.0009 18.893 7.0309 18.913 7.0509 18.943C7.2209 19.033 7.38089 19.1529 7.54089 19.2729C8.29089 19.9029 8.97089 20.723 9.51089 21.633C9.60089 21.773 9.65092 21.913 9.72092 22.053C10.0709 22.823 10.2609 23.643 10.2609 24.393C10.2609 25.103 10.0709 25.6529 9.79089 26.0329C9.79089 26.0329 9.7909 26.053 9.7709 26.053L9.78091 26.0629Z" fill="url(#paint2_linear_28_4792)"/>
<path d="M6.64093 18.3931C5.93093 17.9931 5.27095 17.8031 4.69095 17.8331C4.43095 17.8331 4.19094 17.8831 3.96094 17.9731C3.04094 18.3231 2.46094 19.2931 2.46094 20.7731C2.46094 23.4031 4.34093 26.6231 6.64093 27.9631C7.86093 28.6731 8.97094 28.6931 9.74094 28.1531C10.0009 27.9831 10.2309 27.7231 10.4009 27.4031C10.6809 26.9331 10.821 26.3031 10.821 25.5731C10.821 22.9231 8.94093 19.7031 6.64093 18.3831V18.3931ZM9.81094 26.0431C9.81094 26.0431 9.81092 26.0631 9.79092 26.0631C9.26092 26.2531 8.55093 26.1631 7.80093 25.7131C6.05093 24.7031 4.64093 22.2731 4.64093 20.2831C4.64093 20.1631 4.64095 20.0431 4.66095 19.9531C4.70095 19.3731 4.87094 18.9031 5.15094 18.5931C5.66094 18.4331 6.27095 18.5031 6.97095 18.8731C6.97095 18.8731 6.99094 18.8731 6.99094 18.8931C7.01094 18.8931 7.04094 18.9131 7.06094 18.9431C7.23094 19.0331 7.39093 19.1531 7.55093 19.2731C8.30093 19.9031 8.98094 20.7231 9.52094 21.6331C9.61094 21.7731 9.66093 21.9132 9.73093 22.0532C10.0809 22.8232 10.2709 23.6431 10.2709 24.3931C10.2709 25.1031 10.0809 25.6531 9.80093 26.0331L9.81094 26.0431Z" fill="#2C2C2C"/>
<path d="M10.6509 25.4333C10.6509 25.6933 10.6309 25.9433 10.5809 26.1833C10.4409 27.1233 9.97088 27.7533 9.34088 28.0333C8.66088 28.3133 7.75087 28.2233 6.77087 27.6633C4.62087 26.4233 2.89087 23.4233 2.89087 20.9733C2.89087 19.8733 3.24087 19.0533 3.83087 18.6333V18.6133C4.39087 18.1933 5.16087 18.1033 6.08087 18.4233C6.31087 18.5133 6.55088 18.6133 6.78088 18.7533C6.85088 18.8033 6.92088 18.8433 6.99088 18.8933C6.66088 18.7033 6.36087 18.5933 6.05087 18.5633V18.5433C5.72087 18.4933 5.44089 18.5233 5.16089 18.6133C4.83089 18.9833 4.65088 19.5733 4.65088 20.2933C4.65088 22.2833 6.05088 24.7133 7.81088 25.7233C8.56088 26.1633 9.26087 26.2633 9.80087 26.0733C9.82087 26.0733 9.82089 26.0533 9.82089 26.0533C9.87089 26.0033 9.89089 25.9633 9.91089 25.8933C10.1409 25.5233 10.2809 25.0233 10.2809 24.4233C10.2809 24.1633 10.2609 23.9133 10.2109 23.6533C10.1909 23.3933 10.1209 23.1133 10.0209 22.8533C9.95087 22.5933 9.86088 22.3333 9.74088 22.0833C10.3309 23.1833 10.6509 24.3733 10.6509 25.4533V25.4333Z" fill="#9FA1A0"/>
<path d="M7.24088 27.5032C5.09088 26.2632 3.36087 23.2632 3.36087 20.8132C3.36087 19.7132 3.71087 18.8932 4.30087 18.4732V18.4532C4.40087 18.3732 4.51089 18.3132 4.63089 18.2632C4.33089 18.3232 4.06087 18.4332 3.83087 18.6032V18.6232C3.24087 19.0432 2.89087 19.8632 2.89087 20.9632C2.89087 23.4232 4.62087 26.4132 6.77087 27.6532C7.75087 28.2132 8.67088 28.3032 9.34088 28.0232C9.37088 28.0132 9.39087 27.9932 9.42087 27.9832C8.80087 28.1032 8.04088 27.9532 7.24088 27.5032Z" fill="#686B6A"/>
<path d="M9.78094 26.063C9.22094 26.743 8.24093 26.833 7.11093 26.203C5.38093 25.193 3.95093 22.743 3.95093 20.753C3.95093 19.583 4.42093 18.833 5.14093 18.603C4.81093 18.973 4.63095 19.563 4.63095 20.283C4.63095 22.273 6.03092 24.703 7.79092 25.713C8.54092 26.153 9.24094 26.253 9.78094 26.063Z" fill="#CCCECD"/>
<path d="M7.56094 19.273C7.37094 19.133 7.16095 18.993 6.97095 18.873C7.02095 18.893 7.06093 18.9231 7.11093 18.9431C7.27093 19.0331 7.41093 19.133 7.55093 19.273H7.56094Z" fill="#0C100F"/>
<path d="M9.5209 21.6432C8.9809 20.7332 8.3009 19.9132 7.5509 19.2832C8.3509 19.8432 9.0509 20.6832 9.5209 21.6432Z" fill="#0C100F"/>
<path d="M7.35098 19.433C6.95098 19.203 6.57096 19.093 6.23096 19.083C5.34096 19.053 4.73096 19.733 4.73096 20.923C4.73096 22.583 5.91098 24.603 7.35098 25.433C8.40098 26.033 9.30096 25.853 9.73096 25.073C9.88096 24.783 9.97098 24.403 9.97098 23.943C9.97098 22.293 8.79098 20.273 7.35098 19.433Z" fill="#9FA1A0"/>
<path d="M6.87094 20.6931C6.61094 20.5431 6.37095 20.4731 6.16095 20.4631C5.59095 20.4431 5.20093 20.8831 5.20093 21.6431C5.20093 22.7031 5.95094 24.0031 6.87094 24.5231C7.54094 24.9131 8.12093 24.7931 8.39093 24.2931C8.49093 24.1031 8.54092 23.8631 8.54092 23.5731C8.54092 22.5131 7.79094 21.2231 6.87094 20.6931Z" fill="#B9BAB9"/>
<path d="M6.87088 21.9433C6.78088 21.8933 6.70088 21.8633 6.62088 21.8633C6.42088 21.8633 6.28088 22.0133 6.28088 22.2733C6.28088 22.6433 6.54088 23.0933 6.87088 23.2833C7.10088 23.4233 7.31088 23.3733 7.40088 23.2033C7.43088 23.1333 7.45087 23.0533 7.45087 22.9533C7.45087 22.5833 7.19087 22.1333 6.86087 21.9433H6.87088Z" fill="#959795"/>
<path d="M7.27085 19.8729C5.33085 16.5029 5.17085 15.0429 2.46085 14.1029C-0.249149 13.1629 0.390858 6.7829 4.03086 4.7829C7.68086 2.7829 11.6009 12.4029 11.6009 12.4029L7.27085 19.8829V19.8729Z" fill="#313942"/>
<path d="M37.0909 31.5229C36.1909 31.7629 35.6808 31.6129 34.4308 31.2429C33.1808 30.8729 19.2708 22.4829 19.2708 22.4829L13.9608 25.5529L13.1108 29.2129C13.1108 29.2129 24.3209 35.9829 25.5709 36.3529C26.8209 36.7229 27.3308 36.8729 28.2308 36.6329L33.5408 33.5629L37.0808 31.5129L37.0909 31.5229Z" fill="#9BA1A6"/>
<path d="M27.4309 35.4431C27.0209 35.4431 26.5509 35.3031 25.7709 35.0731C24.9009 34.7931 17.9709 30.6831 11.8109 27.0031L19.2609 22.7031C22.6109 24.7131 33.0009 30.9531 34.2209 31.3231C34.4009 31.3731 34.5709 31.4231 34.7209 31.4731L27.9609 35.3831C27.7609 35.4331 27.5909 35.4531 27.4209 35.4531L27.4309 35.4431Z" fill="#535C5E"/>
<path d="M26.2609 26.1528C26.6009 28.6628 34.3109 31.7029 34.3109 31.7029C34.3109 31.7029 36.0309 31.5328 34.5709 30.4928C33.1109 29.4528 26.2709 26.1528 26.2709 26.1528H26.2609Z" fill="#535C5E"/>
<path d="M24.6808 27.8132C24.6808 27.8132 28.5809 15.1132 24.1309 10.5632C20.0709 6.41323 14.2409 5.20325 12.7509 5.70325C9.22085 6.89325 6.77086 8.72323 6.38086 14.5932C11.6009 17.6032 24.6808 27.8132 24.6808 27.8132Z" fill="#AFB4B8"/>
<path d="M26.741 14.3029C26.741 14.3029 24.981 17.5629 24.681 19.9529C24.381 22.3429 24.681 27.8129 24.681 27.8129L19.371 30.8829L8.36097 15.3929C8.36097 15.3929 4.16098 8.03289 7.59098 5.17289C10.271 2.93289 15.251 5.3029 15.251 5.3029L27.361 12.8729L26.741 14.3129V14.3029Z" fill="#AFB4B8"/>
<path d="M13.2509 2.98305C8.67089 0.473053 4.11088 4.09303 2.46088 6.02303C0.81088 7.95303 4.11087 11.833 5.89087 13.383C7.67087 14.933 15.5609 24.753 17.6109 24.473C19.6609 24.193 28.8409 20.7331 28.1809 16.3031C27.5309 11.8731 13.2509 2.97304 13.2509 2.97304V2.98305Z" fill="#AFB4B8"/>
<path d="M15.4109 3.20302L27.1109 10.793C27.1109 10.793 28.2909 13.653 27.9509 13.923C27.6109 14.193 24.3009 16.303 24.3009 16.303L14.2209 7.813C14.2209 7.813 11.7409 4.95302 11.6009 4.54302C11.4609 4.13302 12.9409 2.09301 12.9909 2.07301C13.0309 2.05301 15.4109 3.19301 15.4109 3.19301V3.20302Z" fill="#484848"/>
<path d="M27.7209 36.7728L29.6109 35.6729C29.2809 36.1429 28.9509 36.4928 28.5109 36.6528C28.2809 36.7428 28.0209 36.7728 27.7209 36.7528V36.7728Z" fill="#AFB4B8"/>
<path d="M38.9908 26.7831C38.7308 27.5731 38.1009 28.3731 37.5009 29.0631C37.0809 29.5531 36.6708 29.9832 36.4308 30.3232C36.3308 30.4632 36.2408 30.5931 36.1508 30.7231C34.9308 32.5031 34.5009 33.8131 33.0309 33.6931L32.8109 33.8232L32.5508 33.9731L30.4808 35.1732L29.6208 35.6732C30.0408 35.0732 30.4808 34.2832 31.1208 33.3932C31.3108 33.1432 31.5809 32.8332 31.8809 32.4832C31.9009 32.4532 31.9308 32.4232 31.9608 32.3932C32.3608 31.9432 32.8008 31.4331 33.1508 30.9031C33.1608 30.8831 33.1808 30.8532 33.2008 30.8332C33.4108 30.5132 33.5809 30.1831 33.6909 29.8531C34.0609 28.7331 33.4408 26.1831 32.7608 23.2731C31.7508 18.8831 30.5909 13.6532 32.4709 11.1432C32.6409 10.9132 32.8708 10.6932 33.1408 10.4832C34.4708 9.42315 36.6609 8.72314 36.6609 8.72314C36.6609 9.25314 36.7108 9.84313 36.7708 10.4931C37.3408 15.7831 39.8108 24.2832 38.9908 26.7932V26.7831Z" fill="#AFB4B8"/>
<path d="M38.8109 30.5431L38.4409 30.1931C38.4409 30.1931 42.4909 25.9331 42.3709 23.2331C42.2809 21.2531 41.0709 17.1331 40.3409 14.6731C40.1909 14.1631 40.0609 13.7331 39.9709 13.3831C39.8209 12.8431 39.6809 12.3931 39.5509 11.9731C39.1809 10.7931 39.4709 12.1631 39.1809 10.2231L39.6909 10.1431C39.9809 12.0431 39.6909 10.653 40.0409 11.813C40.1709 12.233 40.3109 12.6931 40.4609 13.2331C40.5609 13.5731 40.6809 14.0131 40.8309 14.5131C41.5609 16.9931 42.7809 21.1531 42.8809 23.1931C43.0109 26.1131 38.9809 30.3531 38.8109 30.5331V30.5431Z" fill="#9DA2B0"/>
<path d="M36.5709 31.6532C38.1509 31.7832 38.7509 30.4032 40.1909 28.4232C40.8009 27.5932 42.0909 26.0732 42.5309 24.7332C43.4509 21.9132 39.1009 12.2232 39.0709 7.32324C39.0709 7.32324 35.9309 8.32323 34.8809 9.74323C34.9209 14.6432 38.1409 24.9933 37.2209 27.8033C36.7809 29.1433 35.2609 30.5132 34.6609 31.3432C33.2209 33.3232 32.8409 34.8432 31.2609 34.7132L36.5709 31.6432V31.6532Z" fill="#AFB4B8"/>
<path d="M41.4409 26.8633L38.8509 30.4133L38.3309 31.1333C38.3309 31.1333 35.2209 34.8733 30.9609 36.4533C30.3309 36.6933 29.6809 36.8733 29.0009 36.9933C29.0009 36.9933 28.9609 36.9933 28.9509 37.0033C28.5709 37.0633 28.1909 37.1133 27.8009 37.1333C28.0009 37.0533 28.2509 36.8733 28.5109 36.6633C29.0109 36.2633 29.5209 35.7633 29.6109 35.6833L31.8509 32.5433C31.8509 32.5433 31.8509 32.5433 31.8509 32.5333L31.9509 32.4033L33.0109 30.9233V30.9133L33.1809 30.8433L33.7409 30.6133C33.7409 30.6133 33.8009 30.5933 33.8109 30.5833H33.8309L34.1809 30.4333L37.4809 29.0833L37.6809 29.0033L41.4209 26.8833L41.4409 26.8633Z" fill="#9BA1A6"/>
<path d="M41.3909 38.6132C40.9909 38.3832 40.6109 38.2732 40.2709 38.2632C39.3809 38.2332 38.7709 38.9132 38.7709 40.1032C38.7709 41.7632 39.9509 43.7832 41.3909 44.6132C42.4409 45.2132 43.3409 45.0331 43.7709 44.2531C43.9209 43.9632 44.0109 43.5831 44.0109 43.1231C44.0109 41.4731 42.8309 39.4532 41.3909 38.6132Z" fill="#676A68"/>
<path d="M40.4009 38.1532C40.4709 38.2032 40.5409 38.2432 40.6109 38.2932C40.2809 38.1032 39.9809 37.9932 39.6709 37.9632V37.9432C39.6709 37.9432 39.6709 37.8532 39.6909 37.8232C39.9209 37.9132 40.1609 38.0132 40.3909 38.1532H40.4009Z" fill="#4C4C4C"/>
<path d="M44.2809 44.8434C44.2809 45.1034 44.2608 45.3534 44.2108 45.5934C44.0008 45.5234 43.7709 45.4034 43.5309 45.2934C43.7609 44.9234 43.9008 44.4234 43.9008 43.8234C43.9008 43.5634 43.8808 43.3134 43.8308 43.0534C43.8108 42.7934 43.7408 42.5134 43.6408 42.2534C43.5708 41.9934 43.4808 41.7334 43.3608 41.4834C43.9508 42.5834 44.2708 43.7734 44.2708 44.8534L44.2809 44.8434Z" fill="#4C4C4C"/>
<path d="M48.4409 44.9833C48.4409 41.1233 45.7309 36.4233 42.3809 34.5033C40.7509 33.5633 39.5509 33.3033 38.7409 33.6933C38.5409 33.7933 38.1409 34.0133 38.1409 34.0133L36.1509 35.1633L36.5709 35.9133L37.4109 37.4332C37.4109 37.6232 37.4109 37.8332 37.4309 38.0232V38.0433C37.7309 41.5033 40.0509 45.4833 42.9509 47.4533C43.0209 47.5033 43.0909 47.5432 43.1809 47.5932L44.3309 49.6033L44.5909 50.0733L46.6709 48.8833C46.6709 48.8833 47.0309 48.6433 47.2109 48.5433C48.0209 48.0933 48.4209 46.9233 48.4209 45.0033L48.4409 44.9833ZM43.4409 45.4533C43.4409 45.4533 43.4409 45.4733 43.4209 45.4733C42.8809 45.6633 42.1809 45.5632 41.4309 45.1232C39.6709 44.1132 38.2709 41.6833 38.2709 39.6933C38.2709 39.5733 38.2709 39.4633 38.2909 39.3633C38.3409 38.7733 38.5009 38.3133 38.7809 38.0033C39.2909 37.8433 39.9009 37.9132 40.6109 38.2832C40.6109 38.2832 40.6309 38.2833 40.6309 38.3033C40.6509 38.3033 40.6809 38.3233 40.7009 38.3533C40.8609 38.4233 41.0309 38.5632 41.1909 38.6832C41.9409 39.3132 42.6209 40.1333 43.1609 41.0433C43.2509 41.1833 43.3009 41.3232 43.3709 41.4632C43.7209 42.2332 43.9109 43.0533 43.9109 43.8033C43.9109 44.5033 43.7209 45.0633 43.4409 45.4433V45.4533Z" fill="url(#paint3_linear_28_4792)"/>
<path d="M40.4009 35.6235C39.4609 35.0835 38.6009 34.8235 37.8009 34.8035C35.7409 34.7335 34.3109 36.3235 34.3109 39.0835C34.3109 42.9435 37.0509 47.6435 40.3909 49.5635C42.8209 50.9635 44.9309 50.5435 45.9109 48.7235C46.2609 48.0435 46.4709 47.1535 46.4709 46.1035C46.4709 42.2635 43.7309 37.5635 40.3909 35.6235H40.4009ZM43.9109 43.8135C43.9109 44.5135 43.7209 45.0735 43.4409 45.4535C43.4409 45.4535 43.4409 45.4735 43.4209 45.4735C42.8809 45.6635 42.1809 45.5635 41.4309 45.1235C39.6709 44.1135 38.2709 41.6835 38.2709 39.6935C38.2709 38.9635 38.4609 38.3835 38.7809 38.0135C39.2909 37.8535 39.9009 37.9235 40.6109 38.2935C40.8009 38.4135 41.0109 38.5535 41.2009 38.6935C41.9509 39.3235 42.6309 40.1435 43.1709 41.0535C43.2609 41.1935 43.3109 41.3335 43.3809 41.4735C43.7309 42.2435 43.9209 43.0635 43.9209 43.8135H43.9109Z" fill="url(#paint4_linear_28_4792)"/>
<path d="M40.1809 36.4734C39.2209 35.9334 38.3309 35.6834 37.5609 35.7234C37.2109 35.7234 36.8809 35.7934 36.5809 35.9134C35.3409 36.3834 34.5709 37.6834 34.5709 39.6734C34.5709 43.2034 37.1009 47.5434 40.1909 49.3334C41.8309 50.2934 43.3309 50.3134 44.3609 49.5934C44.7109 49.3634 45.0209 49.0034 45.2509 48.5934C45.6209 47.9634 45.8109 47.1134 45.8109 46.1334C45.8109 42.5734 43.2909 38.2434 40.1909 36.4734H40.1809ZM43.4109 45.4734C42.8809 45.6634 42.1709 45.5734 41.4209 45.1234C39.6709 44.1134 38.2609 41.6834 38.2609 39.6934C38.2609 39.5734 38.2609 39.4534 38.2809 39.3634C38.3209 38.7834 38.4909 38.3134 38.7709 38.0034C39.2809 37.8434 39.8909 37.9134 40.5909 38.2834C40.5909 38.2834 40.6109 38.2834 40.6109 38.3034C40.6309 38.3034 40.6609 38.3234 40.6809 38.3534C40.8509 38.4434 41.0109 38.5634 41.1709 38.6834C41.9209 39.3134 42.6009 40.1334 43.1409 41.0434C43.2309 41.1834 43.2809 41.3234 43.3509 41.4634C43.7009 42.2334 43.8909 43.0534 43.8909 43.8034C43.8909 44.5134 43.7009 45.0634 43.4209 45.4434C43.4209 45.4434 43.4209 45.4634 43.4009 45.4634L43.4109 45.4734Z" fill="url(#paint5_linear_28_4792)"/>
<path d="M40.2709 37.8131C39.5609 37.4131 38.901 37.2231 38.321 37.2531C38.061 37.2531 37.8209 37.3031 37.5909 37.3931C36.6709 37.7431 36.0909 38.7131 36.0909 40.1931C36.0909 42.8231 37.9709 46.0431 40.2709 47.3831C41.4909 48.0931 42.6009 48.1131 43.3709 47.5731C43.6309 47.4031 43.8609 47.1431 44.0309 46.8231C44.3109 46.3531 44.4509 45.7231 44.4509 44.9931C44.4509 42.3431 42.5709 39.1231 40.2709 37.8031V37.8131ZM43.4409 45.4531C43.4409 45.4531 43.4409 45.4731 43.4209 45.4731C42.8909 45.6631 42.1809 45.5731 41.4309 45.1231C39.6809 44.1131 38.2709 41.6831 38.2709 39.6931C38.2709 39.5731 38.2709 39.4531 38.2909 39.3631C38.3309 38.7831 38.5009 38.3131 38.7809 38.0031C39.2909 37.8431 39.901 37.9131 40.601 38.2831C40.601 38.2831 40.6209 38.2831 40.6209 38.3031C40.6409 38.3031 40.6709 38.3231 40.6909 38.3531C40.8609 38.4431 41.0209 38.5631 41.1809 38.6831C41.9309 39.3131 42.6109 40.1331 43.1509 41.0431C43.2409 41.1831 43.2909 41.3231 43.3609 41.4631C43.7109 42.2331 43.9009 43.0531 43.9009 43.8031C43.9009 44.5131 43.7109 45.0631 43.4309 45.4431L43.4409 45.4531Z" fill="#2C2C2C"/>
<path d="M44.2809 44.8435C44.2809 45.1035 44.2609 45.3535 44.2109 45.5935C44.0709 46.5335 43.6009 47.1635 42.9709 47.4435C42.2909 47.7235 41.3809 47.6335 40.4009 47.0735C38.2509 45.8335 36.5209 42.8335 36.5209 40.3835C36.5209 39.2835 36.8709 38.4635 37.4609 38.0435V38.0235C38.0209 37.6035 38.7909 37.5135 39.7109 37.8335C39.9409 37.9235 40.1809 38.0235 40.4109 38.1635C40.4809 38.2135 40.5509 38.2535 40.6209 38.3035C40.2909 38.1135 39.9909 38.0035 39.6809 37.9735V37.9535C39.3509 37.9035 39.0709 37.9335 38.7909 38.0235C38.4609 38.3935 38.2809 38.9835 38.2809 39.7035C38.2809 41.6935 39.6809 44.1235 41.4409 45.1335C42.1909 45.5735 42.8909 45.6735 43.4309 45.4835C43.4509 45.4835 43.4509 45.4635 43.4509 45.4635C43.5009 45.4135 43.5209 45.3735 43.5409 45.3035C43.7709 44.9335 43.9109 44.4335 43.9109 43.8335C43.9109 43.5735 43.8909 43.3235 43.8409 43.0635C43.8209 42.8035 43.7509 42.5235 43.6509 42.2635C43.5809 42.0035 43.4909 41.7435 43.3709 41.4935C43.9609 42.5935 44.2809 43.7835 44.2809 44.8635V44.8435Z" fill="#9FA1A0"/>
<path d="M40.8709 46.9231C38.7209 45.6831 36.9909 42.6831 36.9909 40.2331C36.9909 39.1331 37.3409 38.3131 37.9309 37.8931V37.8731C38.0309 37.7931 38.1409 37.7331 38.2609 37.6831C37.9609 37.7431 37.6909 37.8531 37.4609 38.0231V38.0431C36.8709 38.4631 36.5209 39.2831 36.5209 40.3831C36.5209 42.8431 38.2509 45.8331 40.4009 47.0731C41.3809 47.6331 42.3009 47.7231 42.9709 47.4431C43.0009 47.4331 43.0209 47.4131 43.0509 47.4031C42.4309 47.5231 41.6709 47.3731 40.8709 46.9231Z" fill="#686B6A"/>
<path d="M43.4109 45.4835C42.8509 46.1635 41.8709 46.2534 40.7409 45.6234C39.0109 44.6134 37.5809 42.1635 37.5809 40.1735C37.5809 39.0035 38.0509 38.2534 38.7709 38.0234C38.4409 38.3934 38.2609 38.9835 38.2609 39.7035C38.2609 41.6935 39.6609 44.1235 41.4209 45.1335C42.1709 45.5735 42.8709 45.6735 43.4109 45.4835Z" fill="#CCCECD"/>
<path d="M41.1909 38.6935C41.0009 38.5535 40.791 38.4135 40.601 38.2935C40.651 38.3135 40.6909 38.3435 40.7409 38.3635C40.9009 38.4535 41.0409 38.5535 41.1809 38.6935H41.1909Z" fill="#0C100F"/>
<path d="M43.1609 41.0534C42.6209 40.1434 41.9409 39.3234 41.1909 38.6934C41.9909 39.2534 42.6909 40.0934 43.1609 41.0534Z" fill="#0C100F"/>
<path d="M40.9908 38.8431C40.5908 38.6131 40.2108 38.5031 39.8708 38.4931C38.9808 38.4631 38.3708 39.1432 38.3708 40.3332C38.3708 41.9932 39.5508 44.0131 40.9908 44.8431C42.0408 45.4431 42.9408 45.2632 43.3708 44.4832C43.5208 44.1932 43.6108 43.8132 43.6108 43.3532C43.6108 41.7032 42.4308 39.6831 40.9908 38.8431Z" fill="#9FA1A0"/>
<path d="M40.5009 40.1135C40.2409 39.9635 40.0009 39.8935 39.7909 39.8835C39.2209 39.8635 38.8309 40.3035 38.8309 41.0635C38.8309 42.1235 39.5809 43.4235 40.5009 43.9435C41.1709 44.3335 41.7509 44.2135 42.0209 43.7135C42.1209 43.5235 42.1709 43.2835 42.1709 42.9935C42.1709 41.9335 41.4209 40.6435 40.5009 40.1135Z" fill="#B9BAB9"/>
<path d="M40.5009 41.3535C40.4109 41.3035 40.3309 41.2734 40.2509 41.2734C40.0509 41.2734 39.9109 41.4234 39.9109 41.6834C39.9109 42.0534 40.1709 42.5035 40.4909 42.6935C40.7209 42.8335 40.9309 42.7835 41.0209 42.6135C41.0509 42.5435 41.0709 42.4635 41.0709 42.3635C41.0709 41.9935 40.8109 41.5435 40.4809 41.3535H40.5009Z" fill="#959795"/>
<path d="M40.2809 42.9132C40.3809 42.8232 40.4209 42.7232 40.4009 42.6432L39.6009 39.3732C39.6209 39.4532 38.6409 35.1932 38.5409 35.2932C38.3309 35.4932 37.5709 35.6032 37.2609 35.5432C37.1009 35.5132 38.2809 39.8032 38.2509 39.7132L39.0509 42.9832C39.0709 43.0732 39.1709 43.1532 39.3309 43.1832C39.6409 43.2432 40.0609 43.1232 40.2709 42.9232L40.2809 42.9132Z" fill="url(#paint6_linear_28_4792)"/>
<path d="M34.2608 32.0328C35.4308 30.3728 38.1108 29.3028 39.5608 29.0928C39.5608 29.0928 39.5708 29.0928 39.5808 29.0928C39.7208 29.0728 39.8508 29.0628 39.9808 29.0528C43.5808 28.8428 49.4408 34.2328 50.1108 38.6128C50.1308 38.9628 48.6808 40.1328 47.2708 40.2528C45.9508 39.7328 44.1508 35.7128 42.2208 34.3128C41.2408 34.0928 40.3508 34.0428 39.8508 34.3028C38.4608 35.0128 37.9208 35.4428 37.4908 35.6528C37.0608 35.8628 35.2408 35.2928 35.2408 35.2928C35.2408 35.2928 35.2808 34.4028 35.5908 33.3028C34.6908 33.0128 33.7608 32.7428 34.2608 32.0328Z" fill="#BEC3C7"/>
<path d="M47.2709 40.2627C46.0309 40.0027 45.0509 39.3527 43.9709 38.1227C42.8909 36.8927 38.4109 35.2327 37.0209 35.9427C35.6309 36.6527 35.0909 37.0827 34.6609 37.2927C34.2309 37.5027 32.4109 36.9327 32.4109 36.9327C32.4109 36.9327 32.7009 30.9527 37.1509 30.7027C40.7509 30.4927 46.6109 35.8827 47.2809 40.2627H47.2709Z" fill="#AFB4B8"/>
<path d="M40.1209 29.6428C40.6109 29.6828 40.8009 30.0428 40.3909 30.2128C39.9709 30.3728 39.1309 30.3328 38.6909 30.3528C37.6209 30.4028 36.6509 30.7728 36.6509 30.7728C36.6509 30.7728 37.7409 30.0128 38.6609 29.7728C39.5809 29.5328 40.1309 29.6428 40.1309 29.6428H40.1209Z" fill="#232323"/>
<path d="M37.1409 29.5331L37.2909 30.5631C37.4509 30.5831 38.2509 30.3631 38.8109 30.3531C39.3709 30.3431 39.7709 30.3332 39.7709 30.3332L39.5209 28.4731C39.5209 28.4731 37.8709 28.7131 37.1409 29.5331Z" fill="#959795"/>
<path d="M27.6508 37.1432C27.4208 37.1432 27.1608 37.1232 26.8708 37.0632C25.7808 36.8532 25.2409 36.6832 23.3409 35.6132C21.5109 34.5832 14.2208 30.2232 14.1208 30.1632L14.4808 29.5532C14.5708 29.6132 21.8608 33.9632 23.6808 34.9932C25.4908 36.0132 25.9708 36.1632 26.9908 36.3632C27.8808 36.5332 28.4809 36.6332 28.9109 36.4332C29.6909 35.5032 32.2908 31.0132 32.4808 30.1032C32.6208 29.4132 32.7608 26.8332 32.3908 24.5432C32.2508 23.6632 31.8909 21.1232 31.1609 17.6832C30.4809 14.4432 32.0108 12.9332 31.8908 11.2132L32.7608 10.5332C32.8808 12.2232 31.1809 14.3332 31.8509 17.5332C32.4709 20.4732 33.5408 23.8032 33.7008 24.7832C33.9308 26.1832 34.2809 28.6832 34.0609 29.7432C33.8009 31.0132 29.5508 36.3432 29.2708 36.6632L29.1508 36.7532C28.7708 36.9332 28.3208 37.1332 27.6408 37.1332L27.6508 37.1432Z" fill="#AFB4B8"/>
<path d="M33.8608 30.8732C33.8608 31.0132 33.8609 31.2032 33.8509 31.4032C33.8109 31.9132 33.7108 32.5632 33.4308 33.0232C33.3508 33.1532 33.1609 33.3632 32.9109 33.6232C32.8009 33.7232 32.6808 33.8432 32.5608 33.9632C31.3708 35.0832 29.4208 36.7032 29.0208 36.9732C28.9608 37.0232 28.9309 37.0232 28.9709 36.9832C29.0009 36.9332 29.1108 36.8332 29.3108 36.6432C29.7308 36.2532 30.1309 35.7332 30.5009 35.1532C31.0509 34.2932 31.5309 33.3132 31.8809 32.5132C31.8809 32.5132 31.8809 32.5132 31.8809 32.5032C31.8809 32.4932 31.8908 32.4832 31.9008 32.4632C32.3008 31.5732 32.5309 30.9132 32.5309 30.9132C32.5309 30.9132 32.7308 31.0032 32.9008 30.9332C32.9408 30.9232 32.9808 30.9032 33.0208 30.8832C33.0208 30.8832 33.0208 30.8832 33.0408 30.8832C33.0908 30.8632 33.1508 30.8432 33.2108 30.8232C33.4308 30.7332 33.6508 30.6432 33.7708 30.5832C33.8008 30.5732 33.8308 30.5632 33.8408 30.5532C33.8508 30.5532 33.8608 30.5532 33.8608 30.5532C33.8608 30.5532 33.8608 30.6732 33.8608 30.8632V30.8732Z" fill="#9BA1A6"/>
<path d="M46.5009 26.8731C45.2709 29.4931 40.4609 30.0331 38.9809 30.3931C38.9409 30.3931 38.9009 30.4131 38.8509 30.4231C38.2509 30.5531 37.2109 30.6531 36.1509 30.7331C35.4209 30.7831 34.6709 30.8331 34.0509 30.8631C33.9809 30.8631 33.9209 30.8631 33.8609 30.8731C33.5909 30.8831 33.3509 30.9031 33.1509 30.9131C33.1009 30.9131 33.0609 30.9131 33.0209 30.9131H33.0109C32.7009 30.9231 32.5109 30.9331 32.5109 30.9331L32.7609 23.2631L33.0009 15.9331L33.0509 14.4131L33.9509 13.4631L35.3109 12.0331L36.7809 10.4831L39.4109 7.70312C40.8709 9.61312 43.2909 12.8131 44.3809 15.3831C45.2609 17.4431 45.8809 19.1931 46.2909 20.6831C46.4109 21.0931 46.5009 21.4831 46.5909 21.8431C47.1109 24.2031 47.0109 25.7931 46.5109 26.8631L46.5009 26.8731Z" fill="#BEC3C7"/>
<path d="M32.9909 15.9331C33.6909 19.2531 35.2109 26.1831 34.9709 27.5931C34.8709 28.2131 34.5909 29.2531 34.2009 30.4131C34.1509 30.5631 34.1009 30.7031 34.0509 30.8531C33.9909 31.0331 33.921 31.2131 33.851 31.4031C33.571 32.1531 33.2509 32.9231 32.9109 33.6231L32.8109 33.8131C32.2309 34.9831 31.5909 35.9731 30.9609 36.4431C30.3309 36.6831 29.6809 36.8631 29.0009 36.9831C28.9409 37.0331 28.9109 37.0331 28.9509 36.9931C28.5709 37.0531 28.1909 37.1031 27.8009 37.1231C28.0009 37.0431 28.2509 36.8631 28.5109 36.6531C28.2809 36.7431 28.0209 36.7731 27.7209 36.7531L29.6109 35.6531C30.0309 35.0531 30.4709 34.2631 31.1109 33.3731C31.3009 33.1231 31.5709 32.8131 31.8709 32.4631C32.2709 31.5731 32.5009 30.9131 32.5009 30.9131L32.7509 23.2431C31.7409 18.8531 30.5809 13.6231 32.4609 11.1131C32.6309 10.8831 32.861 10.6631 33.131 10.4531L35.2909 12.0131L36.1509 12.6331C35.1709 12.9431 34.4509 13.2231 33.9309 13.4431C33.0209 13.8231 32.7209 14.0631 32.6509 14.1431C32.6209 14.1731 32.7609 14.8631 32.9809 15.9131L32.9909 15.9331Z" fill="#AFB4B8"/>
<path d="M46.5808 21.8528C46.5008 21.4828 46.4009 21.0928 46.2809 20.6928C45.8709 19.2028 45.2508 17.4529 44.3708 15.3929C43.7908 14.0329 42.8508 12.5029 41.8708 11.0829C41.3908 10.5129 41.0808 10.1528 41.0808 10.1528C40.5608 11.9128 34.1208 14.1729 34.1208 14.1729C34.1208 14.1729 36.6609 23.5728 36.8209 26.1628C41.4409 26.8728 43.3509 25.8428 44.9409 25.0428C45.6409 24.6928 46.2708 23.7428 46.7308 22.6328C46.6908 22.3828 46.6408 22.1228 46.5808 21.8528Z" fill="#C9CDD0"/>
<path d="M42.381 15.7232C40.551 14.5332 39.0209 16.8731 39.0209 16.8731C39.0209 16.8731 38.531 17.8932 39.101 19.3132C39.671 20.7232 40.6809 22.4832 42.3909 21.9732C45.2309 21.1232 42.3909 15.7232 42.3909 15.7232H42.381Z" fill="#DBDCE2"/>
<path d="M40.771 15.4731C39.731 15.7831 39.021 16.8831 39.021 16.8831C39.021 16.8831 38.701 17.5831 38.901 18.6331C39.201 18.9331 39.581 19.1231 40.011 19.1231C40.941 19.1231 41.691 18.2531 41.691 17.1931C41.691 16.4431 41.321 15.8032 40.781 15.4832L40.771 15.4731Z" fill="#EDEDED"/>
<path d="M8.43096 16.0632C7.13096 18.2532 3.52097 20.6832 6.87097 23.2832C10.221 25.8832 11.241 25.2232 16.821 28.1832L14.901 28.8432L19.811 29.8332C19.811 29.8332 16.571 28.2832 13.111 22.4832C9.65096 16.6832 8.43096 16.0532 8.43096 16.0532V16.0632Z" fill="#313942"/>
<path d="M2.53092 9.1731C1.82092 12.4031 10.9709 16.9731 12.0909 25.5531C12.5209 28.8931 14.1309 30.1631 14.1309 30.1631L19.8109 29.8331L10.4109 16.3031L2.52091 9.16309L2.53092 9.1731Z" fill="#BEC3C7"/>
<path d="M19.8109 29.8331C17.9509 28.4331 13.8408 28.0931 13.1108 28.3031C17.0408 30.5231 25.3409 36.8831 27.9709 35.3631L30.6009 33.8431L22.3708 30.6331L19.8109 29.8231V29.8331Z" fill="#535C5E"/>
<path d="M18.5709 15.3931C19.7609 16.8031 20.8709 27.593 19.8109 29.843C21.1309 31.653 27.9909 29.3931 27.0709 27.1331C26.1409 24.8731 28.4109 18.563 28.4109 18.563L18.5809 15.3931H18.5709Z" fill="#404B4D"/>
<path d="M9.48096 12.3232C13.521 15.3832 18.221 17.7832 18.581 19.8832C18.941 21.9832 19.821 29.8432 19.821 29.8432C19.821 29.8432 23.721 28.4332 22.891 24.1232C22.061 19.8132 23.571 17.7333 18.721 15.8333C13.871 13.9333 9.49097 12.3232 9.49097 12.3232H9.48096Z" fill="#404B4D"/>
<path d="M4.74086 8.453C7.03086 11.513 18.5309 17.883 20.9109 18.643C23.2809 19.403 25.2809 21.163 27.7409 19.183C29.2209 18.003 29.5509 16.683 29.3809 15.383C29.2809 14.533 28.9509 13.673 28.5909 12.863C27.6709 10.843 23.8809 8.69299 23.8809 8.69299L13.0009 2.08301C11.5009 2.08301 10.3509 2.313 9.02086 2.793C5.61086 4.003 3.10087 6.243 4.75087 8.453H4.74086Z" fill="#535C5E"/>
<path d="M27.961 13.9232C27.691 14.5432 22.141 17.8732 21.131 17.8632C20.221 17.3032 5.55096 7.06318 6.17096 6.02319C6.79096 4.97319 12.371 1.92321 13.001 2.08321C13.581 2.82321 27.961 13.9232 27.961 13.9232Z" fill="#535C5E"/>
<path d="M4.74086 8.45325C7.03086 11.5132 18.5309 17.8832 20.9109 18.6432C23.2809 19.4032 25.2809 21.1632 27.7409 19.1832C29.2209 18.0032 29.5509 16.6832 29.3809 15.3832C28.5909 16.4732 26.4309 17.3332 25.6709 17.2932C24.8109 17.2432 21.9308 15.9332 20.2908 14.7332C18.6409 13.5232 8.59087 7.13324 8.59087 7.13324C8.59087 7.13324 7.33086 5.80323 7.46086 5.28323C7.60086 4.75323 9.40087 3.16324 13.0009 2.07324C11.5009 2.07324 10.3509 2.30323 9.02086 2.78323C5.61086 3.99323 3.10087 6.23324 4.75087 8.44324L4.74086 8.45325Z" fill="#4B5557"/>
<path d="M40.071 24.7131L37.321 25.0531C37.031 25.0931 36.771 24.8831 36.741 24.6031C36.701 24.3131 36.911 24.0531 37.191 24.0231L39.941 23.6831C40.231 23.6431 40.491 23.8531 40.521 24.1331C40.561 24.4231 40.351 24.6831 40.071 24.7131Z" fill="#FFB317"/>
<path d="M46.5809 21.8531L45.9809 22.4531C45.7809 22.6531 45.5009 22.6131 45.3609 22.3531C45.3109 22.2531 45.2809 22.1331 45.2809 22.0131C45.2809 21.8231 45.3409 21.6331 45.4709 21.5131L46.2809 20.6831C46.4009 21.0931 46.4909 21.4831 46.5809 21.8431V21.8531Z" fill="#FFB317"/>
<path d="M45.6509 0.213051C45.4609 0.133051 45.3009 0.143051 45.1809 0.213051L44.9409 0.383064C45.0509 0.303064 45.2209 0.293064 45.4109 0.383064C45.7609 0.543064 46.0609 0.973055 46.0709 1.34306C46.0709 1.51306 46.0209 1.65306 45.9209 1.72306L46.1609 1.55308C46.2609 1.48308 46.3209 1.35307 46.3109 1.17307C46.3009 0.803073 46.0109 0.373051 45.6509 0.213051Z" fill="url(#paint7_linear_28_4792)"/>
<path d="M45.4109 0.393015C45.1609 0.283015 44.9409 0.332989 44.8409 0.522989C44.8209 0.572989 44.7909 0.613004 44.7709 0.663004C44.8609 0.493004 45.0609 0.443019 45.2909 0.553019C45.6109 0.693019 45.8809 1.09299 45.8909 1.43299C45.8909 1.66299 45.7909 1.80302 45.6209 1.83302C45.6709 1.83302 45.7209 1.81302 45.7709 1.80302C45.9509 1.77302 46.0709 1.61302 46.0709 1.36302C46.0609 0.993016 45.7709 0.562994 45.4109 0.402994V0.393015Z" fill="url(#paint8_linear_28_4792)"/>
<path d="M45.2909 0.532875C45.1209 0.452875 44.9709 0.462875 44.8609 0.532875L42.1809 2.48289C42.2809 2.40289 42.4409 2.40289 42.6109 2.48289C42.9309 2.62289 43.2009 3.02289 43.2109 3.36289C43.2109 3.52289 43.1609 3.64287 43.0709 3.71287L45.7509 1.76289C45.8409 1.69289 45.9009 1.57288 45.8909 1.41288C45.8909 1.07288 45.6109 0.682875 45.2909 0.532875Z" fill="url(#paint9_linear_28_4792)"/>
<path d="M43.0709 3.71326L43.8009 3.18326C43.8809 3.11326 43.9209 3.00328 43.9209 2.86328C43.9209 2.52328 43.6409 2.13328 43.3209 1.98328C43.1509 1.90328 43.0009 1.91328 42.8909 1.98328L43.0909 1.84326C43.0909 1.84326 43.0709 1.84327 43.0709 1.85327L42.1909 2.49326C42.2909 2.41326 42.4509 2.41326 42.6209 2.49326C42.9409 2.63326 43.2109 3.03326 43.2209 3.37326C43.2209 3.53326 43.1709 3.65327 43.0809 3.72327L43.0709 3.71326Z" fill="#C5C7C8"/>
<path d="M42.6108 2.49283C42.5408 2.46283 42.4709 2.44284 42.4109 2.44284C42.3109 2.44284 42.2108 2.43285 42.1108 2.42285C42.1908 2.42285 42.2808 2.45283 42.3608 2.49283C42.7808 2.68283 43.1209 3.18283 43.1309 3.62283C43.1309 3.69283 43.1308 3.75284 43.1108 3.81284C43.1308 3.71284 43.1608 3.62283 43.1808 3.52283C43.1908 3.48283 43.2009 3.43283 43.1909 3.37283C43.1909 3.03283 42.9109 2.64283 42.5909 2.49283H42.6108Z" fill="url(#paint10_linear_28_4792)"/>
<path d="M42.3708 2.48292C42.1508 2.38292 41.9508 2.39292 41.8208 2.48292L41.3308 2.84291C41.4608 2.74291 41.6608 2.73291 41.8808 2.84291C42.3008 3.03291 42.6408 3.53291 42.6508 3.97291C42.6508 4.18291 42.5908 4.33292 42.4708 4.42292L42.9608 4.06291C43.0808 3.97291 43.1508 3.82293 43.1408 3.61293C43.1308 3.17293 42.7808 2.67292 42.3708 2.48292Z" fill="url(#paint11_linear_28_4792)"/>
<path d="M42.6509 3.97325C42.6609 4.41325 42.3409 4.61326 41.9209 4.42326C41.5009 4.23326 41.1609 3.73325 41.1509 3.29325C41.1409 2.85325 41.4609 2.65324 41.8809 2.84324C42.3009 3.03324 42.6409 3.53325 42.6509 3.97325Z" fill="#394344"/>
<path d="M38.7209 7.09315L37.5809 5.90314L41.2709 3.14317C41.3509 3.04317 41.4909 3.00316 41.6809 3.04316C42.0509 3.11316 42.3209 3.56316 42.4509 3.92316C42.5109 4.09316 42.4909 4.24317 42.4209 4.33317L38.7409 7.08317L38.7209 7.09315Z" fill="#C5C7C8"/>
<path d="M38.761 6.6732C38.891 7.0232 38.691 7.25319 38.321 7.19319C37.951 7.13319 37.681 6.67319 37.551 6.31319C37.421 5.96319 37.621 5.7332 37.991 5.7932C38.361 5.8632 38.631 6.3132 38.761 6.6732Z" fill="#C5C7C8"/>
<path d="M30.9609 13.0232C28.1809 10.9732 32.7709 8.55323 33.7209 8.00323C34.6709 7.45323 38.0409 9.65324 37.3109 10.0732C36.5809 10.4932 32.0609 13.8232 30.9709 13.0232H30.9609Z" fill="#AFB4B8"/>
<path d="M30.111 11.893C29.781 10.683 29.681 10.433 29.641 9.64299C29.601 8.84299 41.991 3.58297 42.061 3.96297C42.131 4.33297 42.141 6.70298 42.101 6.94298C42.051 7.17298 32.241 12.273 30.121 11.903L30.111 11.893Z" fill="#AFB4B8"/>
<path d="M41.8209 3.78301C38.3409 2.89301 34.4009 5.27303 33.0609 6.11303C31.7109 6.93303 27.8409 9.35301 30.5909 10.693C31.6609 11.213 35.6509 8.31301 36.8709 7.47301C38.2609 6.69301 43.1609 4.12301 41.8109 3.78301H41.8209Z" fill="#AFB4B8"/>
<path d="M42.0509 3.95312C42.7209 5.42313 43.0309 6.76313 42.1109 8.33313C41.1909 9.89313 40.1509 11.0231 38.7909 12.0231C37.4309 13.0231 31.9809 13.3531 30.9509 13.0331C32.1409 10.3231 42.0509 3.9631 42.0509 3.9631V3.95312Z" fill="#AFB4B8"/>
<path d="M31.8809 10.1829L30.7609 10.5329C30.7609 10.5329 32.0409 11.3829 34.6309 11.0829C37.2209 10.7829 39.8909 9.15287 40.8909 8.06287C41.8909 6.97287 42.6609 5.38287 42.3609 4.66287L42.0609 3.94287L31.8809 10.1729V10.1829Z" fill="#CFD3D6"/>
<path d="M34.8008 5.82312C35.6208 5.64312 37.7308 5.55312 37.1208 6.10312C36.5108 6.65312 34.2008 8.30311 33.7308 7.90311C33.2208 7.46311 33.0908 7.41312 33.1108 7.10312C33.1308 6.79312 34.8008 5.83313 34.8008 5.83313V5.82312Z" fill="#FFF0FF"/>
<path d="M33.9309 8.06288C33.8209 8.06288 33.7309 8.0329 33.6609 7.9829C33.5909 7.9229 33.5209 7.86288 33.4609 7.81288C33.1109 7.52288 32.9809 7.4129 33.0009 7.0829C33.0209 6.7429 34.2309 6.02289 34.7509 5.72289H34.7809C35.3009 5.60289 37.1109 5.41289 37.3209 5.82289C37.3609 5.90289 37.3709 6.0229 37.2009 6.1729C36.9109 6.4329 34.8209 8.06288 33.9409 8.06288H33.9309ZM34.8409 5.93288C34.0809 6.37288 33.2409 6.9429 33.2209 7.1129C33.2109 7.3129 33.2509 7.36288 33.6009 7.65288C33.6609 7.70288 33.7309 7.76289 33.8009 7.82289C34.1509 8.12289 36.2809 6.70287 37.0409 6.02287C37.1109 5.96287 37.1109 5.93288 37.1109 5.93288C37.0209 5.76288 35.6609 5.76288 34.8309 5.93288H34.8409Z" fill="#C5C7C8"/>
<path d="M28.631 12.8728L25.8309 12.6628L29.881 10.6428C29.991 10.6128 30.1309 10.6729 30.2509 10.8029C30.4909 11.0629 30.6309 11.4328 30.5209 11.7728C30.4709 11.9428 30.3709 12.0328 30.2609 12.0628L28.631 12.8728Z" fill="#C5C7C8"/>
<path d="M28.3409 11.3831C28.1009 11.2231 27.9009 11.2531 27.8109 11.4331C27.7609 11.5331 27.7009 11.6431 27.6509 11.7431C27.7209 11.6031 27.8809 11.5831 28.0609 11.7031C28.3309 11.8831 28.5509 12.3031 28.5609 12.6431C28.5609 12.9031 28.4509 13.0431 28.2809 13.0131C28.4009 13.0331 28.5109 13.0531 28.6309 13.0731C28.8509 13.1131 29.0109 12.9331 29.0009 12.6031C28.9909 12.1631 28.7009 11.6231 28.3609 11.3931L28.3409 11.3831Z" fill="url(#paint12_linear_28_4792)"/>
<path d="M28.9409 11.0932C28.7809 10.9832 28.6409 10.9632 28.5309 11.0132L27.9309 11.3132C28.0409 11.2632 28.1809 11.2833 28.3409 11.3933C28.6809 11.6233 28.9709 12.1632 28.9809 12.6032C28.9809 12.8332 28.9109 12.9933 28.7909 13.0533L29.3909 12.7532C29.5109 12.6932 29.5809 12.5333 29.5809 12.3033C29.5709 11.8633 29.2809 11.3232 28.9409 11.0932Z" fill="url(#paint13_linear_28_4792)"/>
<path d="M28.0609 11.703C27.9409 11.623 27.8309 11.603 27.7409 11.643L24.4509 13.273C24.5309 13.233 24.6409 13.253 24.7709 13.333C25.0409 13.513 25.2609 13.933 25.2709 14.273C25.2709 14.453 25.2209 14.573 25.1209 14.623L28.4109 12.993C28.5009 12.943 28.5609 12.823 28.5609 12.643C28.5509 12.303 28.3309 11.883 28.0609 11.703Z" fill="url(#paint14_linear_28_4792)"/>
<path d="M24.7708 13.3334C24.6808 13.2734 24.6009 13.2534 24.5309 13.2534C24.4709 13.2534 24.4208 13.2534 24.3608 13.2634C24.4408 13.2634 24.5208 13.2834 24.6208 13.3534C24.9108 13.5534 25.1509 14.0134 25.1609 14.3834C25.1609 14.5334 25.1309 14.6434 25.0709 14.7134C25.1109 14.6734 25.1408 14.6234 25.1808 14.5834C25.2308 14.5234 25.2608 14.4234 25.2608 14.2834C25.2508 13.9434 25.0308 13.5234 24.7608 13.3434L24.7708 13.3334Z" fill="url(#paint15_linear_28_4792)"/>
<path d="M24.621 13.3533C24.491 13.2633 24.361 13.2433 24.271 13.2833L23.981 13.4233C24.071 13.3833 24.191 13.3933 24.331 13.4833C24.621 13.6833 24.861 14.1433 24.871 14.5133C24.871 14.7133 24.811 14.8433 24.711 14.8933L25.001 14.7533C25.101 14.7033 25.161 14.5733 25.161 14.3733C25.151 14.0033 24.911 13.5433 24.621 13.3433V13.3533Z" fill="url(#paint16_linear_28_4792)"/>
<path d="M24.8709 14.5233C24.8809 14.8933 24.6609 15.0333 24.3709 14.8433C24.0809 14.6433 23.8409 14.1833 23.8309 13.8133C23.8209 13.4433 24.0409 13.3033 24.3309 13.4933C24.6209 13.6933 24.8609 14.1533 24.8709 14.5233Z" fill="#394344"/>
<path d="M34.2409 2.09301C36.8309 0.503009 40.0209 -2.53698 41.7609 4.10302C40.0209 9.50302 31.8709 10.173 31.8709 10.173C31.8709 10.173 30.4509 4.41301 34.2409 2.09301Z" fill="#313942"/>
<defs>
<linearGradient id="paint0_linear_28_4792" x1="13.5909" y1="29.1431" x2="5.02088" y2="14.3031" gradientUnits="userSpaceOnUse">
<stop stop-color="#181818"/>
<stop offset="0.27" stop-color="#262626"/>
<stop offset="0.77" stop-color="#2E2E2E"/>
</linearGradient>
<linearGradient id="paint1_linear_28_4792" x1="3.7509" y1="28.4133" x2="9.79089" y2="17.9533" gradientUnits="userSpaceOnUse">
<stop stop-color="#141414"/>
<stop offset="0.44" stop-color="#1E1E1E"/>
<stop offset="0.78" stop-color="#202020"/>
<stop offset="0.98" stop-color="#282828"/>
<stop offset="1" stop-color="#2A2A2A"/>
</linearGradient>
<linearGradient id="paint2_linear_28_4792" x1="3.76092" y1="28.313" x2="9.33091" y2="18.653" gradientUnits="userSpaceOnUse">
<stop stop-color="#161616"/>
<stop offset="0.3" stop-color="#1A1A1A"/>
<stop offset="0.79" stop-color="#1D1D1D"/>
<stop offset="0.8" stop-color="#1E1E1E"/>
</linearGradient>
<linearGradient id="paint3_linear_28_4792" x1="47.2309" y1="48.5633" x2="38.6609" y2="33.7232" gradientUnits="userSpaceOnUse">
<stop stop-color="#181818"/>
<stop offset="0.27" stop-color="#262626"/>
<stop offset="0.77" stop-color="#2E2E2E"/>
</linearGradient>
<linearGradient id="paint4_linear_28_4792" x1="37.3809" y1="47.8335" x2="43.4209" y2="37.3735" gradientUnits="userSpaceOnUse">
<stop stop-color="#141414"/>
<stop offset="0.44" stop-color="#1E1E1E"/>
<stop offset="0.78" stop-color="#202020"/>
<stop offset="0.98" stop-color="#282828"/>
<stop offset="1" stop-color="#2A2A2A"/>
</linearGradient>
<linearGradient id="paint5_linear_28_4792" x1="37.3909" y1="47.7234" x2="42.9609" y2="38.0734" gradientUnits="userSpaceOnUse">
<stop stop-color="#161616"/>
<stop offset="0.3" stop-color="#1A1A1A"/>
<stop offset="0.79" stop-color="#1D1D1D"/>
<stop offset="0.8" stop-color="#1E1E1E"/>
</linearGradient>
<linearGradient id="paint6_linear_28_4792" x1="37.7858" y1="39.7146" x2="39.536" y2="39.173" gradientUnits="userSpaceOnUse">
<stop offset="0.05" stop-color="#7D7D7D"/>
<stop offset="0.95" stop-color="#8E8E8E"/>
</linearGradient>
<linearGradient id="paint7_linear_28_4792" x1="46.1509" y1="1.59306" x2="45.3209" y2="0.143057" gradientUnits="userSpaceOnUse">
<stop offset="0.05" stop-color="#424E50"/>
<stop offset="0.95" stop-color="#545F61"/>
</linearGradient>
<linearGradient id="paint8_linear_28_4792" x1="45.9109" y1="1.73302" x2="45.0909" y2="0.313002" gradientUnits="userSpaceOnUse">
<stop offset="0.05" stop-color="#364041"/>
<stop offset="0.95" stop-color="#475152"/>
</linearGradient>
<linearGradient id="paint9_linear_28_4792" x1="44.6009" y1="2.83287" x2="43.6809" y2="1.22287" gradientUnits="userSpaceOnUse">
<stop offset="0.05" stop-color="#424E50"/>
<stop offset="0.95" stop-color="#545F61"/>
</linearGradient>
<linearGradient id="paint10_linear_28_4792" x1="43.2209" y1="3.75284" x2="42.3609" y2="2.27283" gradientUnits="userSpaceOnUse">
<stop offset="0.05" stop-color="#364041"/>
<stop offset="0.95" stop-color="#475152"/>
</linearGradient>
<linearGradient id="paint11_linear_28_4792" x1="42.8708" y1="4.19292" x2="41.8708" y2="2.46292" gradientUnits="userSpaceOnUse">
<stop offset="0.05" stop-color="#424E50"/>
<stop offset="0.95" stop-color="#545F61"/>
</linearGradient>
<linearGradient id="paint12_linear_28_4792" x1="28.8509" y1="13.0231" x2="27.8809" y2="11.3431" gradientUnits="userSpaceOnUse">
<stop offset="0.05" stop-color="#364041"/>
<stop offset="0.95" stop-color="#475152"/>
</linearGradient>
<linearGradient id="paint13_linear_28_4792" x1="29.3509" y1="12.7833" x2="28.3609" y2="11.0633" gradientUnits="userSpaceOnUse">
<stop offset="0.05" stop-color="#424E50"/>
<stop offset="0.95" stop-color="#545F61"/>
</linearGradient>
<linearGradient id="paint14_linear_28_4792" x1="27.0209" y1="13.803" x2="26.1409" y2="12.293" gradientUnits="userSpaceOnUse">
<stop offset="0.05" stop-color="#424E50"/>
<stop offset="0.95" stop-color="#545F61"/>
</linearGradient>
<linearGradient id="paint15_linear_28_4792" x1="25.3008" y1="14.5734" x2="24.5008" y2="13.1834" gradientUnits="userSpaceOnUse">
<stop offset="0.05" stop-color="#364041"/>
<stop offset="0.95" stop-color="#475152"/>
</linearGradient>
<linearGradient id="paint16_linear_28_4792" x1="25.071" y1="14.7233" x2="24.241" y2="13.2833" gradientUnits="userSpaceOnUse">
<stop offset="0.05" stop-color="#424E50"/>
<stop offset="0.95" stop-color="#545F61"/>
</linearGradient>
</defs>
</svg>
