<svg width="104" height="73" viewBox="0 0 104 73" fill="none" xmlns="http://www.w3.org/2000/svg">
<g style="mix-blend-mode:multiply">
<path d="M63.2126 71.3171L2.91107 36.5068C-1.40155 34.0162 -0.858299 29.6702 4.11459 26.8034L23.1202 15.8297C28.0931 12.9546 35.6235 12.6453 39.9277 15.136L100.229 49.9462C104.542 52.4368 103.999 56.7828 99.0257 59.6496L80.0201 70.6234C75.0472 73.4984 67.5168 73.8077 63.2126 71.3171Z" fill="#EAEAEA"/>
</g>
<path d="M7.2571 28.2161L12.2718 25.3159L27.1904 36.2563L55.8911 58.5465L60.4795 55.0529L71.2277 61.5219L72.4145 46.8038C72.4145 46.8038 21.1645 12.7625 18.1473 13.1637C15.1301 13.5732 7.97587 15.1278 7.0983 17.259C6.22073 19.3986 4.3653 22.959 7.24874 28.2244L7.2571 28.2161Z" fill="#1E1E1E"/>
<path d="M20.4373 37.9112L17.3031 39.7249L9.51367 26.5446L12.7732 24.6558L19.6015 28.8347L20.9304 36.5071L20.4373 37.9112Z" fill="url(#paint0_linear_28_4664)"/>
<path d="M21.8163 34.5511C21.8163 37.9946 19.3842 39.382 16.3837 37.6435C13.3833 35.9135 10.9512 31.7179 10.9512 28.2745C10.9512 24.831 13.3833 23.4436 16.3837 25.1821C19.3842 26.9121 21.8163 31.1077 21.8163 34.5511Z" fill="url(#paint1_linear_28_4664)"/>
<path d="M18.8661 36.2562C18.8661 39.6996 16.434 41.087 13.4335 39.3486C10.4331 37.6186 8.00098 33.4229 8.00098 29.9795C8.00098 26.5361 10.4331 25.1487 13.4335 26.8871C16.434 28.6172 18.8661 32.8128 18.8661 36.2562Z" fill="url(#paint2_linear_28_4664)"/>
<path d="M18.1556 36.1059C18.1556 39.2401 15.9408 40.5021 13.2078 38.9309C10.4748 37.3512 8.26001 33.5317 8.26001 30.3975C8.26001 27.2634 10.4748 26.0013 13.2078 27.5726C15.9408 29.1522 18.1556 32.9718 18.1556 36.1059Z" fill="url(#paint3_linear_28_4664)"/>
<path d="M16.5091 35.4204C16.5091 35.5541 16.5091 35.6879 16.4923 35.8132C16.4338 36.4735 16.2249 36.9917 15.8989 37.3427C15.2637 38.0448 14.1939 38.1283 12.9821 37.4263C11.0347 36.298 9.45508 33.5733 9.45508 31.3418C9.45508 29.9628 10.0568 29.0936 10.9762 28.893C11.2854 28.8261 11.6365 28.8345 12.0042 28.9264C12.1546 28.9682 12.3218 29.0183 12.4806 29.0852C12.6478 29.1521 12.8066 29.2356 12.9821 29.3276C13.1409 29.4195 13.2997 29.5198 13.4585 29.6368C13.7259 29.829 13.985 30.0547 14.2357 30.3055C14.5533 30.6231 14.8459 30.9824 15.1049 31.3585C15.1718 31.4505 15.2303 31.5424 15.2888 31.6343C15.573 32.0689 15.8154 32.537 16.0076 33.0134C16.0995 33.2474 16.1831 33.4814 16.2583 33.7238C16.367 34.0832 16.4422 34.4342 16.484 34.7769C16.5091 34.9942 16.5258 35.2031 16.5258 35.4121L16.5091 35.4204Z" fill="#9C9AAB"/>
<path d="M9.4303 31.0746C9.4303 31.2167 9.4303 31.3504 9.45537 31.5008V31.5343C9.63088 33.6571 11.0266 36.0642 12.7734 37.3095C12.7818 37.3179 12.7901 37.3262 12.7985 37.3262C12.9322 37.4181 13.0659 37.5017 13.208 37.5853C14.2026 38.162 15.0969 38.2372 15.7739 37.9113C15.8909 37.8528 16.0079 37.7859 16.1082 37.7023C16.6514 37.2677 16.9857 36.4904 16.9857 35.4373C16.9857 33.047 15.2975 30.1385 13.2164 28.9266C12.2552 28.375 11.386 28.2831 10.7174 28.5756C10.6087 28.6174 10.5085 28.6759 10.4249 28.7344C9.81476 29.1523 9.43865 29.9546 9.43865 31.0746H9.4303ZM9.68103 31.2083C9.68103 30.1719 10.0237 29.4197 10.5837 29.0269C10.592 29.0269 10.6004 29.0186 10.6004 29.0102H10.6087C10.7007 28.9433 10.7843 28.8932 10.8929 28.8598C11.1102 28.7678 11.3442 28.7177 11.595 28.7177C12.0797 28.7093 12.5645 28.9935 13.1495 29.3278C14.445 30.0716 15.4646 31.4423 16.0747 32.9885C16.384 33.7741 16.7434 34.5347 16.7434 35.2869C16.7434 36.2648 16.4425 36.9835 15.9327 37.3931C15.8324 37.485 15.7154 37.5519 15.59 37.6187C15.59 37.6187 15.59 37.6187 15.5816 37.6187C14.9548 37.9029 14.1274 37.8277 13.2164 37.3011C11.269 36.1728 9.68939 33.4482 9.68939 31.2167L9.68103 31.2083Z" fill="#9C9AAB"/>
<path d="M16.5091 35.4204C16.5091 35.5541 16.5091 35.6878 16.4924 35.8132C16.4338 36.4734 16.2249 36.9916 15.8989 37.3426C15.3306 37.468 14.6369 37.3343 13.8931 36.9081C11.9457 35.7798 10.3661 33.0551 10.3661 30.8236C10.3661 29.9794 10.5917 29.3275 10.9762 28.9013C11.2854 28.8344 11.6365 28.8428 12.0042 28.9347C12.1547 28.9765 12.3218 29.0266 12.4806 29.0935C12.6478 29.1604 12.8066 29.244 12.9821 29.3359C13.1409 29.4278 13.2997 29.5281 13.4585 29.6451C13.7259 29.8374 13.985 30.063 14.2357 30.3137C14.5533 30.6313 14.8459 30.9907 15.105 31.3668C15.1718 31.4588 15.2303 31.5507 15.2888 31.6427C15.573 32.0773 15.8154 32.5453 16.0076 33.0217C16.0995 33.2557 16.1831 33.4897 16.2583 33.7321C16.367 34.0915 16.4422 34.4425 16.484 34.7852C16.5091 35.0025 16.5258 35.2114 16.5258 35.4204H16.5091Z" fill="#93949C"/>
<path d="M9.20459 31.1998C9.20459 33.5902 10.8929 36.4986 12.974 37.7105C14.0772 38.3457 15.0801 38.3792 15.7655 37.9028C15.8741 37.8275 15.9828 37.744 16.0663 37.6437C16.4926 37.1924 16.7433 36.4819 16.7433 35.5626C16.7433 33.1722 15.055 30.2637 12.974 29.0602C12.1298 28.5755 11.3609 28.4417 10.7341 28.6172C10.6254 28.6507 10.5168 28.6841 10.4165 28.7343C9.67263 29.0936 9.20459 29.9545 9.20459 31.2082V31.1998ZM9.45532 31.4923C9.45532 31.4422 9.45532 31.392 9.45532 31.3419C9.45532 31.2583 9.45532 31.1747 9.46368 31.0912C9.46368 31.041 9.46368 30.9909 9.47204 30.9491C9.47204 30.9324 9.47204 30.924 9.47204 30.9156C9.47204 30.8738 9.47204 30.8404 9.48875 30.807C9.48875 30.7819 9.48875 30.7652 9.48875 30.7485C9.48875 30.7318 9.48875 30.7151 9.49711 30.6983C9.50547 30.6398 9.52219 30.5813 9.53054 30.5228C9.54726 30.4476 9.56397 30.3724 9.58905 30.2972C9.58905 30.2804 9.58905 30.2721 9.59741 30.2637C9.61412 30.1969 9.6392 30.1467 9.65591 30.0966C9.68934 30.013 9.72277 29.9294 9.76456 29.8542C9.79799 29.7873 9.83143 29.7288 9.86486 29.6703C9.89829 29.6118 9.93172 29.57 9.97351 29.5199C9.99858 29.4865 10.0237 29.453 10.0487 29.4279C10.0654 29.4112 10.0822 29.3945 10.0989 29.3778C10.1156 29.3611 10.1323 29.3444 10.149 29.3277C10.1825 29.2942 10.2159 29.2608 10.2493 29.2357C10.2493 29.2274 10.266 29.219 10.266 29.219C10.2744 29.219 10.2827 29.2023 10.2995 29.1939C10.2995 29.1939 10.2995 29.1939 10.3078 29.1939C10.3412 29.1605 10.383 29.1354 10.4248 29.1104C10.4332 29.102 10.4499 29.0936 10.4583 29.0853C10.4583 29.0853 10.4666 29.0853 10.475 29.0769C10.5084 29.0602 10.5418 29.0435 10.5753 29.0268C10.5836 29.0268 10.592 29.0184 10.592 29.0184C10.6003 29.0184 10.6087 29.0101 10.6087 29.0017H10.6171C10.6672 28.9766 10.7257 28.9516 10.7759 28.9348C10.826 28.9181 10.8762 28.9014 10.9263 28.8931C10.9263 28.8931 10.9597 28.8847 10.9764 28.8763C10.9764 28.8763 10.9848 28.8763 10.9932 28.8763L11.0684 28.8596C11.1687 28.8346 11.2857 28.8262 11.3943 28.8262H11.4361C11.4863 28.8262 11.5364 28.8262 11.5866 28.8346C11.6534 28.8346 11.7119 28.8513 11.7704 28.8596C11.8039 28.8596 11.8373 28.868 11.8707 28.8763C11.9125 28.8847 11.9627 28.8931 12.0044 28.9098C12.0964 28.9348 12.18 28.9599 12.2719 28.9934C12.414 29.0435 12.5728 29.102 12.7316 29.1856C12.8152 29.2274 12.8987 29.2692 12.9823 29.3193C13.0659 29.3695 13.1411 29.4112 13.2247 29.4698C13.3083 29.5199 13.3835 29.57 13.4587 29.6286C13.7262 29.8291 13.9852 30.0464 14.236 30.2972C14.3948 30.456 14.5452 30.6231 14.6873 30.7986C14.7625 30.8822 14.8294 30.9742 14.9046 31.0661C14.9798 31.158 15.0383 31.2416 15.0968 31.3335C15.0968 31.3335 15.0968 31.3419 15.1052 31.3503C15.1721 31.4422 15.2306 31.5258 15.2807 31.6261C15.3476 31.7263 15.4144 31.835 15.4813 31.9437C15.5649 32.0774 15.6317 32.2195 15.707 32.3615C15.7571 32.4618 15.8072 32.5538 15.849 32.6541C15.8741 32.7042 15.8908 32.746 15.9159 32.7961C15.9828 32.9382 16.0413 33.0803 16.0914 33.2308C16.1499 33.3896 16.2084 33.5484 16.2502 33.7072C16.2502 33.7072 16.2502 33.7099 16.2502 33.7155C16.2836 33.8074 16.3004 33.891 16.3254 33.983C16.3505 34.0665 16.3672 34.1418 16.3839 34.2253C16.409 34.3256 16.4257 34.4092 16.4341 34.5095C16.4508 34.6014 16.4675 34.685 16.4759 34.7686C16.5009 34.9859 16.5177 35.1948 16.5177 35.4038C16.5177 35.479 16.5177 35.5542 16.5093 35.6294L16.4926 35.7966C16.4926 35.7966 16.4926 35.8133 16.4926 35.8217C16.4926 35.8969 16.4759 35.9637 16.4675 36.039C16.4675 36.1058 16.4508 36.1643 16.4341 36.2228C16.4007 36.39 16.3505 36.5405 16.3004 36.6825C16.2669 36.7578 16.2419 36.8246 16.2084 36.8915C16.1499 37.0001 16.0914 37.1088 16.0246 37.2007C15.9911 37.2425 15.9577 37.2843 15.9243 37.3177C15.9243 37.3261 15.9159 37.3344 15.9075 37.3344C15.8574 37.3846 15.8156 37.4347 15.7655 37.4765C15.7237 37.5099 15.6819 37.5434 15.6401 37.5768C15.6234 37.5935 15.615 37.6019 15.5983 37.6102C15.5983 37.6102 15.5983 37.6102 15.5899 37.6102C15.5565 37.6353 15.5231 37.6604 15.4897 37.6771C15.4395 37.7105 15.381 37.7356 15.3309 37.7607C15.2723 37.7857 15.2138 37.8108 15.1553 37.8275C14.821 37.9362 14.4449 37.9445 14.027 37.8443C13.9017 37.8108 13.7679 37.7774 13.6259 37.7273C13.559 37.7022 13.4921 37.6687 13.4169 37.6437C13.3501 37.6102 13.2832 37.5852 13.208 37.5434C13.1411 37.51 13.0659 37.4682 12.9907 37.4264C12.9322 37.3929 12.8737 37.3511 12.8152 37.3177C12.8068 37.3177 12.7984 37.3094 12.7901 37.301C12.6814 37.2258 12.5644 37.1506 12.4558 37.067C12.3638 37.0001 12.2803 36.9249 12.1883 36.8497C11.9292 36.6324 11.6869 36.39 11.4528 36.1309C11.3609 36.0223 11.2606 35.9053 11.177 35.7966C10.826 35.3453 10.5084 34.8522 10.2493 34.3256C10.1323 34.0833 10.0237 33.8492 9.93172 33.6068C9.915 33.5734 9.90664 33.54 9.89829 33.5149C9.8565 33.3979 9.81471 33.2809 9.78128 33.1639C9.73949 33.0385 9.70606 32.9048 9.67263 32.7794C9.63084 32.6206 9.59741 32.4618 9.57233 32.2947C9.54726 32.1777 9.53054 32.0523 9.51383 31.9353C9.49711 31.8099 9.48875 31.6846 9.4804 31.5675V31.5091L9.45532 31.4923Z" fill="#CBCAE8"/>
<path d="M15.289 33.9244C15.289 34.9524 14.5618 35.3703 13.6592 34.8521C12.7565 34.334 12.0294 33.0803 12.0294 32.0439C12.0294 31.0076 12.7565 30.598 13.6592 31.1162C14.5618 31.6344 15.289 32.8881 15.289 33.9244Z" fill="#131313"/>
<path d="M15.0549 33.7907C15.0549 34.6683 14.4281 35.0277 13.6675 34.5847C12.8986 34.1417 12.2802 33.0636 12.2802 32.186C12.2802 31.3085 12.907 30.9491 13.6675 31.392C14.4365 31.835 15.0549 32.9131 15.0549 33.7907Z" fill="#9C9AAB"/>
<path d="M14.6956 33.8494C14.6956 34.6517 14.1356 34.9693 13.4335 34.5681C12.7398 34.167 12.1715 33.1975 12.1715 32.3951C12.1715 31.5928 12.7315 31.2752 13.4335 31.6763C14.1272 32.0775 14.6956 33.047 14.6956 33.8494Z" fill="#CBCAE8"/>
<path d="M14.2275 30.3136C14.1439 30.3805 14.0269 30.3805 13.8848 30.2969C13.6675 30.1716 13.492 29.8958 13.4502 29.645C13.7176 29.8372 13.9767 30.0629 14.2275 30.3136Z" fill="#131313"/>
<path d="M15.2807 31.643C15.2807 31.643 15.2222 31.5761 15.1971 31.5427C15.1553 31.4842 15.1219 31.4257 15.0968 31.3672C15.1637 31.4591 15.2222 31.5511 15.2807 31.643Z" fill="#131313"/>
<path d="M16.2418 33.7324C16.1332 33.6153 16.0496 33.4565 16.0078 33.2977C15.9827 33.1974 15.9827 33.1055 15.9994 33.0303C16.0914 33.2643 16.175 33.4983 16.2502 33.7324H16.2418Z" fill="#131313"/>
<path d="M16.5092 35.4207C16.5092 35.5544 16.5092 35.6882 16.4925 35.8135C16.4256 35.7884 16.3587 35.7467 16.3002 35.6798C16.0662 35.4625 15.9408 35.0947 16.0161 34.8691C16.0829 34.6769 16.2752 34.6518 16.4757 34.7855C16.5008 35.0028 16.5175 35.2118 16.5175 35.4207H16.5092Z" fill="#131313"/>
<path d="M15.0967 36.34C14.9546 36.0308 14.9964 35.7382 15.197 35.6881C15.3975 35.6379 15.6734 35.8469 15.8154 36.1561C15.9575 36.4654 15.9157 36.7579 15.7151 36.808C15.5146 36.8582 15.2387 36.6492 15.0967 36.34Z" fill="#131313"/>
<path d="M13.4419 35.6631C13.4419 35.3789 13.6425 35.2702 13.8849 35.4123C14.1272 35.5544 14.3278 35.8971 14.3278 36.1812C14.3278 36.4654 14.1272 36.574 13.8849 36.432C13.6425 36.2899 13.4419 35.9472 13.4419 35.6631Z" fill="#131313"/>
<path d="M11.9543 33.9247C12.0964 33.7827 12.3805 33.8913 12.5728 34.1671C12.7734 34.4513 12.8152 34.7939 12.6731 34.936C12.531 35.0781 12.2468 34.9695 12.0546 34.6937C11.8624 34.4179 11.8122 34.0668 11.9543 33.9247Z" fill="#131313"/>
<path d="M11.2104 31.7679C11.4444 31.8181 11.6951 32.1106 11.7704 32.4199C11.8456 32.7291 11.7202 32.9464 11.4862 32.8963C11.2522 32.8461 11.0014 32.5536 10.9262 32.2443C10.851 31.9351 10.9764 31.7178 11.2104 31.7679Z" fill="#131313"/>
<path d="M11.4862 30.0296C11.7202 30.2553 11.8456 30.6146 11.7704 30.8403C11.6951 31.066 11.4444 31.066 11.2104 30.8403C10.9764 30.6146 10.851 30.2553 10.9262 30.0296C11.0014 29.8039 11.2522 29.8039 11.4862 30.0296Z" fill="#131313"/>
<path d="M12.581 30.03C12.3804 30.0801 12.1046 29.8712 11.9625 29.5619C11.8371 29.2861 11.8538 29.0187 12.0043 28.9268C12.1547 28.9685 12.3219 29.0187 12.4807 29.0855C12.5559 29.1691 12.6227 29.2611 12.6813 29.3781C12.8233 29.6873 12.7815 29.9798 12.581 30.03Z" fill="#131313"/>
<path d="M70.9937 62.6752C70.9937 66.1186 68.5616 67.506 65.5611 65.7676C62.5607 64.0375 60.1285 59.8419 60.1285 56.3985C60.1285 52.9551 62.5607 51.5677 65.5611 53.3061C68.5616 55.0362 70.9937 59.2318 70.9937 62.6752Z" fill="#535C5E"/>
<path d="M69.6145 66.0435L66.4803 67.8488L58.6825 54.6686L61.942 52.7881L68.7704 56.9586L70.1076 64.6311L69.6145 66.0435Z" fill="url(#paint4_linear_28_4664)"/>
<path d="M68.0347 64.3803C68.0347 67.8237 65.6026 69.2111 62.6021 67.4726C59.6017 65.7426 57.1696 61.547 57.1696 58.1035C57.1696 54.6601 59.6017 53.2728 62.6021 55.0112C65.6026 56.7412 68.0347 60.9368 68.0347 64.3803Z" fill="url(#paint5_linear_28_4664)"/>
<path d="M67.3243 64.2299C67.3243 67.3641 65.1095 68.6261 62.3765 67.0549C59.6435 65.4836 57.4287 61.6557 57.4287 58.5215C57.4287 55.3874 59.6435 54.1254 62.3765 55.6966C65.1095 57.2762 67.3243 61.0958 67.3243 64.2299Z" fill="url(#paint6_linear_28_4664)"/>
<path d="M65.6778 63.5449C65.6778 63.6787 65.6778 63.8124 65.661 63.9378C65.6025 64.598 65.3936 65.1162 65.0676 65.4672C64.4324 66.1693 63.3627 66.2529 62.1508 65.5508C60.2034 64.4225 58.6238 61.6979 58.6238 59.4663C58.6238 58.0873 59.2255 57.2181 60.1449 57.0175C60.4541 56.9506 60.8052 56.959 61.1729 57.0509C61.3233 57.0927 61.4905 57.1429 61.6493 57.2097C61.8165 57.2766 61.9753 57.3602 62.1508 57.4521C62.3096 57.544 62.4684 57.6443 62.6272 57.7614C62.8946 57.9536 63.1537 58.1792 63.4044 58.43C63.722 58.7476 64.0146 59.107 64.2737 59.4831C64.3405 59.575 64.399 59.6669 64.4575 59.7589C64.7417 60.1935 64.9841 60.6615 65.1763 61.1379C65.2682 61.3719 65.3518 61.6059 65.427 61.8483C65.5357 62.2077 65.6109 62.5587 65.6527 62.9014C65.6778 63.1187 65.6945 63.3276 65.6945 63.5366L65.6778 63.5449Z" fill="#9C9AAB"/>
<path d="M58.6072 59.1983C58.6072 59.3153 58.6072 59.4406 58.6239 59.5576C58.6239 59.5743 58.6239 59.5911 58.6239 59.5994C58.7827 61.739 60.1868 64.1795 61.9503 65.4248C61.9503 65.4332 61.9587 65.4415 61.967 65.4415C62.1007 65.5334 62.2345 65.6254 62.3765 65.7006C63.3711 66.2689 64.2654 66.3525 64.9424 66.0266C65.0594 65.9681 65.1764 65.9012 65.2767 65.8092C65.3268 65.7675 65.377 65.7257 65.4188 65.6839C65.8785 65.2326 66.1459 64.5054 66.1459 63.5527C66.1459 61.8644 65.3018 59.9087 64.0732 58.4878H64.0648C63.5634 57.8944 62.9867 57.4013 62.3765 57.0419C62.2595 56.9751 62.1342 56.9082 62.0172 56.8581C61.3151 56.5321 60.6716 56.4485 60.1367 56.6073C60.0614 56.624 59.9946 56.6491 59.9277 56.6742C59.911 56.6742 59.8943 56.6826 59.8776 56.6909C59.7856 56.7327 59.6937 56.7828 59.6101 56.8413C59.6101 56.8413 59.6073 56.8413 59.6018 56.8413C59.5516 56.8748 59.5015 56.9082 59.4513 56.9583C58.9248 57.3929 58.6072 58.1619 58.6072 59.1899V59.1983ZM58.8496 59.3403C58.8496 58.304 59.1922 57.5518 59.7522 57.1589C59.7522 57.1589 59.7606 57.1422 59.7689 57.1422C59.8608 57.0754 59.9528 57.0252 60.0531 56.9918C60.0865 56.9751 60.1116 56.9667 60.145 56.95C60.3289 56.8831 60.5378 56.8497 60.7551 56.8413C61.2399 56.833 61.7246 57.1171 62.3097 57.4514C63.6051 58.1953 64.6248 59.566 65.2349 61.1122C65.5441 61.8978 65.9035 62.6584 65.9035 63.4106C65.9035 64.3717 65.611 65.0821 65.1179 65.4917C65.1095 65.5 65.1012 65.5084 65.0928 65.5167C64.9842 65.6003 64.8672 65.6755 64.7502 65.7424C64.7502 65.7424 64.7502 65.7424 64.7418 65.7424C64.115 66.0266 63.2875 65.9513 62.3765 65.4248C60.4292 64.2965 58.8496 61.5719 58.8496 59.3403Z" fill="#9C9AAB"/>
<path d="M65.6778 63.5444C65.6778 63.6781 65.6778 63.8118 65.6611 63.9372C65.6026 64.5975 65.3936 65.1157 65.0677 65.4667C64.4993 65.5921 63.8056 65.4583 63.0618 65.0321C61.1144 63.9038 59.5348 61.1791 59.5348 58.9476C59.5348 58.1035 59.7605 57.4516 60.1449 57.0253C60.4542 56.9585 60.8052 56.9668 61.1729 57.0587C61.3234 57.1005 61.4905 57.1507 61.6493 57.2175C61.8165 57.2844 61.9753 57.368 62.1508 57.4599C62.3096 57.5519 62.4684 57.6521 62.6272 57.7692C62.8946 57.9614 63.1537 58.1871 63.4045 58.4378C63.722 58.7554 64.0146 59.1148 64.2737 59.4909C64.3405 59.5828 64.399 59.6747 64.4575 59.7667C64.7417 60.2013 64.9841 60.6693 65.1763 61.1457C65.2682 61.3797 65.3518 61.6137 65.427 61.8561C65.5357 62.2155 65.6109 62.5665 65.6527 62.9092C65.6778 63.1265 65.6945 63.3354 65.6945 63.5444H65.6778Z" fill="#93949C"/>
<path d="M58.3815 59.3317C58.3815 61.722 60.0697 64.6305 62.1508 65.8424C63.2541 66.4776 64.257 66.511 64.9423 66.0346C65.051 65.9594 65.1596 65.8758 65.2516 65.7672C65.2934 65.7254 65.3268 65.6919 65.3519 65.6501C65.7113 65.1905 65.9202 64.5302 65.9202 63.6861C65.9202 61.2958 64.2319 58.3872 62.1508 57.1837C61.4154 56.7575 60.7217 56.607 60.1366 56.6906C60.0614 56.699 59.9862 56.7157 59.9109 56.7408C59.8441 56.7575 59.7856 56.7742 59.7271 56.7992C59.7271 56.7992 59.6519 56.8243 59.6184 56.841C59.6184 56.841 59.6156 56.841 59.6101 56.841C59.468 56.9079 59.3343 56.9915 59.2172 57.1001C59.2172 57.1001 59.2145 57.1001 59.2089 57.1001C58.6907 57.5347 58.3815 58.2953 58.3815 59.3149V59.3317ZM58.6238 59.5573V59.4654C58.6238 59.3818 58.6238 59.2982 58.6322 59.2147C58.6322 59.1645 58.6322 59.1144 58.6489 59.0642C58.6489 58.9974 58.6656 58.9305 58.674 58.8636C58.6823 58.7884 58.6991 58.7215 58.7158 58.6547C58.7325 58.5878 58.7409 58.5293 58.7659 58.4708C58.7659 58.4624 58.7659 58.4541 58.7659 58.4457C58.7659 58.4374 58.7659 58.429 58.7743 58.4207C58.791 58.3622 58.8077 58.3037 58.8328 58.2451C58.8328 58.2201 58.8495 58.2034 58.8579 58.1866C58.8829 58.1198 58.9164 58.0529 58.9498 57.9861C58.9832 57.9192 59.0167 57.8607 59.0501 57.8022C59.0835 57.7437 59.117 57.7019 59.1587 57.6518C59.1922 57.6016 59.234 57.5598 59.2758 57.518C59.3092 57.4762 59.3426 57.4428 59.3844 57.4094C59.3928 57.401 59.4095 57.3927 59.4178 57.3843C59.4596 57.3425 59.4931 57.3174 59.5348 57.2923C59.5766 57.2589 59.6101 57.2338 59.6519 57.2171C59.6769 57.2004 59.702 57.1837 59.7271 57.1754C59.7271 57.1754 59.7354 57.1753 59.7438 57.167C59.7605 57.1586 59.7689 57.1503 59.7856 57.1503C59.7856 57.1503 59.7939 57.1419 59.8023 57.1419C59.819 57.1419 59.8274 57.1336 59.8441 57.1252C59.9277 57.0834 60.0196 57.05 60.1199 57.0333C60.1366 57.0333 60.1533 57.0249 60.1784 57.0166C60.1784 57.0166 60.1868 57.0166 60.1951 57.0166C60.3288 56.9831 60.4626 56.9748 60.613 56.9748C60.6715 56.9748 60.73 56.9748 60.7885 56.9831C60.8554 56.9831 60.9222 56.9998 60.9975 57.0082C61.0727 57.0249 61.1395 57.0333 61.2148 57.05C61.2983 57.0751 61.3819 57.1001 61.4739 57.1252C61.5992 57.167 61.7246 57.2171 61.85 57.2756C61.85 57.2756 61.85 57.2756 61.8583 57.2756C61.9001 57.2924 61.9419 57.3091 61.9753 57.3342C62.0505 57.3676 62.1174 57.4094 62.1926 57.4511C62.3514 57.5431 62.5102 57.6518 62.669 57.7604C62.9365 57.961 63.1956 58.1866 63.4463 58.429C63.5549 58.5377 63.6636 58.6547 63.7555 58.7717C63.8809 58.9138 63.9979 59.0559 64.1066 59.2063C64.1734 59.2982 64.2403 59.3818 64.3071 59.4737C64.3071 59.4737 64.3071 59.4821 64.3155 59.4905C64.374 59.574 64.4325 59.6576 64.491 59.7495C64.491 59.7495 64.491 59.7579 64.4994 59.7663C64.5662 59.8666 64.6247 59.9752 64.6916 60.0839C64.725 60.1424 64.7585 60.2009 64.7919 60.2677C64.8337 60.343 64.8755 60.4182 64.9173 60.5018C64.9674 60.6021 65.0176 60.694 65.0593 60.7943C65.0844 60.8444 65.1011 60.8862 65.1262 60.9364C65.1931 61.0784 65.2516 61.2205 65.3017 61.371C65.3686 61.5298 65.4187 61.6886 65.4605 61.8557C65.494 61.9477 65.519 62.0312 65.5357 62.1232C65.5608 62.2068 65.5775 62.282 65.5942 62.3655C65.611 62.424 65.6193 62.4742 65.6277 62.5243C65.6444 62.5828 65.6528 62.633 65.6611 62.6831C65.6611 62.6999 65.6611 62.7082 65.6611 62.7166C65.6695 62.7834 65.6862 62.8419 65.6862 62.9088C65.7029 63.0007 65.7113 63.0927 65.7196 63.1846C65.728 63.31 65.7363 63.427 65.7363 63.544C65.7363 63.6777 65.728 63.8114 65.7196 63.9368C65.7196 63.9535 65.7196 63.9702 65.7196 63.9786C65.7113 64.0454 65.7029 64.104 65.6945 64.1625C65.6611 64.4048 65.6026 64.6221 65.5274 64.8144C65.494 64.8896 65.4689 64.9564 65.4355 65.0233C65.402 65.0902 65.3686 65.1487 65.3268 65.2072C65.3017 65.249 65.2683 65.2908 65.2432 65.3242C65.2098 65.366 65.1764 65.4078 65.1429 65.4412C65.1429 65.4412 65.1429 65.4496 65.1346 65.4579C65.0844 65.5164 65.0426 65.5582 64.9925 65.6084C64.9507 65.6418 64.9089 65.6752 64.8671 65.7087C64.8504 65.7254 64.842 65.7337 64.8253 65.7421C64.8253 65.7421 64.8253 65.7421 64.817 65.7421C64.7835 65.7672 64.7501 65.7922 64.7167 65.8089C64.6665 65.8424 64.608 65.8675 64.5579 65.8925C64.4994 65.9176 64.4409 65.9427 64.3824 65.9594C64.0481 66.0681 63.672 66.0764 63.2541 65.9761C63.1287 65.9427 62.995 65.9092 62.8529 65.8591C62.786 65.834 62.7192 65.8006 62.6439 65.7755C62.5771 65.7421 62.5102 65.717 62.435 65.6752C62.3681 65.6418 62.2929 65.6 62.2177 65.5582C62.1592 65.5248 62.1007 65.483 62.0422 65.4496C62.0338 65.4496 62.0255 65.4496 62.0255 65.4329C61.7915 65.2908 61.5741 65.1236 61.3568 64.9314C61.3568 64.9314 61.3401 64.923 61.3401 64.9147C61.2398 64.8227 61.1395 64.7308 61.0392 64.6389C60.9724 64.572 60.9139 64.5135 60.847 64.4383C60.6882 64.2711 60.5378 64.0956 60.3873 63.9117C60.3205 63.8282 60.2536 63.7362 60.1784 63.6443C59.9109 63.2765 59.6686 62.8754 59.468 62.4575C59.4011 62.3321 59.3426 62.2067 59.2925 62.0814C59.2925 62.0647 59.2841 62.0563 59.2758 62.0479C59.2256 61.9226 59.1755 61.7972 59.1253 61.6719C59.117 61.6468 59.1086 61.6217 59.1002 61.605C59.0501 61.4712 59.0083 61.3459 58.9665 61.2122C58.9665 61.2122 58.9665 61.2038 58.9665 61.1954C58.9247 61.0617 58.8913 60.9197 58.8579 60.7859C58.8579 60.7776 58.8579 60.7692 58.8495 60.7525C58.8244 60.6355 58.7994 60.5185 58.7826 60.4014C58.7743 60.368 58.7659 60.343 58.7659 60.3095C58.7409 60.1925 58.7241 60.0672 58.7158 59.9501C58.6991 59.8248 58.6907 59.7078 58.6907 59.5907C58.6907 59.574 58.6907 59.5573 58.6907 59.549L58.6238 59.5573Z" fill="#CBCAE8"/>
<path d="M64.5662 61.9732C64.5662 63.0013 63.8391 63.4192 62.9364 62.901C62.0338 62.3828 61.3066 61.1291 61.3066 60.0927C61.3066 59.0564 62.0338 58.6469 62.9364 59.165C63.8391 59.6832 64.5662 60.9369 64.5662 61.9732Z" fill="#131313"/>
<path d="M64.2236 61.9148C64.2236 62.7923 63.5968 63.1517 62.8362 62.7087C62.0673 62.2658 61.4489 61.1876 61.4489 60.31C61.4489 59.4325 62.0757 59.0731 62.8362 59.516C63.6052 59.959 64.2236 61.0372 64.2236 61.9148Z" fill="#9C9AAB"/>
<path d="M63.864 61.9734C63.864 62.7757 63.304 63.0933 62.602 62.6922C61.9083 62.291 61.34 61.3215 61.34 60.5191C61.34 59.7168 61.8999 59.3992 62.602 59.8004C63.2957 60.2015 63.864 61.171 63.864 61.9734Z" fill="#CBCAE8"/>
<path d="M63.396 58.4377C63.3125 58.5045 63.1955 58.5045 63.0534 58.4209C62.8361 58.2956 62.6606 58.0198 62.6188 57.769C62.8862 57.9613 63.1453 58.1869 63.396 58.4377Z" fill="#131313"/>
<path d="M64.4491 59.767C64.4491 59.767 64.3906 59.7002 64.3655 59.6667C64.3238 59.6082 64.2903 59.5497 64.2653 59.4912C64.3321 59.5831 64.3906 59.6751 64.4491 59.767Z" fill="#131313"/>
<path d="M65.4187 61.8563C65.31 61.7393 65.2265 61.5805 65.1847 61.4217C65.1596 61.3214 65.1596 61.2295 65.1763 61.1543C65.2683 61.3883 65.3518 61.6223 65.4271 61.8563H65.4187Z" fill="#131313"/>
<path d="M65.6779 63.5447C65.6779 63.6785 65.6779 63.8122 65.6612 63.9375C65.5943 63.9125 65.5358 63.8707 65.4689 63.8038C65.2349 63.5865 65.1095 63.2188 65.1848 62.9931C65.2516 62.8009 65.4439 62.7758 65.6444 62.9095C65.6695 63.1268 65.6862 63.3358 65.6862 63.5447H65.6779Z" fill="#131313"/>
<path d="M64.2735 64.464C64.1315 64.1548 64.1733 63.8623 64.3738 63.8121C64.5744 63.762 64.8502 63.9709 64.9923 64.2802C65.1344 64.5894 65.0926 64.8819 64.892 64.9321C64.6914 64.9822 64.4156 64.7733 64.2735 64.464Z" fill="#131313"/>
<path d="M62.6106 63.7954C62.6106 63.5112 62.8112 63.4026 63.0536 63.5446C63.2959 63.6867 63.4965 64.0294 63.4965 64.3136C63.4965 64.5977 63.2959 64.7064 63.0536 64.5643C62.8112 64.4222 62.6106 64.0795 62.6106 63.7954Z" fill="#131313"/>
<path d="M61.1312 62.0488C61.2733 61.9067 61.5574 62.0153 61.7497 62.2911C61.9502 62.5753 61.992 62.918 61.85 63.0601C61.7079 63.2022 61.4237 63.0935 61.2315 62.8177C61.0392 62.5419 60.9891 62.1908 61.1312 62.0488Z" fill="#131313"/>
<path d="M60.3788 59.9008C60.6129 59.9509 60.8636 60.2434 60.9388 60.5527C61.014 60.8619 60.8887 61.0792 60.6547 61.029C60.4206 60.9789 60.1699 60.6864 60.0947 60.3771C60.0195 60.0679 60.1448 59.8506 60.3788 59.9008Z" fill="#131313"/>
<path d="M60.6547 58.1619C60.8887 58.3876 61.014 58.747 60.9388 58.9726C60.8636 59.1983 60.6129 59.1983 60.3788 58.9726C60.1448 58.747 60.0195 58.3876 60.0947 58.1619C60.1699 57.9363 60.4206 57.9363 60.6547 58.1619Z" fill="#131313"/>
<path d="M61.7497 58.154C61.5491 58.2042 61.2733 57.9952 61.1312 57.686C61.0058 57.4101 61.0225 57.1427 61.173 57.0508C61.3234 57.0926 61.4906 57.1427 61.6494 57.2096C61.7246 57.2932 61.7914 57.3851 61.85 57.5021C61.992 57.8113 61.9502 58.1039 61.7497 58.154Z" fill="#131313"/>
<path d="M102.728 47.0797V50.2222L101.107 53.1809L98.4239 51.877L96.4348 50.9159L96.7858 50.0968C96.7858 49.7458 96.7357 49.4533 96.6521 49.2025C96.4097 48.4336 95.9166 48.0993 95.9166 48.0993C95.9166 44.0541 93.9274 38.6383 90.4088 36.6073C86.8902 34.5764 84.0402 36.2062 84.0402 40.2346C84.0402 40.6609 84.0653 41.0955 84.1321 41.5301V42.2238L83.8396 42.0483L81.4409 40.6107L57.6964 18.3706L55.1723 16.8579L55.0136 16.7492V15.6544C55.0136 11.6092 52.1635 6.6948 48.6449 4.6555C45.2182 2.6747 42.4184 4.17073 42.2763 7.98188L39.5433 6.10975L37.9469 5.01488L37.1446 3.36002L36.3422 -0.409325V-3.16741H37.1864L30.4082 -12.0935L29.9067 -18.9971L31.0852 -20C31.4864 -19.766 44.4577 -12.2774 54.2614 -6.61916C64.2155 -0.868998 69.8236 3.80301 71.2778 5.08175C72.7404 6.36049 75.5319 9.51137 75.5319 9.51137L85.5362 24.8229L98.8335 37.1255C98.8335 37.1255 100.48 39.332 100.814 40.2179C101.14 41.1205 101.709 45.1824 101.709 45.1824C101.709 45.1824 101.709 45.1825 101.709 45.1992L102.711 47.0713L102.728 47.0797Z" fill="#BEC3C7"/>
<path d="M85.1848 42.0735C85.1848 45.3832 87.525 49.4117 90.4001 51.0749C93.2835 52.7381 95.6153 51.4092 95.6153 48.0995C95.6153 44.7898 93.2752 40.7613 90.4001 39.0981C87.5166 37.4349 85.1848 38.7638 85.1848 42.0735Z" fill="#68635D"/>
<path d="M81.2987 38.6553C81.2987 39.2905 81.3489 39.9424 81.4408 40.611L83.8478 42.0569L84.132 42.2324V41.5387C84.0735 41.0958 84.0401 40.6695 84.0401 40.2433C84.0401 36.2065 86.8901 34.5767 90.4087 36.6076C93.9273 38.6386 95.9165 44.0628 95.9165 48.0996C95.9165 48.0996 96.7857 48.7014 96.7857 50.0971L96.4347 50.9162L98.4238 51.8773C98.5743 51.2087 98.6495 50.4816 98.6495 49.6709C98.6495 43.8956 95.4401 36.3653 90.4087 33.4567C85.3773 30.5482 81.2987 32.8801 81.2987 38.6553Z" fill="#AFB4B8"/>
<path d="M43.421 10.1302C43.421 13.4398 47.4913 16.4654 50.3747 18.1286C53.2581 19.7918 53.8599 19.4575 53.8599 16.1561C53.8599 12.8548 51.5197 8.81798 48.6446 7.15478C45.7612 5.49158 43.4294 6.82047 43.4294 10.1302H43.421Z" fill="#68635D"/>
<path d="M39.5516 6.10988L42.2846 7.99038C42.4267 4.17923 45.2182 2.6832 48.6533 4.664C52.1719 6.69494 55.0219 11.6177 55.0219 15.6545V16.7494L55.1807 16.858L57.7048 18.3708C57.7382 18.0114 57.7633 17.6269 57.7633 17.2341C57.7633 11.4589 53.6847 4.42161 48.6533 1.52146C43.7974 -1.2784 39.8274 0.785964 39.56 6.10988H39.5516Z" fill="#AFB4B8"/>
<path d="M101.107 53.1809C101.107 53.1809 101.107 53.1809 101.09 53.1809L86.9988 61.3213L75.4901 67.9658H75.4734C75.4734 67.9658 73.4257 63.135 71.5285 58.7137C69.9656 55.0864 68.5197 51.7349 68.3943 51.5511C68.1269 51.1499 53.8768 38.5882 53.8768 38.5882L6.32935 -5.68309L31.1018 -20L96.9613 37.9028L98.0561 38.8723L99.8196 47.1298L101.107 53.1725V53.1809Z" fill="#CFD3D6"/>
<path d="M101.107 53.1808C101.107 53.1808 101.107 53.1808 101.09 53.1808L86.9986 61.3213C84.157 61.6473 81.19 61.7392 78.2648 61.8562C68.9291 62.2156 73.785 53.5068 74.3115 53.1808L96.9695 37.9111L98.0644 38.8806L99.8279 47.1381L101.115 53.1808H101.107Z" fill="#BEC3C7"/>
<path d="M81.1819 58.5716L79.7694 58.3794C79.9115 57.8278 79.1676 57.6606 79.6858 57.4183C80.5299 57.0087 84.9345 55.0279 84.9345 55.0279C84.9345 55.0279 95.3567 48.8515 95.9668 48.325C96.3095 48.0325 98.8001 45.9012 99.1344 45.6171C99.3601 45.4248 99.7362 46.0851 99.8448 46.3609L98.8252 47.882L96.5101 49.7542L83.848 57.4266L81.1735 58.58L81.1819 58.5716Z" fill="#1E1E1E"/>
<path d="M6.3125 -5.68285C6.3125 -5.68285 24.3319 15.011 31.4444 17.8694C38.5652 20.7278 45.101 21.3045 46.9565 21.1791C48.8119 21.0621 52.0631 20.1929 54.7877 18.9058C57.504 17.6187 71.6872 9.83756 72.5815 9.08535C73.4757 8.34151 73.8936 8.00719 73.9354 7.7481C73.9856 7.49737 69.4473 2.66657 61.2483 -2.3314C53.0493 -7.321 6.3125 -5.69959 6.3125 -5.69959V-5.68285Z" fill="#EAEAEA"/>
<path d="M100.823 40.2345L75.1808 55.0361L57.3035 41.1371L85.5445 24.8311L98.8417 37.1337L100.823 40.2345Z" fill="#EAEAEA"/>
<path d="M57.3036 41.1373C58.5406 41.4048 61.3237 41.0287 64.2573 40.3182C66.3886 39.8001 71.42 37.3262 75.5404 35.0779C79.6607 32.8297 83.9065 29.311 84.6169 28.3081C85.3273 27.3052 85.5446 24.8312 85.5446 24.8312C85.5446 24.8312 74.7213 22.1902 69.3807 26.0181C64.04 29.8459 57.2953 41.1373 57.2953 41.1373H57.3036Z" fill="#CFD3D6"/>
<path d="M76.5431 62.1654V65.308L75.4566 67.9824L71.0353 67.6899L69.0461 66.7204L68.528 66.3945V63.8955C68.528 61.781 67.7507 59.4241 66.4887 57.3681C65.352 55.4959 63.8225 53.8745 62.151 52.9133C59.7941 51.551 57.738 51.8268 56.6432 53.3814C56.0916 54.1419 55.7823 55.2201 55.7823 56.549C55.7823 56.9752 55.8158 57.4015 55.8743 57.8444V58.5381L55.6319 58.3877L55.5901 58.3626L53.2081 56.6158L22.6854 38.2956L20.1363 37.0837L19.9775 36.9667V35.8802C19.9775 35.3536 19.9274 34.8187 19.8354 34.2755C19.2253 30.6064 16.6678 26.6532 13.6089 24.8897C10.1822 22.9089 7.38233 24.4049 7.24025 28.2161L4.50725 26.3439L2.91091 25.2407L2.1002 23.5942L1.29785 19.8248V17.0584H2.14199L3.88041 3.22627L5.40989 -4.63008L6.28745 -5.6748C6.68863 -5.44079 19.6516 2.03944 29.4553 7.69767C39.4178 13.4478 43.8474 17.8357 45.31 19.1144C46.7726 20.3932 48.9958 24.8311 48.9958 24.8311L57.27 41.1456L72.1552 53.1808L75.1473 55.0362C75.4733 55.9305 76.0416 60.0008 76.0416 60.0008L76.5097 62.1654H76.5431Z" fill="#BEC3C7"/>
<path d="M74.4455 54.5852L72.1889 53.1811L64.717 47.1384L56.4428 42.0402L34.7543 28.7095L3.88896 11.2417C3.88896 11.2417 3.48779 11.4172 2.83588 11.7431L2.16726 17.042H1.32312V19.8001L2.12547 23.5694L2.93617 25.2159L4.53251 26.3191L7.26551 28.1913C7.4076 24.3802 10.2075 22.8841 13.6342 24.8649C16.6931 26.6367 19.2506 30.59 19.8607 34.2507C19.9526 34.794 20.0028 35.3372 20.0028 35.8554V36.9419L20.1616 37.0589L22.7107 38.2708L53.2334 56.5911L55.6154 58.3379L55.6571 58.3629L55.8995 58.5134V57.8197C55.841 57.3767 55.8076 56.9421 55.8076 56.5242C55.8076 55.1953 56.1168 54.1172 56.6684 53.3566C57.7633 51.8104 59.8193 51.5346 62.1762 52.8886C63.8478 53.8581 65.3773 55.4795 66.5139 57.3433C67.7676 59.3993 68.5532 61.7646 68.5532 63.8707V66.3697L69.0714 66.6956L71.0606 67.6652L75.3481 67.9493C76.1338 65.6509 76.4931 63.6701 76.56 62.6923V62.1407L76.5266 61.9735C76.2591 60.7867 75.1392 56.8752 74.4622 54.5518L74.4455 54.5852Z" fill="#BEC3C7"/>
<path d="M55.7908 56.5409C55.7908 55.212 56.1001 54.1339 56.6517 53.3733L55.4314 50.6487L53.2751 50.0636L21.5071 31.501C21.5071 31.501 20.5794 32.7714 19.8523 34.2674C19.9442 34.8107 19.9944 35.3539 19.9944 35.8721V36.9586L20.1532 37.0756L22.7023 38.2875L53.225 56.6078L55.6069 58.3546L55.6487 58.3796C55.7323 58.2961 55.8075 58.2041 55.8911 58.1122V57.8364C55.8326 57.3934 55.7992 56.9588 55.7992 56.5409H55.7908Z" fill="#AFB4B8"/>
<path d="M22.7359 37.4599C22.7359 37.7524 22.7192 38.0282 22.7024 38.2957L22.0171 38.2037L20.1617 37.0838L20.0029 36.9668V35.8802C20.0029 31.8351 17.1529 26.9123 13.6342 24.8814C11.9209 23.8952 10.358 23.7698 9.21296 24.3799C8.06794 24.9817 7.34081 26.3106 7.26559 28.2162L4.53259 26.344C4.5911 25.2408 4.8084 24.2797 5.15107 23.4689C5.47702 22.7084 5.91999 22.0899 6.45489 21.6219C8.12644 20.1342 10.7174 20.0673 13.6342 21.7472C18.6656 24.6557 22.7442 31.6846 22.7442 37.4599H22.7359Z" fill="#AFB4B8"/>
<path d="M37.7379 16.8996C40.5043 18.496 43.6385 20.4852 45.4521 22.8922C48.1601 26.4777 51.7372 35.571 51.9211 36.2981C52.1049 37.0252 52.2052 38.3876 50.9766 37.6771C49.7481 36.9667 37.8716 30.0548 37.8716 30.0548C37.8716 30.0548 36.3087 29.1354 36.3087 26.9959C36.3087 25.2156 36.8603 19.173 37.1779 17.2674C37.2615 16.6573 37.7128 16.8829 37.7463 16.8996H37.7379Z" fill="#1E2329"/>
<path d="M51.5617 38.0449C51.3695 38.0449 51.1522 37.9697 50.8931 37.8276C49.6812 37.1256 37.9051 30.2722 37.7881 30.2053C37.7212 30.1635 36.1416 29.2107 36.1416 27.0043C36.1416 25.1405 36.7016 19.0978 37.0108 17.2507C37.0442 16.9916 37.1529 16.8161 37.3201 16.7325C37.5624 16.6155 37.8132 16.7576 37.8299 16.766C40.6381 18.3874 43.7556 20.3682 45.5943 22.8003C48.3607 26.4694 51.9378 35.6462 52.0966 36.2731C52.1719 36.5739 52.3892 37.5936 51.9211 37.9446C51.8208 38.0198 51.7038 38.0533 51.5701 38.0533L51.5617 38.0449ZM37.529 17.0167C37.529 17.0167 37.4872 17.0167 37.4705 17.0334C37.412 17.0669 37.3702 17.1588 37.3451 17.3009C37.0359 19.148 36.4843 25.1572 36.4843 27.0043C36.4843 29.0185 37.9051 29.8793 37.9636 29.9211C38.0806 29.988 49.8567 36.8414 51.0686 37.5435C51.3695 37.719 51.5952 37.7608 51.7122 37.6772C51.9295 37.51 51.9044 36.8915 51.7623 36.3566C51.6035 35.7382 48.0682 26.6449 45.3185 23.0092C43.5215 20.6273 40.4375 18.6632 37.6627 17.0585C37.646 17.0501 37.5875 17.0251 37.529 17.0251V17.0167Z" fill="#131313"/>
<path d="M79.928 20.5767C79.928 20.8609 79.953 21.1367 80.0115 21.3206C80.0115 21.3289 80.0115 21.3373 80.0115 21.3457C80.0366 21.4209 80.0701 21.4794 80.1202 21.5295C80.1536 21.563 80.1954 21.6048 80.2539 21.6382C80.4712 21.8053 80.839 22.0143 81.2736 22.0895C81.4324 22.1146 81.5995 22.1313 81.7667 22.1146C81.7918 22.1146 81.8252 22.1146 81.8586 22.1062C82.0425 22.0812 82.2264 22.031 82.4102 21.9391C82.452 21.914 82.4938 21.8973 82.5356 21.8638C82.5774 21.8388 82.6275 21.8137 82.6693 21.7886C83.4967 21.2788 84.4579 20.3176 84.8758 19.4735C84.9343 19.3481 84.9844 19.2228 85.0179 19.0974C85.0597 18.947 85.0931 18.7798 85.1098 18.621C85.1098 18.5792 85.1182 18.5374 85.1182 18.504C85.1349 18.3703 85.1432 18.2365 85.1432 18.1195C85.1432 18.0192 85.1432 17.9273 85.1349 17.8354C85.1349 17.7769 85.1349 17.7267 85.1182 17.6682C85.1014 17.4844 85.068 17.3088 85.0179 17.1417C85.0179 17.1417 85.0179 17.125 85.0179 17.1166C84.9259 16.7572 84.7671 16.4564 84.5582 16.2808C84.3827 16.1304 84.1821 16.0719 83.9146 16.1053C83.3714 16.1722 82.5774 16.6486 81.2401 17.5596C80.6802 17.9357 80.162 18.5959 79.9948 19.1893C79.9948 19.2061 79.9865 19.2228 79.9781 19.2395C79.953 19.3314 79.9447 19.4234 79.9363 19.5237C79.9363 19.649 79.928 19.7995 79.9196 19.9499C79.9196 20.1672 79.9113 20.3845 79.9196 20.5935L79.928 20.5767Z" fill="url(#paint7_linear_28_4664)"/>
<path d="M81.0231 20.0672V20.2511C81.0231 20.2511 81.0231 20.2762 81.0231 20.2929C81.0231 20.6941 81.0983 21.0702 81.2237 21.3627V21.3711C81.3323 21.6218 81.4827 21.814 81.6917 21.9059C81.909 22.0062 82.1932 22.0062 82.5358 21.8558C82.5776 21.8307 82.6278 21.814 82.6779 21.7806C83.6391 21.2875 84.4832 20.3765 84.8844 19.4655C84.9429 19.3401 84.993 19.2147 85.0264 19.0894C85.0766 18.9389 85.1017 18.7885 85.1184 18.6464V18.613C85.1184 18.613 85.1267 18.5294 85.1267 18.496C85.1434 18.3622 85.1518 18.2285 85.1518 18.1115C85.1518 18.0112 85.1518 17.9193 85.1435 17.8274C85.1435 17.7772 85.1435 17.7187 85.1351 17.6769C85.1184 17.4596 85.0766 17.2841 85.0264 17.1336C85.0264 17.1336 85.0264 17.1169 85.0264 17.1086C84.9429 16.8829 84.8259 16.7492 84.7088 16.7325C84.642 16.7241 84.5584 16.7325 84.4414 16.7408C83.9817 16.8161 83.1961 17.1504 82.6528 17.61C81.9926 18.17 81.0314 18.8136 81.0063 20.0672H81.0231Z" fill="#4A4A55"/>
<path d="M52.6065 38.4043C52.6065 38.4043 53.1999 38.3208 53.4506 38.1202C53.693 37.9196 53.5091 37.1757 53.0912 36.9083C52.6734 36.6408 51.4949 37.2342 51.3027 37.1339C51.1104 37.0336 49.9153 37.5351 49.9153 37.5351L50.2997 38.3876L52.6065 38.4043Z" fill="url(#paint8_linear_28_4664)"/>
<path d="M50.2328 35.3119C51.336 35.0361 52.4727 35.3955 52.6148 36.6575C52.7987 38.1786 52.1217 38.421 51.7205 38.6132C51.3193 38.8054 49.8066 39.4657 47.8843 39.4824C45.9703 39.5075 45.7363 38.4795 45.7363 37.7941C45.7363 37.6938 45.7363 37.7022 45.7363 37.6103C45.7865 36.6408 46.1375 36.3482 46.7978 36.156C48.2019 35.7381 50.2245 35.3035 50.2245 35.3035L50.2328 35.3119Z" fill="url(#paint9_linear_28_4664)"/>
<path d="M52.1886 35.947C51.5534 35.7464 50.2329 36.0055 48.9458 36.2897C47.6503 36.5739 46.6808 36.5488 46.5805 37.8025C46.4802 39.0561 46.8897 39.3654 47.4246 39.4489C47.9595 39.5325 48.9792 39.5242 50.517 39.0812C52.0548 38.6382 52.2722 38.3791 52.5062 37.9613C52.7485 37.535 52.8321 36.1476 52.1969 35.9554L52.1886 35.947Z" fill="#4A4A55"/>
<g style="mix-blend-mode:multiply">
<path d="M53.81 55.3035C53.4756 55.3035 53.1079 55.1948 52.7234 54.9691L35.4813 45.0067C35.4312 44.9482 34.1942 43.6611 34.1942 42.633L34.5787 28.7173L35.9243 15.2529C35.9243 15.1108 35.9911 14.9855 36.0998 14.9186C36.2084 14.8517 36.3589 14.8601 36.501 14.9437L37.6376 15.5956C41.6828 17.894 44.5077 20.0168 46.0456 21.9141C48.4944 24.9479 54.7126 38.73 54.9801 39.315L56.0582 42.0313V46.2018L55.7072 53.1137C55.6905 53.1973 55.4147 54.7101 54.4201 55.1697C54.2279 55.2617 54.0273 55.3035 53.8183 55.3035H53.81ZM35.707 44.7559L52.8906 54.6766C53.4171 54.9859 53.8852 55.0444 54.2696 54.8688C55.1054 54.4844 55.3645 53.0886 55.3645 53.0803L55.7155 46.1935V42.0647L54.6625 39.4571C54.5371 39.1813 48.1852 25.1151 45.7781 22.1314C44.2654 20.2676 41.4739 18.1614 37.4621 15.8881L36.3255 15.2278C36.3255 15.2278 36.2669 15.2028 36.2586 15.2028C36.2586 15.2028 36.2586 15.2195 36.2586 15.2613L34.913 28.7257L34.5285 42.6247C34.5285 43.4605 35.5649 44.5971 35.707 44.7476V44.7559Z" fill="#E8DCDD"/>
</g>
<path d="M71.2776 65.4833C71.2776 66.2857 71.194 67.0212 71.0519 67.6898L69.0628 66.7203L68.5446 66.3943V63.8954C68.5446 61.7808 67.7673 59.424 66.5053 57.3679C65.3687 55.4958 63.8392 53.8744 62.1676 52.9132C58.649 50.8823 55.799 52.5037 55.799 56.5489C55.799 56.9751 55.8324 57.4013 55.8909 57.8443V58.538L55.6067 58.3625L53.1997 56.9166C53.1078 56.2563 53.0576 55.6044 53.0576 54.9692C53.0576 49.194 57.1362 46.8622 62.1593 49.779C65.3018 51.5843 68.0682 55.011 69.7064 58.7302C70.6926 60.9701 71.2693 63.3187 71.2693 65.4917L71.2776 65.4833Z" fill="#AFB4B8"/>
<path d="M69.7064 58.722C68.0683 55.0028 65.3018 51.576 62.1593 49.7708C57.7965 47.2467 54.1609 48.6676 53.2666 52.8465C54.4451 49.5117 57.738 48.5255 61.6328 50.7737C64.675 52.5288 67.3662 55.8469 68.9458 59.4491C69.907 61.6221 70.4669 63.8955 70.4669 66.0016C70.4669 66.478 70.4252 66.921 70.375 67.3472L71.0436 67.6732C71.1941 67.0046 71.2693 66.2691 71.2693 65.4667C71.2693 63.2937 70.6926 60.9451 69.7064 58.7053V58.722Z" fill="#CFD3D6"/>
<path d="M22.9029 36.3903C22.9029 37.1926 22.8862 37.6356 22.7357 38.2958H22.7023L22.017 38.1956C22.0755 37.761 22.1006 37.3932 22.1006 36.9168C22.1006 34.8106 21.5406 32.5373 20.5794 30.3643C18.9915 26.7621 16.3086 23.4357 13.2664 21.6805C9.37999 19.4239 6.21238 20.594 5.03394 23.9288C5.06737 23.77 5.10916 23.6112 5.15095 23.4608C6.19567 19.6245 9.60565 18.2455 13.8013 20.6776C16.9438 22.4829 19.7102 25.9096 21.3484 29.6288C22.3346 31.8687 22.9113 34.2172 22.9113 36.3903H22.9029Z" fill="#CFD3D6"/>
<path d="M31.3193 25.617C31.0017 25.617 30.6005 25.5167 30.099 25.2242L7.76698 12.3616C6.89777 11.8601 6.70554 11.1413 6.8727 9.03516L7.61654 2.18178C7.68341 1.32929 8.05115 0.635587 8.59441 0.351422C8.89529 0.192624 9.3884 0.0839687 10.0319 0.451712L30.9348 12.4786C32.0965 13.1472 33.1496 14.9608 33.3335 16.6073V16.6408V16.6742L32.5896 23.4858C32.6899 24.4135 32.4726 25.0988 31.9795 25.4164C31.8207 25.5167 31.6034 25.6087 31.3109 25.6087L31.3193 25.617ZM9.19617 0.877942C9.09588 0.877942 9.00394 0.90303 8.912 0.944818C8.57769 1.12033 8.34367 1.61343 8.29353 2.24027L7.54968 9.09367C7.38253 11.2416 7.64162 11.5007 8.11801 11.7765L30.45 24.6392C30.9682 24.9401 31.3861 25.0153 31.6368 24.8565C31.9043 24.6809 32.0129 24.1878 31.9377 23.5276V23.4942V23.4607L32.6732 16.6575C32.5061 15.2534 31.5616 13.6236 30.6088 13.072L9.70599 1.04511C9.52212 0.936457 9.35497 0.886308 9.20453 0.886308L9.19617 0.877942Z" fill="#AFB4B8"/>
<path d="M31.085 -19.9917C27.6332 -19.9917 7.85033 -8.24901 6.3125 -5.69152L37.2781 11.3918C40.195 13.0216 63.1789 0.359531 60.4543 -2.39018C59.4012 -3.45162 31.0934 -19.9917 31.0934 -19.9917H31.085Z" fill="#EAEAEA"/>
<path d="M57.3036 41.1375L85.5446 24.8314L75.5403 9.52832L49.0294 24.8314L57.3036 41.1375Z" fill="#CFD3D6"/>
<path d="M101.107 53.1807L99.7026 54.6851C99.7026 54.6851 97.0031 56.6659 89.9825 61.037C82.9536 65.3914 77.2954 67.5561 77.2954 67.5561L75.4901 67.9823C76.0835 67.5226 91.8547 55.337 92.1388 55.1448C91.7627 55.4791 100.572 53.3227 101.09 53.1974C101.107 53.1974 101.107 53.1974 101.107 53.1974V53.1807Z" fill="#EAEAEA"/>
<path d="M100.822 40.2349L99.4767 42.1906C99.4767 42.1906 96.7521 44.1547 89.7232 48.5091C82.6943 52.8636 77.2283 54.719 77.2283 54.719L75.1722 55.0366C75.1722 55.0366 92.2389 41.848 91.846 42.1823C91.4532 42.525 100.814 40.2266 100.814 40.2266L100.822 40.2349Z" fill="#EAEAEA"/>
<path d="M63.0036 39.6413C62.92 39.6162 61.0479 40.0007 59.6856 40.2849C58.8498 40.4604 58.0056 40.0508 57.6212 39.2986L49.9404 24.3131L49.23 23.0678C48.9458 22.5747 49.2049 21.9479 49.7565 21.7974C51.4949 21.321 54.9968 20.2512 57.7716 18.6716C61.6246 16.4902 73.3923 9.84576 73.3923 9.84576L74.0777 9.23563C74.3201 9.01833 74.6962 9.05178 74.8967 9.31087L75.2143 9.7204L83.8814 23.469C84.55 24.5304 84.6085 25.8593 84.0402 26.9792L83.6474 27.7482C83.6474 27.7482 80.1622 30.8991 74.7547 34.1252C69.8486 37.0504 63.0203 39.6497 63.0203 39.6497L63.0036 39.6413Z" fill="#1E2329"/>
<path d="M83.6306 27.7481L84.0234 26.9792C84.2658 26.5028 84.3912 25.993 84.4079 25.4748C84.2073 25.1321 83.9231 24.6557 83.5637 24.079L83.4634 24.0623L79.0422 22.9424L68.9961 28.9934L67.4415 32.9884L57.3286 38.7386L57.6128 39.2986C57.9972 40.0591 58.8497 40.4603 59.6772 40.2848C61.0395 40.0006 62.92 39.6162 62.9952 39.6412C62.9952 39.6412 69.8235 37.042 74.7295 34.1168C80.137 30.8906 83.6222 27.7397 83.6222 27.7397L83.6306 27.7481Z" fill="#272E36"/>
<g style="mix-blend-mode:screen">
<path d="M58.0891 39.8751C62.4017 38.8889 67.4414 37.7606 72.0633 35.0861C63.0452 22.6163 57.3369 19.0225 57.3369 19.0225C57.3369 19.0225 57.1948 19.0559 56.9524 19.106C54.3364 20.4433 51.3276 21.3626 49.748 21.7973C49.1964 21.9477 48.9456 22.5745 49.2214 23.0676L49.9318 24.3129L56.7267 37.56C57.3703 38.6549 57.83 39.4656 58.0138 39.825C58.0389 39.8501 58.064 39.8668 58.0891 39.8835V39.8751Z" fill="#0B0E0F"/>
</g>
<path d="M82.9201 27.4136C81.75 28.3413 78.9418 30.506 74.7963 32.9883C71.3111 35.0693 67.0654 38.379 58.0557 39.8834C58.0557 40.0422 58.5571 40.5103 59.9362 40.2345C61.3152 39.9503 63.0118 39.6411 63.0118 39.6411C63.0118 39.6411 71.261 36.3147 72.5815 35.3284C73.902 34.3422 76.7688 33.1136 79.8194 30.6481C81.8085 29.5031 83.6472 27.7479 83.6472 27.7479C83.6472 27.7479 84.3493 26.2017 84.4245 25.4746C83.7057 26.5611 83.6389 26.8536 82.9285 27.4136H82.9201Z" fill="#131313"/>
<path d="M79.669 22.7253C78.4404 22.0232 66.5639 15.1113 66.5639 15.1113C66.5639 15.1113 66.0625 14.8188 65.6195 14.2171C69.5978 11.9688 73.3839 9.83755 73.3839 9.83755L73.9857 9.31104C76.7521 12.9885 80.3209 20.8364 80.5298 21.4967C80.7555 22.182 80.8976 23.4357 79.6773 22.7169L79.669 22.7253Z" fill="#313942"/>
<path d="M102.728 47.0799V50.2224L101.642 52.9052L100.238 54.4096C100.238 54.4096 96.9948 56.6746 89.9742 61.0374C82.9453 65.3918 77.2871 67.5564 77.2871 67.5564L75.4818 67.9827H75.4651L71.0438 67.6902L69.0547 66.7207L68.5365 66.3947C68.1771 65.2748 68.035 63.1268 68.035 63.1268C68.035 61.0123 67.7592 59.4327 66.4972 57.3766L68.6117 58.5467L68.6619 58.5718L69.7149 58.7306H71.5787L73.0246 59.207L74.2114 59.6165L76.0836 60.0093L79.0673 59.5497L81.1818 58.5718L83.8563 57.4184L96.5184 49.746L98.8335 47.8738L99.8114 47.13L101.098 46.1605L101.709 45.1826C101.709 45.1826 102.285 45.2578 102.294 45.2662L102.519 46.1521L102.72 47.0631L102.728 47.0799Z" fill="#404B4D"/>
<path d="M102.728 48.7515V50.2225L101.642 52.9053L100.238 54.4097C100.238 54.4097 96.9948 56.6663 89.9742 61.0375C82.9453 65.3919 77.2871 67.5566 77.2871 67.5566L75.4818 67.9828H75.4651L71.0438 67.6903L69.0547 66.7208L68.5365 66.3948C68.1771 65.2749 68.035 63.1186 68.035 63.1186C68.035 63.1186 72.7321 65.0241 76.5516 64.6146C80.3711 64.2134 87.6842 59.5999 91.8213 56.9672C95.9501 54.3429 102.728 50.4147 102.728 48.7432V48.7515Z" fill="#3C4749"/>
<path d="M73.8937 54.0418C72.7069 53.2478 57.3035 41.1373 57.3035 41.1373L49.0293 24.8229C49.0293 24.8229 47.784 21.0118 43.4212 17.2508C38.2227 12.7543 29.4804 7.68943 29.4804 7.68943L6.30427 -5.69141L5.43506 -4.64668C5.43506 -4.64668 27.3074 7.77301 32.0128 10.506C36.7183 13.239 41.081 16.8245 42.761 18.145C44.4409 19.4655 47.0652 22.1066 47.9428 23.9871C48.8287 25.8676 56.2922 41.8728 56.4343 42.04C56.5764 42.1987 71.4366 53.5487 71.4366 53.5487L73.409 55.0363L74.2699 55.379L76.9945 54.6686C75.3229 54.8107 74.905 54.7187 73.8854 54.0418H73.8937Z" fill="#CFD3D6"/>
<path d="M100.823 40.2346C100.814 40.126 100.806 40.0507 100.806 39.9839C100.714 39.8084 99.9784 38.4544 99.6023 38.1953C100.095 38.9141 100.823 40.2513 100.823 40.2513L99.3515 41.8309C99.3515 41.8309 96.652 43.8201 89.6231 48.1745C82.5942 52.5289 76.9359 54.6936 76.9359 54.6936L75.1975 55.1115C75.2811 55.3121 75.816 55.7717 79.1591 54.6434C85.7785 52.1194 95.3481 45.7758 98.4238 43.4774C101.499 41.179 100.881 40.9701 100.823 40.2263V40.2346Z" fill="#CFD3D6"/>
<path d="M100.823 40.2596L100.806 39.9922C100.856 40.2764 101.006 41.1121 100.823 40.2596Z" fill="#CFD3D6"/>
<path d="M76.0751 60.0007C76.0751 60.0007 78.3568 59.7332 79.0589 59.541C79.7609 59.3571 81.1817 58.5631 81.1817 58.5631L80.7304 56.2062C80.7304 56.2062 80.02 55.5961 79.5018 55.571C78.6326 55.9471 75.1808 55.0278 75.1808 55.0278C75.1808 55.0278 74.5457 55.0612 74.0358 55.0111C73.5344 54.9609 72.6902 55.6045 72.6902 55.6045C72.6902 55.6045 72.5481 57.5017 72.6902 58.5548C72.8323 59.6079 76.0751 59.984 76.0751 59.984V60.0007Z" fill="#E5E6EA"/>
<path d="M75.231 55.2452C74.6042 55.1867 73.8687 55.2452 73.8687 55.2452C73.8687 55.2452 73.0413 55.5545 72.9577 55.6798C72.8741 55.8052 72.7906 58.0618 72.9577 58.4964C73.1249 58.931 73.7016 59.1567 74.2866 59.3238C74.8716 59.491 75.1892 59.5411 75.1892 59.5411L75.9749 59.608L75.6238 55.5043L75.2143 55.2536L75.231 55.2452Z" fill="#F39737"/>
<path d="M9.20446 24.3799C8.05944 24.9817 7.33231 26.3105 7.25709 28.2161L4.52409 26.344L2.92775 25.2407L2.11705 23.5943L1.3147 19.8249V17.0585L2.27584 16.1475L2.15883 17.0585L2.35106 18.8972L6.42967 21.6135L7.87557 22.5328L9.18774 24.3715L9.20446 24.3799Z" fill="#404B4D"/>
<path d="M6.44645 21.6135L5.75275 21.9395L1.32312 18.9223V17.0502L2.28427 16.1392L2.17562 17.0585L2.36784 18.8972L6.10378 21.3795L6.44645 21.6135Z" fill="#535C5E"/>
<path d="M102.527 46.1686C101.583 47.1966 100.405 48.3249 97.9558 50.1134C94.7464 52.4703 84.4579 58.63 82.0509 59.7667C79.6438 60.9034 78.4821 61.3212 76.1335 61.3714C73.7766 61.4215 70.3332 60.31 70.3332 60.31C70.3332 60.31 69.1297 59.6413 68.9458 59.4575C68.762 59.2652 68.528 58.5632 68.528 58.5632L68.6115 58.5381L68.6617 58.5632L69.7148 58.722H71.5786L73.0244 59.1984L74.2113 59.6079L76.0834 60.0007L79.0671 59.541L81.1817 58.5632L83.8562 57.4098L96.5182 49.7373L98.8333 47.8652L101.558 43.7197C101.558 43.7197 102.335 44.823 102.527 46.1602V46.1686Z" fill="#535C5E"/>
<path d="M101.717 45.1908L101.383 45.9514L98.825 47.8736C98.3904 44.798 98.5158 45.6923 98.5158 45.6923C98.5158 45.6923 98.6161 44.6475 98.7749 44.4804C98.9003 44.3467 100.112 41.6053 100.697 40.5522C100.839 40.3015 100.797 40.1845 100.806 39.9839C100.998 40.5104 101.374 42.0483 101.725 45.1908H101.717Z" fill="#E5E6EA"/>
<path d="M100.914 40.2349C100.914 40.2349 100.923 40.6444 100.655 40.9118C100.806 41.079 100.856 41.1793 100.99 41.7727C101.307 43.1852 101.416 45.6089 101.416 45.6089L101.558 45.4668L101.717 45.2077V44.9403L101.232 41.3381L100.906 40.2349H100.914Z" fill="#F39737"/>
<path d="M59.301 40.4937C58.5404 40.4937 57.8216 40.0675 57.4706 39.3738L49.7898 24.3882L49.0794 23.1513C48.9206 22.8671 48.8955 22.5328 49.0209 22.2403C49.1463 21.9394 49.397 21.7221 49.7062 21.6385C51.5115 21.1454 54.9466 20.084 57.6796 18.5294C61.5325 16.3397 73.3003 9.70358 73.3003 9.70358L73.9606 9.11853C74.111 8.9848 74.3116 8.91794 74.5122 8.93465C74.7128 8.95137 74.8966 9.05165 75.022 9.21045L75.3396 9.62L84.015 23.3853C84.7087 24.4885 84.7755 25.8926 84.1738 27.0543L83.7392 27.8734C83.7392 27.8734 80.1787 31.0744 74.813 34.2671C69.9488 37.1673 63.1205 39.7749 63.0536 39.8L62.9951 39.8251H62.9617C62.8614 39.8251 62.3516 39.9003 59.7022 40.4519C59.5601 40.477 59.4263 40.4937 59.2843 40.4937H59.301ZM74.4369 9.26062C74.3367 9.26062 74.2447 9.29405 74.1779 9.36091L73.4925 9.97101C73.4925 9.97101 61.6913 16.6322 57.8384 18.8136C55.0719 20.3848 51.6034 21.4546 49.7898 21.9561C49.5809 22.0146 49.4137 22.165 49.3301 22.3656C49.2465 22.5662 49.2633 22.7919 49.3719 22.9841L50.0823 24.2294L57.7715 39.2233C58.1225 39.9086 58.8998 40.2847 59.652 40.1259C62.1593 39.5994 62.7862 39.4907 62.97 39.4824C63.4214 39.3069 69.9572 36.7828 74.6542 33.983C79.7609 30.9407 83.1876 27.9236 83.5052 27.6478L83.8896 26.9039C84.4329 25.8508 84.3744 24.5637 83.7392 23.5608L75.0721 9.81221L74.7629 9.41105C74.696 9.32748 74.5957 9.26898 74.4871 9.26062C74.4787 9.26062 74.462 9.26062 74.4537 9.26062H74.4369Z" fill="#131313"/>
<path d="M71.6287 34.8603L67.2743 35.1696L69.4557 34.0413L69.0629 33.7905L59.0753 39.0141L58.8831 39.524L65.0428 36.5152L66.1293 35.88L70.9434 35.4621L71.6287 34.8603Z" fill="#303039"/>
<path d="M82.8615 28.1741L78.5071 28.5335L80.6718 27.3801L80.2873 27.1377L70.3499 32.47L70.166 32.9882L76.2923 29.9041L77.3704 29.2606L82.1762 28.7842L82.8615 28.1741Z" fill="#303039"/>
<path d="M82.218 62.9007C81.2652 63.5693 80.956 64.7979 80.9309 65.2241C80.9058 65.642 84.9928 63.4606 86.0291 62.8338C87.0655 62.1986 95.0221 57.4764 97.6047 55.7464C100.179 54.008 99.7109 54.2086 99.9449 53.8157C100.179 53.4229 100.547 52.2863 100.43 52.0104C100.313 51.7346 99.7192 52.2946 99.7192 52.2946C99.7192 52.2946 87.3246 60.7945 82.218 62.9174V62.9007Z" fill="#1E1E1E"/>
<path d="M65.0764 40.0758L79.7694 50.4395L65.9038 39.7749L65.0764 40.0758Z" fill="#CFD3D6"/>
<path d="M83.5638 29.4029L95.1895 40.3099L83.9566 29.0435C83.9566 29.0435 83.5388 28.5003 83.5638 29.4113V29.4029Z" fill="#CFD3D6"/>
<path d="M60.1618 17.3927C60.6716 18.4374 62.0674 18.1449 62.4602 17.8941C62.853 17.6434 66.1627 15.7796 66.6558 15.3952C67.1573 15.0107 66.5304 13.7988 66.5304 13.7988C66.5304 13.7988 62.853 15.9635 60.1534 17.3843L60.1618 17.3927Z" fill="#131313"/>
<path d="M64.9342 16.6821L63.6554 17.4176C62.945 17.8271 62.2346 18.2952 61.5493 18.7966C61.3236 18.9638 61.1982 19.2981 61.2567 19.5823L61.4155 20.3261C61.474 20.6103 61.6997 20.744 61.9421 20.6437C62.6692 20.3345 63.3963 19.9667 64.1151 19.5572L65.3939 18.8217C66.1043 18.4122 66.8147 17.9441 67.5 17.4427C67.7257 17.2755 67.851 16.9412 67.7925 16.657L67.6337 15.9132C67.5752 15.629 67.3496 15.4953 67.1072 15.5956C66.3801 15.9048 65.6529 16.2726 64.9425 16.6821H64.9342Z" fill="#272E36"/>
<path d="M65.2101 17.6265C65.1934 17.2588 65.1182 16.2559 65.1182 16.2559L63.8478 16.2809C63.8478 16.2809 63.9899 17.7101 64.0066 17.7603C64.0818 17.9943 64.391 18.245 64.5164 18.2367C64.8256 18.2032 65.2185 18.0193 65.2101 17.6265Z" fill="#272E36"/>
<path d="M65.0177 15.9468C65.2099 16.2142 65.1347 16.5652 64.8422 16.7324C64.5496 16.8995 64.1568 16.8243 63.9646 16.5569C63.7724 16.2894 63.8476 15.9384 64.1401 15.7712C64.4326 15.6041 64.8255 15.6793 65.0177 15.9468Z" fill="#272E36"/>
<path d="M36.0245 30.4141C35.6985 30.8403 35.5314 31.5507 35.6986 31.9352C35.8824 32.3614 38.9581 34.0581 39.259 34.1166C39.5599 34.1751 39.7521 33.3393 39.6936 33.0885C39.6351 32.8378 36.0161 30.4141 36.0161 30.4141H36.0245Z" fill="#AFB4B8"/>
<path d="M38.5403 31.6092L36.4341 30.3973C36.1583 30.2385 35.941 30.3639 35.941 30.6815V30.7901C35.941 31.0994 36.1583 31.4839 36.4341 31.6427L39.3259 33.3142C39.6519 33.4981 39.8191 33.1554 39.5934 32.7542C39.3176 32.2611 38.9331 31.8516 38.532 31.6176L38.5403 31.6092Z" fill="#393F47"/>
<path d="M36.785 31.2164C36.785 31.3835 36.668 31.4504 36.5176 31.3668C36.3671 31.2832 36.2501 31.0743 36.2501 30.9071C36.2501 30.74 36.3671 30.6731 36.5176 30.7567C36.668 30.8403 36.785 31.0492 36.785 31.2164Z" fill="#CAC9E8"/>
<path d="M3.90572 3.21826L3.86393 3.69466C3.82215 4.18777 3.98094 4.68086 4.3069 5.05696C4.3069 5.05696 4.69135 5.40799 4.69135 6.23541C4.69135 7.28014 3.22874 19.4825 3.22874 19.4825L2.95293 19.2987L2.36789 18.9142L2.17566 17.0755L3.91408 3.23497L3.90572 3.21826Z" fill="#404B4D"/>
<path d="M3.62152 5.48298C3.62152 5.48298 3.59645 6.02624 3.94748 6.2519C4.07285 6.39399 4.09792 6.85367 4.09792 6.85367L3.4293 12.888L2.86097 17.9027C2.86097 17.9027 2.2592 17.5015 2.23413 16.4818C2.36786 15.1864 3.61317 5.47461 3.61317 5.47461L3.62152 5.48298Z" fill="#FF3F41"/>
<defs>
<linearGradient id="paint0_linear_28_4664" x1="20.454" y1="37.9029" x2="12.7983" y2="24.6474" gradientUnits="userSpaceOnUse">
<stop stop-color="#181818"/>
<stop offset="0.27" stop-color="#262626"/>
<stop offset="0.77" stop-color="#2E2E2E"/>
</linearGradient>
<linearGradient id="paint1_linear_28_4664" x1="20.2116" y1="38.0447" x2="12.5559" y2="24.7809" gradientUnits="userSpaceOnUse">
<stop stop-color="#181818"/>
<stop offset="0.27" stop-color="#262626"/>
<stop offset="0.77" stop-color="#2E2E2E"/>
</linearGradient>
<linearGradient id="paint2_linear_28_4664" x1="10.734" y1="37.7941" x2="16.1331" y2="28.4417" gradientUnits="userSpaceOnUse">
<stop stop-color="#141414"/>
<stop offset="0.44" stop-color="#1E1E1E"/>
<stop offset="0.78" stop-color="#202020"/>
<stop offset="0.98" stop-color="#282828"/>
<stop offset="1" stop-color="#2A2A2A"/>
</linearGradient>
<linearGradient id="paint3_linear_28_4664" x1="10.7506" y1="37.51" x2="15.665" y2="28.9934" gradientUnits="userSpaceOnUse">
<stop stop-color="#161616"/>
<stop offset="0.3" stop-color="#1A1A1A"/>
<stop offset="0.79" stop-color="#1D1D1D"/>
<stop offset="0.8" stop-color="#1E1E1E"/>
</linearGradient>
<linearGradient id="paint4_linear_28_4664" x1="69.6228" y1="66.0352" x2="61.9671" y2="52.7714" gradientUnits="userSpaceOnUse">
<stop stop-color="#181818"/>
<stop offset="0.27" stop-color="#262626"/>
<stop offset="0.77" stop-color="#2E2E2E"/>
</linearGradient>
<linearGradient id="paint5_linear_28_4664" x1="59.9109" y1="65.9181" x2="65.3017" y2="56.5741" gradientUnits="userSpaceOnUse">
<stop stop-color="#141414"/>
<stop offset="0.44" stop-color="#1E1E1E"/>
<stop offset="0.78" stop-color="#202020"/>
<stop offset="0.98" stop-color="#282828"/>
<stop offset="1" stop-color="#2A2A2A"/>
</linearGradient>
<linearGradient id="paint6_linear_28_4664" x1="59.9193" y1="65.634" x2="64.8337" y2="57.1174" gradientUnits="userSpaceOnUse">
<stop stop-color="#161616"/>
<stop offset="0.3" stop-color="#1A1A1A"/>
<stop offset="0.79" stop-color="#1D1D1D"/>
<stop offset="0.8" stop-color="#1E1E1E"/>
</linearGradient>
<linearGradient id="paint7_linear_28_4664" x1="80.864" y1="22.0143" x2="84.2907" y2="16.0886" gradientUnits="userSpaceOnUse">
<stop stop-color="#161616"/>
<stop offset="0.3" stop-color="#1A1A1A"/>
<stop offset="0.79" stop-color="#1D1D1D"/>
<stop offset="0.8" stop-color="#1E1E1E"/>
</linearGradient>
<linearGradient id="paint8_linear_28_4664" x1="51.0937" y1="38.8557" x2="52.431" y2="36.5322" gradientUnits="userSpaceOnUse">
<stop stop-color="#161616"/>
<stop offset="0.3" stop-color="#1A1A1A"/>
<stop offset="0.79" stop-color="#1D1D1D"/>
<stop offset="0.8" stop-color="#1E1E1E"/>
</linearGradient>
<linearGradient id="paint9_linear_28_4664" x1="47.7338" y1="39.9337" x2="50.7092" y2="34.7853" gradientUnits="userSpaceOnUse">
<stop stop-color="#161616"/>
<stop offset="0.3" stop-color="#1A1A1A"/>
<stop offset="0.79" stop-color="#1D1D1D"/>
<stop offset="0.8" stop-color="#1E1E1E"/>
</linearGradient>
</defs>
</svg>
