<svg width="94" height="67" viewBox="0 0 94 67" fill="none" xmlns="http://www.w3.org/2000/svg">
<g style="mix-blend-mode:multiply">
<path d="M56.9978 65.3609L2.62486 31.4549C-1.26376 29.0289 -0.773915 24.7958 3.71006 22.0035L20.8471 11.3148C25.3311 8.5144 32.1211 8.21321 36.0022 10.6391L90.3751 44.5451C94.2638 46.971 93.7739 51.2042 89.2899 53.9964L72.1529 64.6852C67.6689 67.4856 60.8789 67.7868 56.9978 65.3609Z" fill="#EAEAEA"/>
</g>
<path d="M89.9848 53.1825L88.3244 53.0143C88.3244 53.0143 81.3975 57.8126 75.8239 59.985C70.2502 62.1648 76.5553 57.3737 78.3547 56.1522C80.1468 54.9233 89.6996 50.2932 89.9921 51.032C90.2774 51.7708 89.9921 53.1825 89.9921 53.1825H89.9848Z" fill="#AFB4B8"/>
<path d="M9.04182 29.5566L13.7817 26.4625L26.765 34.962L52.0806 54.9088L55.4014 52.0927L66.2416 58.5368L66.9511 39.4312L9.04182 14.7227C9.04182 14.7227 4.17033 17.5314 9.04182 29.5492V29.5566Z" fill="#222222"/>
<path d="M23.2395 32.6503C23.2395 35.8614 20.972 37.1561 18.1706 35.5395C15.3691 33.923 13.1016 30.0098 13.1016 26.7913C13.1016 23.5729 15.3691 22.2856 18.1706 23.9021C20.972 25.5186 23.2395 29.4319 23.2395 32.6503Z" fill="url(#paint0_linear_28_5657)"/>
<path d="M18.4703 37.8L21.7545 35.9056L14.5424 23.5586L11.2362 25.4677L18.4703 37.8Z" fill="url(#paint1_linear_28_5657)"/>
<path d="M19.9186 34.5668C19.9186 37.7779 17.6511 39.0726 14.8496 37.456C12.0481 35.8395 9.78064 31.9263 9.78064 28.7079C9.78064 25.4894 12.0481 24.2021 14.8496 25.8186C17.6511 27.4351 19.9186 31.3484 19.9186 34.5668Z" fill="url(#paint2_linear_28_5657)"/>
<path d="M66.2781 57.4979C66.2781 60.709 64.0106 62.0037 61.2091 60.3872C58.4077 58.7707 56.1401 54.8574 56.1401 51.639C56.1401 48.4206 58.4077 47.1332 61.2091 48.7497C64.0106 50.3663 66.2781 54.2795 66.2781 57.4979Z" fill="url(#paint3_linear_28_5657)"/>
<path d="M61.5091 62.6477L64.7934 60.7532L57.5812 48.4062L54.275 50.3154L61.5091 62.6477Z" fill="url(#paint4_linear_28_5657)"/>
<path d="M75.1726 24.2755C75.1726 24.4876 75.1873 24.6851 75.2312 24.8241C75.2312 24.8314 75.2312 24.8387 75.2312 24.8387C75.2531 24.9046 75.2751 24.9485 75.3116 24.9777C75.3336 24.9997 75.3701 25.0289 75.4067 25.0582C75.5676 25.1825 75.8383 25.3361 76.1601 25.3946C76.2772 25.4166 76.4015 25.4239 76.5258 25.4093C76.5258 25.4093 76.5697 25.4093 76.5917 25.402C76.7233 25.3873 76.8623 25.3434 77.0013 25.2776C77.0305 25.263 77.0598 25.2483 77.0964 25.2264C77.0964 25.2264 77.1622 25.1898 77.1915 25.1679C77.7986 24.7875 78.5154 24.078 78.8226 23.449C78.8665 23.3539 78.9031 23.2588 78.925 23.171C78.9543 23.054 78.9835 22.9369 78.9908 22.8199C78.9908 22.7907 78.9981 22.7614 78.9981 22.7321C79.0128 22.6297 79.0128 22.5347 79.0128 22.4469C79.0128 22.3737 79.0128 22.3079 79.0055 22.2421C79.0055 22.1982 79.0055 22.1616 78.9908 22.1177C78.9762 21.9861 78.9543 21.8544 78.9177 21.73V21.7154C78.8446 21.4448 78.7275 21.2253 78.5739 21.0937C78.4422 20.984 78.296 20.9401 78.0985 20.962C77.6962 21.0132 77.111 21.3643 76.1162 22.0373C75.7066 22.3152 75.3189 22.8053 75.1946 23.2442C75.1946 23.2588 75.1873 23.2661 75.1799 23.2807C75.1653 23.3466 75.158 23.4197 75.1507 23.4855C75.1507 23.5806 75.1434 23.6904 75.1361 23.8001C75.1361 23.961 75.1287 24.1219 75.1361 24.2755H75.1726Z" fill="#BEC3C7"/>
<path d="M75.9773 23.8953V24.0269C75.9773 24.0269 75.9773 24.0489 75.9773 24.0562C75.9773 24.3561 76.0285 24.634 76.1235 24.8462V24.8535C76.204 25.0437 76.3137 25.1826 76.4673 25.2485C76.6282 25.3216 76.8404 25.3216 77.0964 25.2119C77.0964 25.2119 77.1622 25.1826 77.1988 25.1607C77.9083 24.7876 78.5374 24.1147 78.8299 23.4418C78.8738 23.3467 78.9104 23.2516 78.9323 23.1638C78.9689 23.0541 78.9908 22.9444 78.9982 22.8347V22.8127C78.9982 22.8127 79.0055 22.7542 79.0055 22.7249C79.0201 22.6225 79.0201 22.5274 79.0201 22.4397C79.0201 22.3665 79.0201 22.3007 79.0128 22.2349C79.0128 22.1983 79.0128 22.1544 79.0055 22.1251C78.9908 21.9642 78.9616 21.8326 78.925 21.7228V21.7082C78.8592 21.54 78.7714 21.4376 78.6836 21.423C78.6324 21.4156 78.5666 21.4229 78.4862 21.4303C78.1424 21.4888 77.5645 21.7375 77.1695 22.0739C76.6794 22.4909 75.97 22.9663 75.9553 23.888L75.9773 23.8953Z" fill="#E3E3E3"/>
<path d="M93.8539 48.5892C93.8539 48.5892 93.3273 48.9988 92.8811 48.9184C92.4349 48.8306 89.0629 46.8703 89.0629 46.8703L88.8873 46.7752V45.2903C88.8873 41.6111 86.2907 37.1346 83.0869 35.284C80.4975 33.7919 78.3105 34.4648 77.5644 36.7177C77.3888 37.2516 77.2864 37.8807 77.2864 38.5902V40.5651L76.7964 40.3018L45.8485 22.4324V20.4355C45.8485 19.5358 45.6949 18.5849 45.4096 17.634C44.5392 14.7155 42.4692 11.8263 40.0481 10.4292C36.8443 8.57861 34.2476 10.0635 34.2476 13.7354V15.0008L28.4618 10.4365L27.467 7.89104V6.72801L27.6718 6.3111V5.45528L27.3354 5.02373L26.9038 3.79489L27.6718 2.77816C27.6718 2.77816 27.8035 0.708146 27.8986 0.203442C27.9644 -0.140342 27.8255 -0.666991 28.0668 -1.13512C28.1766 -1.35456 28.7105 -1.75686 28.7617 -1.77148C28.7617 -1.77148 28.7983 -1.77149 28.8349 -1.75686C29.3981 -1.61789 33.7502 -0.242746 33.7502 -0.242746C33.7502 -0.242746 34.6499 -0.0671954 36.3177 0.181499C37.9927 0.430194 43.303 0.781291 44.7001 1.22016C46.0972 1.65172 51.4149 4.09478 56.8788 7.44484C62.3428 10.8022 64.6176 13.1282 65.2613 13.728C69.0576 17.2537 75.5163 24.2098 76.3648 25.2485C77.8643 26.3968 89.9918 34.5014 91.6083 38.3269C91.9814 39.4314 92.8591 42.8546 92.8591 42.8546L93.5321 44.0469V44.8222L93.1078 45.4074L93.4077 47.4993L93.8539 48.5892Z" fill="#E3E3E3"/>
<path d="M93.8539 48.5894C93.8539 48.5894 93.3273 48.999 92.8811 48.9185C92.4349 48.8308 89.0629 46.8705 89.0629 46.8705L88.8873 46.7754V45.2905C88.8873 41.6113 86.2907 37.1348 83.0869 35.2842C80.4975 33.792 78.3105 34.465 77.5644 36.7179C77.3888 37.2518 77.2864 37.8809 77.2864 38.5904V40.5653L76.7964 40.302L45.8485 22.4325V20.4357C45.8485 19.536 45.6949 18.5851 45.4096 17.6342C44.5392 14.7157 42.4692 11.8265 40.0481 10.4294C36.8443 8.5788 34.2476 10.0636 34.2476 13.7355V15.001L28.4618 10.4367L27.467 7.89123V6.7282L27.6718 6.31128V5.45547L27.3354 5.02392L26.9038 4.17543C26.9038 4.17543 28.9007 4.71672 29.0762 4.5558C29.2518 4.40219 32.6457 1.80551 33.0919 1.89329C33.5381 1.98106 45.8412 9.45653 50.6542 12.3165C55.4671 15.1765 73.8852 26.7847 80.5414 31.3051C88.1486 36.4692 88.1485 39.3292 89.8016 42.3574C89.9479 42.6207 93.1005 45.3929 93.1005 45.3929L93.4004 47.4849L93.8466 48.5748L93.8539 48.5894Z" fill="#CFD3D6"/>
<path d="M38.1901 6.41363C35.5715 5.3896 33.8745 6.4429 33.8014 10.8097C36.9979 8.84207 37.8683 8.24959 40.838 10.7439C43.8077 13.2381 45.9289 16.5516 45.9289 16.5516C45.9289 16.5516 44.8537 9.20048 38.1974 6.41363H38.1901Z" fill="#CFD3D6"/>
<path d="M77.5646 36.7101C77.389 37.2441 77.2866 37.8731 77.2866 38.5826V40.5575L76.7965 40.2942L45.8487 22.4248V20.4279C45.8487 19.5282 45.6951 18.5773 45.4098 17.6264C45.5634 17.0486 45.6658 16.6902 45.6658 16.6902C45.6658 16.6902 45.7609 16.6316 45.9291 16.5439C46.5435 16.2293 48.1601 15.5564 50.0106 16.1708C52.3659 16.9535 73.1393 30.3172 74.6753 31.4436C75.7871 32.2555 76.5478 32.1092 77.1842 34.6693C77.3159 35.2179 77.4475 35.8835 77.5719 36.7101H77.5646Z" fill="#BEC3C7"/>
<path d="M53.4118 21.8179L48.6207 20.728L50.3031 22.4323L74.6386 37.0614C74.6386 37.0614 72.2833 34.238 70.835 33.3749C69.3868 32.5045 53.4118 21.8179 53.4118 21.8179Z" fill="#E3E3E3"/>
<path d="M45.8485 22.4319V20.4351C45.8485 19.5354 45.6949 18.5845 45.4096 17.6336C44.5392 14.7151 42.4692 11.8259 40.0481 10.4288C36.8443 8.57819 34.2476 10.063 34.2476 13.7349V15.0004L28.4618 10.4361L27.467 7.89062L28.4765 8.91466L33.2894 12.2647C33.6844 8.62207 36.559 7.27618 40.0408 9.28768C42.5496 10.736 44.7367 13.5521 45.9143 16.5511C46.4995 18.0432 46.836 19.5793 46.836 21.0129V21.6274L76.277 39.1237V38.0119C76.277 36.6149 76.5989 35.4811 77.1621 34.6765C78.3324 32.9868 80.5414 32.6723 83.0796 34.1352C86.8319 36.3003 89.8748 41.5522 89.8748 45.8604L89.9991 46.3578L93.8466 48.5815C93.8466 48.5815 93.3199 48.9911 92.8737 48.9106C92.4276 48.8228 89.0556 46.8626 89.0556 46.8626L88.88 46.7675V45.2826C88.88 41.6034 86.2833 37.1269 83.0796 35.2763C80.4902 33.7841 78.3032 34.4571 77.5571 36.71C77.3815 37.2439 77.2791 37.873 77.2791 38.5825V40.5574L76.7891 40.2941L45.8412 22.4246L45.8485 22.4319Z" fill="#AFB4B8"/>
<path d="M41.3574 4.57026C49.835 9.90257 75.2677 26.1555 75.2677 26.1555C75.2677 26.1555 84.9595 32.2119 86.5102 33.9016C88.0608 35.5913 90.226 39.6655 90.599 40.3311C90.972 40.9967 92.8592 42.8546 92.8592 42.8546C92.8592 42.8546 91.9888 39.4314 91.6157 38.3269C89.9919 34.5014 77.8644 26.3969 76.3722 25.2485C75.5237 24.2171 69.0723 17.2537 65.2687 13.7281C64.625 13.1283 62.3502 10.8022 56.8862 7.44487C51.4223 4.08749 46.1046 1.65175 44.7075 1.22019C43.3104 0.788633 38.0001 0.430222 36.325 0.181527C34.65 -0.067168 33.7576 -0.242719 33.7576 -0.242719C33.7576 -0.242719 29.4055 -1.61786 28.8423 -1.75684C28.6301 -1.53008 28.0815 -1.14972 28.0742 -1.13509C28.0742 -1.13509 34.8036 0.452172 41.3648 4.57758L41.3574 4.57026Z" fill="#E3E3E3"/>
<path d="M45.1172 20.0111C45.1172 23.2222 42.8497 24.5169 40.0482 22.9004C37.2468 21.2839 34.9792 17.3706 34.9792 14.1522C34.9792 10.9338 37.2468 9.64642 40.0482 11.2629C42.8497 12.8794 45.1172 16.7927 45.1172 20.0111Z" fill="url(#paint5_linear_28_5657)"/>
<path d="M43.9761 19.353C43.9761 21.8399 42.2133 22.8493 40.0481 21.5912C37.883 20.3331 36.1202 17.3049 36.1202 14.8106C36.1202 12.3164 37.883 11.3143 40.0481 12.5724C42.2206 13.8232 43.9761 16.8587 43.9761 19.353Z" fill="#CBCAE8"/>
<path d="M88.1633 44.8661C88.1633 48.0772 85.8958 49.3719 83.0944 47.7554C80.2929 46.1389 78.0254 42.2256 78.0254 39.0072C78.0254 35.7887 80.2929 34.5014 83.0944 36.1179C85.8958 37.7344 88.1633 41.6477 88.1633 44.8661Z" fill="url(#paint6_linear_28_5657)"/>
<path d="M87.0221 44.2075C87.0221 46.6944 85.2593 47.7038 83.0942 46.4457C80.9217 45.1949 79.1663 42.1594 79.1663 39.6651C79.1663 37.1709 80.9291 36.1688 83.0942 37.4269C85.2666 38.6777 87.0221 41.7132 87.0221 44.2075Z" fill="#CBCAE8"/>
<path d="M74.9605 37.9026L74.8069 37.8075C74.5728 37.6685 51.1736 23.6611 49.6741 22.7761C48.2112 21.9129 47.509 20.3988 47.1652 19.6674L47.1067 19.543C46.8068 18.914 43.4348 10.9923 43.2958 10.6559L41.1014 5.08216L41.277 4.4458L44.0492 4.81153L72.8905 22.9224L74.0681 25.1899L74.9459 27.5086C74.9459 27.5086 75.3189 30.7343 75.4652 31.9924C75.6115 33.2505 75.019 37.5515 74.9898 37.7343L74.9678 37.9099L74.9605 37.9026ZM41.3501 5.06754L43.5153 10.5681C43.5518 10.6485 47.0262 18.8262 47.3188 19.448L47.3773 19.5723C47.7065 20.2818 48.3941 21.7447 49.7911 22.5713C51.2321 23.4197 72.7296 36.2861 74.7776 37.5149C74.8947 36.6737 75.3555 33.1042 75.2238 32.0143C75.0775 30.7562 74.7045 27.5525 74.7045 27.5525L73.8414 25.2776L72.7003 23.0833L43.9322 5.01633L41.4379 4.70181L41.3428 5.06754H41.3501Z" fill="#97772A"/>
<path d="M87.5197 34.7866L90.8697 36.9956C90.8697 36.9956 91.1843 38.2976 91.5207 39.3948C91.8572 40.492 92.1351 42.028 92.1351 42.028C92.1351 42.028 90.6795 40.3237 90.621 40.1628C90.5625 40.0019 87.9073 35.4376 87.9073 35.4376L87.5197 34.7793V34.7866Z" fill="#CBCAE8"/>
<path d="M27.6939 -0.264648L29.7566 0.218115L32.8799 1.5201L32.3313 2.24425L30.8099 3.26828L28.3668 2.36128L27.4525 1.68834L27.2843 0.327828L27.6939 -0.264648Z" fill="#EF3D29"/>
<path d="M33.0994 11.9214C33.0994 11.9214 28.4107 8.63714 28.1328 8.3665C27.8548 8.09587 27.4745 7.64235 27.4745 7.64235V6.73535L28.9301 7.94225L30.7294 9.41248L31.1318 10.0708L33.0994 11.9214Z" fill="#CFD3D6"/>
<path d="M93.5323 44.0468C93.5323 44.0468 92.6692 43.7615 91.572 43.0154C90.4748 42.2694 90.3431 40.6602 90.3431 40.6602L92.852 42.8545L93.525 44.0468H93.5323Z" fill="#E3E3E3"/>
<path d="M36.3179 0.181499L11.1193 14.7375L8.54454 14.3059L4.83606 12.0457L28.7619 -1.77148L33.7505 -0.242746L36.3179 0.181499Z" fill="#EAEAEA"/>
<path d="M36.3179 0.181152L44.7004 1.21982L22.53 14.0203L11.1193 14.7371L36.3179 0.181152Z" fill="#E3E3E3"/>
<path d="M76.365 25.2484L52.0221 39.2997L43.0911 26.5285L65.2615 13.728L76.365 25.2484Z" fill="#EAEAEA"/>
<path d="M43.0911 26.5281L65.2615 13.7276L58.1664 8.5928L44.7003 1.21973L22.5299 14.0202L43.0911 26.5281Z" fill="#EAEAEA"/>
<path d="M76.365 25.248L52.0222 39.2993L67.7046 52.129L91.6086 38.3265L89.8165 35.4884L76.365 25.248Z" fill="#EAEAEA"/>
<path d="M69.9501 62.3918L93.8541 48.5893L93.8614 48.1285L93.5468 44.1055L69.204 59.21L68.041 60.0512L69.9501 62.3918Z" fill="#CFD3D6"/>
<path d="M69.9501 62.3914C69.9501 62.3914 69.4235 62.8011 68.9773 62.7133C68.5311 62.6255 63.8571 61.4186 63.8571 61.4186L63.6815 61.3235V59.8387C63.6815 56.1595 61.0849 51.683 57.8811 49.8324C55.2917 48.3402 53.1047 49.0131 52.3586 51.266C52.1831 51.8 52.0806 52.429 52.0806 53.1385V55.1135L51.5906 54.8501L20.6427 36.9807V34.9838C20.6427 34.0841 20.4891 33.1333 20.2038 32.1824C19.3334 29.2639 17.2634 26.3746 14.8423 24.9775C11.6385 23.1269 9.04183 24.6118 9.04183 28.2837V29.5491L4.12645 24.4875L3.13166 21.942V20.779L3.33649 20.362V19.5062L3 19.0747V17.5898L3.76804 16.5731C3.76804 16.5731 3.8997 14.5031 3.99479 13.9984C4.06062 13.6546 4.35319 12.8793 4.59457 12.4111C4.70429 12.1917 4.79939 12.0381 4.8579 12.0308C4.86522 12.0308 4.89448 12.0308 4.93105 12.0381C5.49427 12.1771 8.54444 14.3056 8.54444 14.3056C8.54444 14.3056 9.44412 14.4811 11.1118 14.7298C12.7796 14.9785 21.1255 13.5815 22.5225 14.013C23.9196 14.4446 29.2373 16.8876 34.7013 20.2377C40.1652 23.5951 42.4401 25.9211 43.0838 26.5209C46.88 30.0465 51.1736 38.2534 52.0221 39.2921C53.5216 40.4405 66.0807 48.2963 67.6972 52.1218C68.0703 53.2263 68.9407 56.6495 68.9407 56.6495L69.6136 57.8418V58.6171L69.1894 59.2023L69.4893 61.2943L69.9355 62.3842L69.9501 62.3914Z" fill="#E3E3E3"/>
<path d="M69.9501 62.3914C69.9501 62.3914 69.4235 62.801 68.9773 62.7132C68.5311 62.6255 63.8571 61.4186 63.8571 61.4186L63.6815 61.3235V59.8386C63.6815 56.1594 61.0849 51.6829 57.8811 49.8323C55.2917 48.3401 53.1047 49.0131 52.3586 51.266C52.1831 51.7999 52.0806 52.429 52.0806 53.1385V55.1134L51.5906 54.8501L20.6427 36.9806V34.9838C20.6427 34.0841 20.4891 33.1332 20.2038 32.1823C19.3334 29.2638 17.2634 26.3745 14.8423 24.9775C11.6385 23.1269 9.04183 24.6117 9.04183 28.2836V29.5491L4.12645 24.4874L3.13166 21.9419V20.7789L3.33649 20.362V19.5062L3 19.0746V17.9774C3 17.9774 4.13376 19.0161 4.30931 18.8625C4.48486 18.7089 7.44725 16.3609 7.89344 16.4487C8.33962 16.5365 20.6427 24.0119 25.4557 26.8719C30.2687 29.7319 48.6867 41.3401 55.3429 45.8605C62.9501 51.0246 62.9501 53.8846 64.6032 56.9128C64.7494 57.1761 69.1967 59.1949 69.1967 59.1949L69.4966 61.2869L69.9428 62.3768L69.9501 62.3914Z" fill="#CFD3D6"/>
<path d="M52.3586 51.2657C52.1831 51.7997 52.0807 52.4287 52.0807 53.1383V55.1132L51.5906 54.8499L20.6427 36.9804V34.9835C20.6427 34.0838 20.4891 33.133 20.2039 32.1821C20.3575 31.6042 20.4598 31.2458 20.4598 31.2458C20.4598 31.2458 20.5549 31.1873 20.7232 31.0995C21.3376 30.785 22.9541 30.1121 24.8047 30.7265C27.16 31.5091 47.9333 44.8728 49.4694 45.9993C50.5812 46.8112 51.3419 46.6649 51.9783 49.225C52.1099 49.7736 52.2416 50.4392 52.3659 51.2657H52.3586Z" fill="#BEC3C7"/>
<path d="M13.4452 20.9983C10.8266 19.9743 8.17141 22.4466 8.09827 26.8134C10.5048 23.2731 12.3919 23.1707 15.6323 25.292C19.9186 28.0861 21.5351 34.1133 21.5351 34.1133C21.5351 34.1133 22.1641 24.9116 13.4452 20.9983Z" fill="#E3E3E3"/>
<path d="M28.2058 36.3662L23.4148 35.2764L25.0972 36.9806L49.4327 51.6097C49.4327 51.6097 47.0774 48.7936 45.6291 47.9232C44.1808 47.0528 28.2058 36.3662 28.2058 36.3662Z" fill="#E3E3E3"/>
<path d="M20.65 36.9806V34.9837C20.65 34.084 20.4963 33.1332 20.2111 32.1823C19.3406 29.2638 17.2706 26.3745 14.8495 24.9774C11.6457 23.1268 9.04909 24.6117 9.04909 28.2836V29.549L5.27477 26.1843L4.13371 24.4874L3.13892 21.9419L4.60183 24.1948L8.09818 26.8134C8.49317 23.1707 11.3678 21.8249 14.8495 23.8364C17.3584 25.2846 19.5455 28.1081 20.7231 31.0997C21.3083 32.5919 21.6447 34.1279 21.6447 35.5616V36.176L51.0858 53.6724V52.5606C51.0858 51.1635 51.4076 50.0298 51.9709 49.2252C53.1412 47.5355 55.3502 47.221 57.8883 48.6839C61.6407 50.849 64.6836 56.1008 64.6836 60.4091L64.8079 60.9065C64.8079 60.9065 67.9458 62.384 69.7891 62.3109C70.0159 62.3036 69.4307 62.7059 68.9772 62.7132C66.9511 62.7205 63.857 61.4185 63.857 61.4185L63.6815 61.3234V59.8386C63.6815 56.1594 61.0848 51.6829 57.881 49.8323C55.2917 48.3401 53.1046 49.013 52.3585 51.2659C52.183 51.7999 52.0806 52.4289 52.0806 53.1384V55.1134L51.5905 54.85L20.6426 36.9806H20.65Z" fill="#AFB4B8"/>
<path d="M16.1515 19.1259C24.6291 24.4582 50.0617 40.7111 50.0617 40.7111C50.0617 40.7111 59.7535 46.7603 61.3042 48.4572C62.8549 50.1469 65.5686 54.5503 65.9416 55.2159C66.3147 55.8815 68.9479 56.6568 68.9479 56.6568C68.9479 56.6568 68.0775 53.2336 67.7044 52.1291C66.0806 48.3036 53.5215 40.4478 52.0293 39.2994C51.1809 38.2681 46.8945 30.0538 43.091 26.5282C42.4473 25.9284 40.1725 23.6024 34.7085 20.245C29.2445 16.8876 23.9269 14.4519 22.5298 14.0203C21.1327 13.5888 12.7868 14.9859 11.1191 14.7372C9.44404 14.4885 8.55166 14.3129 8.55166 14.3129C8.55166 14.3129 5.50149 12.1844 4.93827 12.0454C4.72615 12.2722 4.61644 12.4038 4.60181 12.4185C4.60181 12.4185 9.59766 15.0005 16.1588 19.1259H16.1515Z" fill="#E3E3E3"/>
<path d="M19.9186 34.5668C19.9186 37.7779 17.6511 39.0726 14.8496 37.456C12.0481 35.8395 9.78064 31.9263 9.78064 28.7079C9.78064 25.4894 12.0481 24.2021 14.8496 25.8186C17.6511 27.4351 19.9186 31.3484 19.9186 34.5668Z" fill="#2D2C37"/>
<path d="M19.9186 34.5668C19.9186 37.7779 17.6511 39.0726 14.8496 37.456C12.0481 35.8395 9.78064 31.9263 9.78064 28.7079C9.78064 25.4894 12.0481 24.2021 14.8496 25.8186C17.6511 27.4351 19.9186 31.3484 19.9186 34.5668Z" fill="url(#paint7_linear_28_5657)"/>
<path d="M19.5966 34.5081C19.5966 37.6021 17.4096 38.8456 14.7178 37.2876C12.026 35.7296 9.83899 31.9626 9.83899 28.8759C9.83899 25.7891 12.026 24.5383 14.7178 26.0963C17.4096 27.6543 19.5966 31.4213 19.5966 34.5081Z" fill="url(#paint8_linear_28_5657)"/>
<path d="M18.9089 34.128C18.9089 36.7612 17.051 37.8218 14.7543 36.4979C12.4575 35.1739 10.5996 31.9628 10.5996 29.3296C10.5996 26.6964 12.4575 25.6357 14.7543 26.9597C17.051 28.2836 18.9089 31.4947 18.9089 34.128Z" fill="#504F58"/>
<path d="M18.7846 33.85C18.7846 36.3442 17.0218 37.3537 14.8494 36.0956C12.677 34.8375 10.9142 31.8019 10.9142 29.3077C10.9142 26.8134 12.677 25.804 14.8494 27.0621C17.0218 28.3202 18.7846 31.3557 18.7846 33.85Z" fill="#BABABE"/>
<path d="M11.1921 30.0612C11.3603 31.4949 12.0771 33.126 13.2109 34.428C14.3446 35.7227 15.6247 36.381 16.6487 36.3152C17.1022 36.2859 17.5118 36.1177 17.8264 35.7958C17.9288 35.7007 18.0238 35.5764 18.1043 35.4447C18.1189 35.4155 18.1409 35.3935 18.1482 35.3643C18.2067 35.2692 18.2579 35.1668 18.2945 35.0571C18.353 34.9181 18.3969 34.7645 18.4335 34.6109C18.4993 34.3329 18.5286 34.0257 18.5286 33.7112C18.5286 33.5649 18.5286 33.4186 18.5066 33.2723C18.5066 33.1918 18.492 33.1187 18.4847 33.0456C18.4847 32.9944 18.47 32.9432 18.4627 32.892C18.4627 32.8481 18.4481 32.7969 18.4408 32.753C18.4188 32.614 18.3896 32.4677 18.353 32.3214C18.3384 32.2483 18.3164 32.1824 18.3018 32.1093C18.2872 32.0508 18.2725 31.9923 18.2506 31.9337C18.2287 31.846 18.1994 31.7655 18.1702 31.6777C18.1482 31.6119 18.1262 31.5534 18.1043 31.4875C18.0092 31.2169 17.8922 30.9463 17.7605 30.6756C17.7313 30.6171 17.7093 30.5659 17.6801 30.5074C17.585 30.3245 17.4899 30.149 17.3802 29.9661C17.3509 29.9222 17.329 29.8784 17.2997 29.8345C17.2485 29.754 17.1973 29.6735 17.1461 29.5931C16.9413 29.2932 16.7219 28.9933 16.4805 28.7227C16.3561 28.5837 16.2391 28.452 16.1147 28.335C16.0562 28.2765 15.9977 28.218 15.9392 28.1668C15.9246 28.1521 15.9026 28.1302 15.888 28.1156C15.8441 28.0717 15.7929 28.0278 15.7417 27.9839C15.1566 27.4719 14.5568 27.1281 13.9862 26.9598C12.9914 26.6599 12.0991 26.894 11.5797 27.7059C11.5651 27.7279 11.5432 27.7571 11.5358 27.7791C11.4408 27.9473 11.3603 28.1229 11.3018 28.3204C11.1482 28.8251 11.1116 29.4175 11.1847 30.0539L11.1921 30.0612Z" fill="url(#paint9_linear_28_5657)"/>
<path d="M16.0563 28.8616L16.0929 29.9661C16.5098 29.9296 16.9195 29.893 17.2998 29.8418C17.2486 29.7613 17.1974 29.6809 17.1462 29.6004C16.9414 29.3005 16.722 29.0006 16.4806 28.73C16.3562 28.591 16.2392 28.4593 16.1148 28.3423C16.0563 28.2838 15.9978 28.2253 15.9393 28.1741C15.9247 28.1594 15.9027 28.1375 15.8881 28.1229C15.8442 28.079 15.793 28.0351 15.7418 27.9912C15.1567 27.4792 14.5569 27.1354 13.9863 26.9672C12.9915 26.6673 12.0992 26.9013 11.5798 27.7132C14.4398 26.7331 16.049 28.8616 16.049 28.8616H16.0563Z" fill="#393843"/>
<path d="M11.4261 30.0395C11.4261 30.0395 12.377 31.3049 13.3572 31.634C14.3373 31.9705 16.2391 34.2599 16.2391 34.2599L16.0928 29.959C13.8546 30.1272 11.4261 30.0321 11.4261 30.0321V30.0395Z" fill="#393843"/>
<path d="M13.3939 29.3006C13.5328 30.5295 14.1546 31.9339 15.1274 33.053C15.6614 33.6674 16.2465 34.1209 16.8024 34.3843C17.2559 34.6037 17.6875 34.6988 18.0825 34.6768C18.1117 34.6768 18.141 34.6768 18.1703 34.6695C18.2654 34.6695 18.3531 34.6476 18.4409 34.6183C18.5067 34.3403 18.536 34.0331 18.536 33.7186C18.536 33.5723 18.536 33.426 18.5141 33.2797C18.5141 33.1993 18.4994 33.1261 18.4921 33.053C18.4921 33.0018 18.4775 32.9506 18.4701 32.8994C18.4701 32.8555 18.4555 32.8043 18.4482 32.7604C18.4263 32.6214 18.397 32.4751 18.3604 32.3288C18.3458 32.2557 18.3239 32.1899 18.3092 32.1167C18.2946 32.0582 18.28 31.9997 18.258 31.9412C18.2361 31.8534 18.2068 31.773 18.1776 31.6852C18.1556 31.6193 18.1337 31.5608 18.1117 31.495C18.0166 31.2244 17.8996 30.9537 17.768 30.6831C17.7387 30.6246 17.7168 30.5734 17.6875 30.5148C17.5924 30.332 17.4973 30.1564 17.3876 29.9736C17.3145 29.8492 17.234 29.7249 17.1535 29.6005C16.9487 29.3006 16.7293 29.0007 16.4879 28.7301C16.3636 28.5911 16.2465 28.4595 16.1222 28.3424C16.0637 28.2839 16.0052 28.2254 15.9466 28.1742C15.932 28.1596 15.9101 28.1376 15.8954 28.123C15.8515 28.0791 15.8003 28.0352 15.7491 27.9913C15.164 27.4793 14.5642 27.1355 13.9936 26.9673C13.8839 27.077 13.7815 27.2013 13.6937 27.355C13.6133 27.4939 13.5475 27.6475 13.4963 27.8158C13.4231 28.0572 13.3792 28.3205 13.3719 28.5984C13.3646 28.8252 13.3719 29.0592 13.4012 29.3006H13.3939Z" fill="url(#paint10_linear_28_5657)"/>
<path d="M16.2247 31.3629L16.8976 30.9753L17.3877 29.9732C17.3146 29.8488 17.2341 29.7245 17.1536 29.6001C16.9488 29.3002 16.7294 29.0003 16.488 28.7297C16.3637 28.5907 16.2466 28.459 16.1223 28.342C16.0638 28.2835 16.0053 28.225 15.9468 28.1738C15.9321 28.1591 15.9102 28.1372 15.8955 28.1226C15.7639 28.203 15.6542 28.2689 15.6542 28.2689L16.488 29.2417L16.2247 31.3702V31.3629Z" fill="url(#paint11_linear_28_5657)"/>
<path d="M16.2245 31.3633L16.1294 32.2264L16.795 34.3768L17.0949 35.3424C17.1973 35.5545 16.8974 36.0373 17.0364 36.008C17.2558 35.9641 17.8117 35.6349 18.1116 35.4374C18.1263 35.4082 18.1482 35.3863 18.1555 35.357C18.214 35.2619 18.2652 35.1595 18.3018 35.0498C18.3018 34.9986 18.2799 34.9474 18.2506 34.8962L18.1702 34.6548L16.9559 31.0853L16.8974 30.9683L16.2245 31.3559V31.3633Z" fill="url(#paint12_linear_28_5657)"/>
<path d="M12.1652 28.1592C12.2237 28.1299 12.2969 28.1372 12.3846 28.1811L15.603 29.5416L15.6908 29.5928V31.319L14.9813 30.9094L12.3115 29.8634C12.1432 29.7683 12.0116 29.5416 11.997 29.3441C11.9823 28.9638 11.3972 28.8833 11.4703 28.5541C11.4849 28.4883 12.1213 28.1738 12.1652 28.1518V28.1592Z" fill="url(#paint13_linear_28_5657)"/>
<path d="M15.5589 32.731L16.956 29.8564C17.0218 29.7394 16.9852 29.5199 16.8536 29.3444C16.7219 29.1615 16.5829 28.986 16.4293 28.8177C16.283 28.6495 16.1294 28.4886 15.9758 28.3423C15.8295 28.2033 15.6686 28.1887 15.6028 28.3057L14.2057 31.1804L15.5516 32.7237L15.5589 32.731Z" fill="#DFDFE3"/>
<path d="M15.0249 31.7144V29.9882L14.9298 29.937L11.7114 28.5765C11.5651 28.496 11.4408 28.5326 11.4042 28.6789C11.3311 29.008 11.3091 29.3664 11.3237 29.7395C11.331 29.937 11.47 30.1637 11.6383 30.2588L14.3081 31.3048L15.0249 31.7144Z" fill="#DFDFE3"/>
<path d="M17.5631 35.7374C17.6581 35.6642 17.6581 35.4814 17.5704 35.2985L16.2757 31.4876L16.2245 31.3706L15.0249 31.7217L15.4565 32.6287L16.422 35.7447C16.5244 35.9568 16.7072 36.0958 16.8462 36.0666C17.1095 36.0154 17.3583 35.9056 17.5704 35.7374H17.5631Z" fill="#DFDFE3"/>
<path d="M16.8462 35.635C16.8462 35.635 16.8097 35.5911 16.795 35.5545L15.8076 32.3873L14.5787 30.9756L11.8504 29.8931C11.8138 29.8711 11.748 29.7687 11.748 29.7102C11.7407 29.4834 11.748 29.2713 11.7626 29.0738L15.0834 30.5001L15.8222 28.7739C15.9246 28.8763 16.0197 28.986 16.1221 29.0958C16.2611 29.2567 16.3927 29.4249 16.5244 29.5932C16.5536 29.6297 16.5683 29.6736 16.5756 29.6956L15.8149 31.4657L17.2046 35.4814C17.0949 35.5472 16.9779 35.5984 16.8462 35.635Z" fill="#4B4A4B"/>
<path d="M62.9574 59.4145C62.9574 62.6256 60.6899 63.9202 57.8884 62.3037C55.087 60.6872 52.8195 56.7739 52.8195 53.5555C52.8195 50.3371 55.087 49.0497 57.8884 50.6663C60.6899 52.2828 62.9574 56.1961 62.9574 59.4145Z" fill="url(#paint14_linear_28_5657)"/>
<path d="M62.9574 59.4145C62.9574 62.6256 60.6899 63.9202 57.8884 62.3037C55.087 60.6872 52.8195 56.7739 52.8195 53.5555C52.8195 50.3371 55.087 49.0497 57.8884 50.6663C60.6899 52.2828 62.9574 56.1961 62.9574 59.4145Z" fill="#2D2C37"/>
<path d="M62.9574 59.4145C62.9574 62.6256 60.6899 63.9202 57.8884 62.3037C55.087 60.6872 52.8195 56.7739 52.8195 53.5555C52.8195 50.3371 55.087 49.0497 57.8884 50.6663C60.6899 52.2828 62.9574 56.1961 62.9574 59.4145Z" fill="url(#paint15_linear_28_5657)"/>
<path d="M62.6429 59.3557C62.6429 62.4498 60.4558 63.6933 57.764 62.1353C55.0723 60.5773 52.8853 56.8103 52.8853 53.7235C52.8853 50.6368 55.0723 49.386 57.764 50.944C60.4558 52.502 62.6429 56.269 62.6429 59.3557Z" fill="url(#paint16_linear_28_5657)"/>
<path d="M61.948 58.9756C61.948 61.6088 60.0901 62.6694 57.7933 61.3455C55.4966 60.0216 53.6387 56.8105 53.6387 54.1773C53.6387 51.544 55.4966 50.4834 57.7933 51.8073C60.0901 53.1313 61.948 56.3424 61.948 58.9756Z" fill="#504F58"/>
<path d="M61.8236 58.6976C61.8236 61.1919 60.0608 62.2013 57.8884 60.9432C55.7159 59.6851 53.9531 56.6496 53.9531 54.1553C53.9531 51.661 55.7159 50.6516 57.8884 51.9097C60.0608 53.1678 61.8236 56.2034 61.8236 58.6976Z" fill="#BABABE"/>
<path d="M54.2311 54.9089C54.3994 56.3425 55.1162 57.9737 56.25 59.2757C57.3837 60.5704 58.6637 61.2287 59.6878 61.1628C60.1413 61.1336 60.5436 60.9653 60.8654 60.6435C60.9678 60.5484 61.0629 60.4314 61.1434 60.2924C61.158 60.2631 61.18 60.2412 61.1873 60.2119C61.2458 60.1168 61.297 60.0144 61.3335 59.9047C61.3921 59.7657 61.436 59.6121 61.4725 59.4585C61.5384 59.1806 61.5676 58.8734 61.5676 58.5588C61.5676 58.4126 61.5676 58.2663 61.5457 58.12C61.5457 58.0395 61.531 57.9664 61.5237 57.8932C61.5237 57.842 61.5091 57.7908 61.5018 57.7396C61.5018 57.6957 61.4872 57.6445 61.4798 57.6006C61.4579 57.4617 61.4287 57.3154 61.3921 57.1691C61.3774 57.0959 61.3555 57.0301 61.3409 56.957C61.3262 56.8984 61.3116 56.8399 61.2897 56.7814C61.2677 56.6936 61.2385 56.6132 61.2092 56.5254C61.1873 56.4596 61.1653 56.401 61.1434 56.3352C61.0483 56.0646 60.9313 55.7939 60.7996 55.5233C60.7703 55.4648 60.7484 55.4136 60.7191 55.3551C60.624 55.1722 60.5289 54.9967 60.4192 54.8138C60.39 54.7699 60.368 54.726 60.3388 54.6821C60.2876 54.6017 60.2364 54.5212 60.1852 54.4407C59.9804 54.1409 59.7609 53.841 59.5196 53.5703C59.3952 53.4313 59.2782 53.2997 59.1538 53.1826C59.0953 53.1241 59.0368 53.0656 58.9783 53.0144C58.9636 52.9998 58.9417 52.9778 58.9271 52.9632C58.8832 52.9193 58.832 52.8754 58.7808 52.8389C58.1956 52.3268 57.5958 51.9831 57.0253 51.8148C56.0305 51.5149 55.1381 51.749 54.6188 52.5609C54.6042 52.5828 54.5822 52.6121 54.5749 52.6341C54.4798 52.8023 54.3994 52.9778 54.3408 53.1753C54.1872 53.68 54.1507 54.2725 54.2238 54.9089H54.2311Z" fill="url(#paint17_linear_28_5657)"/>
<path d="M59.0953 53.7088L59.1319 54.8133C59.5488 54.7767 59.9584 54.7402 60.3388 54.689C60.2876 54.6085 60.2363 54.528 60.1851 54.4476C59.9803 54.1477 59.7609 53.8478 59.5195 53.5771C59.3952 53.4382 59.2782 53.3065 59.1538 53.1895C59.0953 53.131 59.0368 53.0724 58.9782 53.0212C58.9636 53.0066 58.9417 52.9847 58.9271 52.97C58.8832 52.9261 58.832 52.8823 58.7808 52.8457C58.1956 52.3337 57.5958 51.9899 57.0253 51.8217C56.0305 51.5218 55.1381 51.7558 54.6188 52.5677C57.4788 51.5876 59.088 53.7161 59.088 53.7161L59.0953 53.7088Z" fill="#393843"/>
<path d="M54.4653 54.8871C54.4653 54.8871 55.4162 56.1525 56.3964 56.4817C57.3765 56.8181 59.271 59.1076 59.271 59.1076L59.1247 54.8066C56.8864 54.9749 54.458 54.8798 54.458 54.8798L54.4653 54.8871Z" fill="#393843"/>
<path d="M56.433 54.1478C56.572 55.3766 57.1937 56.781 58.1666 57.9002C58.7005 58.5146 59.2784 58.9681 59.8416 59.2314C60.2951 59.4509 60.7267 59.5459 61.1217 59.524C61.1509 59.524 61.1802 59.524 61.2094 59.5167C61.3045 59.5167 61.3923 59.4947 61.4801 59.4655C61.5459 59.1875 61.5752 58.8803 61.5752 58.5658C61.5752 58.4195 61.5752 58.2732 61.5532 58.1269C61.5532 58.0465 61.5386 57.9733 61.5313 57.9002C61.5313 57.849 61.5166 57.7977 61.5093 57.7465C61.5093 57.7027 61.4947 57.6515 61.4874 57.6076C61.4654 57.4686 61.4362 57.3223 61.3996 57.176C61.385 57.1029 61.363 57.0371 61.3484 56.9639C61.3338 56.9054 61.3191 56.8469 61.2972 56.7883C61.2753 56.7006 61.246 56.6201 61.2167 56.5324C61.1948 56.4665 61.1728 56.408 61.1509 56.3422C61.0558 56.0715 60.9388 55.8009 60.8071 55.5302C60.7779 55.4717 60.7559 55.4205 60.7267 55.362C60.6316 55.1792 60.5365 55.0036 60.4268 54.8207C60.3536 54.6964 60.2732 54.572 60.1927 54.4477C59.9879 54.1478 59.7684 53.8479 59.5271 53.5773C59.4027 53.4383 59.2857 53.3066 59.1613 53.1896C59.1028 53.1311 59.0443 53.0726 58.9858 53.0214C58.9712 53.0067 58.9492 52.9848 58.9346 52.9701C58.8907 52.9263 58.8395 52.8824 58.7883 52.8458C58.2031 52.3338 57.6033 51.99 57.0328 51.8218C56.9231 51.9315 56.8207 52.0558 56.7329 52.2094C56.6525 52.3484 56.5866 52.502 56.5354 52.6703C56.4623 52.9116 56.4184 53.175 56.4038 53.4529C56.3964 53.6797 56.4038 53.9137 56.433 54.1551V54.1478Z" fill="url(#paint18_linear_28_5657)"/>
<path d="M59.2635 56.2106L59.9365 55.8229L60.4265 54.8208C60.3534 54.6964 60.2729 54.5721 60.1925 54.4478C59.9877 54.1479 59.7682 53.848 59.5268 53.5773C59.4025 53.4384 59.2855 53.3067 59.1611 53.1897C59.1026 53.1311 59.0441 53.0726 58.9856 53.0214C58.9709 53.0068 58.949 52.9848 58.9344 52.9702C58.8027 53.0507 58.693 53.1165 58.6857 53.1238L59.5268 54.0893L59.2635 56.2179V56.2106Z" fill="url(#paint19_linear_28_5657)"/>
<path d="M59.2637 56.2104L59.1686 57.0735L59.8342 59.224L60.1341 60.1895C60.2365 60.4017 59.9366 60.8844 60.0756 60.8551C60.295 60.8113 60.8509 60.4821 61.1508 60.2846C61.1654 60.2554 61.1874 60.2334 61.1947 60.2042C61.2532 60.1091 61.3044 60.0067 61.341 59.8969C61.341 59.8457 61.3191 59.7945 61.2898 59.7433L61.2093 59.502L59.9951 55.9325L59.9366 55.8154L59.2637 56.2031V56.2104Z" fill="url(#paint20_linear_28_5657)"/>
<path d="M55.2042 53.0068C55.2628 52.9776 55.3359 52.9849 55.4237 53.0288L58.6421 54.3893L58.7299 54.4405V56.1667L58.0204 55.7571L55.3505 54.7111C55.1823 54.616 55.0507 54.3893 55.036 54.1918C55.0214 53.8114 54.4362 53.731 54.5094 53.4018C54.524 53.3433 55.1604 53.0214 55.2042 52.9995V53.0068Z" fill="url(#paint21_linear_28_5657)"/>
<path d="M58.5978 57.586L59.9949 54.7114C60.0607 54.5944 60.0242 54.3749 59.8925 54.1994C59.7608 54.0165 59.6219 53.841 59.4683 53.6727C59.322 53.5045 59.1684 53.3436 59.0148 53.1973C58.8685 53.0583 58.7075 53.0437 58.6417 53.1607L57.2446 56.0353L58.5905 57.5787L58.5978 57.586Z" fill="#DFDFE3"/>
<path d="M58.0638 56.5616V54.8353L57.9687 54.7841L54.7503 53.4236C54.6041 53.3432 54.4797 53.3797 54.4431 53.526C54.37 53.8552 54.348 54.2136 54.3627 54.5866C54.37 54.7841 54.509 55.0109 54.6772 55.106L57.347 56.1519L58.0638 56.5616Z" fill="#DFDFE3"/>
<path d="M60.6022 60.585C60.6973 60.5119 60.6973 60.3291 60.6095 60.1462L59.3149 56.3353L59.2563 56.2183L58.0568 56.5694L58.4883 57.4764L59.4538 60.5924C59.5562 60.8045 59.7391 60.9435 59.8781 60.9142C60.1414 60.863 60.3901 60.7533 60.6022 60.585Z" fill="#DFDFE3"/>
<path d="M59.885 60.4826C59.885 60.4826 59.8485 60.4387 59.8338 60.4022L58.8464 57.235L57.6175 55.8233L54.8892 54.7407C54.8526 54.7188 54.7868 54.6164 54.7868 54.5578C54.7795 54.3311 54.7868 54.119 54.8014 53.9215L58.1222 55.3478L58.861 53.6216C58.9634 53.724 59.0658 53.8337 59.1609 53.9434C59.2999 54.1043 59.4315 54.2726 59.5632 54.4408C59.5925 54.4774 59.6071 54.5213 59.6144 54.5432L58.8537 56.3133L60.2435 60.329C60.1337 60.3949 60.0167 60.4461 59.885 60.4826Z" fill="#4B4A4B"/>
<path d="M49.74 52.3779L49.6376 52.3121C49.3962 52.1658 25.3313 37.8 23.883 36.8199C23.4954 36.5639 22.3177 34.4865 22.2153 33.7843C21.1474 26.4332 16.4587 22.9881 16.4149 22.9515L16.3929 22.9369L16.093 21.2911L16.3637 19.2576L16.9269 18.7603L18.8067 19.4113L47.6334 37.5148L50.1349 39.519L49.6156 40.4187L49.2572 41.8377C49.2572 41.8377 48.9573 44.3978 49.0085 45.6486C49.0963 47.6015 49.7253 52.2243 49.7327 52.2682L49.7473 52.3926L49.74 52.3779ZM16.488 22.871C16.8245 23.1197 21.279 26.6161 22.3177 33.7697C22.4128 34.4426 23.5758 36.4834 23.9342 36.7248C25.3313 37.6684 47.8309 51.1052 49.579 52.1512C49.4766 51.4051 48.9573 47.4187 48.8695 45.6412C48.811 44.3831 49.1109 41.8304 49.1182 41.8084L49.4913 40.3601L49.9667 39.5409L47.5456 37.6025L18.7336 19.5063L16.9342 18.8846L16.4514 19.3088L16.1881 21.2838L16.4807 22.8637L16.488 22.871Z" fill="#AFB4B8"/>
<path d="M4.22175 13.2886L4.59477 14.2541L5.57494 15.2928L7.12562 16.7996L6.03574 17.5749L5.23116 17.0702C4.7484 16.763 4.37535 16.3095 4.17786 15.7755L3.98035 15.2416L3.81213 13.8884L4.22175 13.2959V13.2886Z" fill="#EF3D29"/>
<path d="M7.9007 26.4769C7.9007 26.4769 4.07518 22.6952 3.80455 22.4246C3.52659 22.154 3.14624 21.7005 3.14624 21.7005V20.7935L3.73872 22.4978L5.53809 23.968L5.9404 24.6263L7.90802 26.4769H7.9007Z" fill="#CFD3D6"/>
<path d="M69.6281 57.8491C69.6281 57.8491 67.7483 57.7905 66.6511 57.0445C65.5539 56.2984 65.1443 55.2158 65.1443 55.2158L68.9552 56.6568L69.6281 57.8491Z" fill="#E3E3E3"/>
<path d="M68.9479 56.6574L92.8592 42.8549L91.6084 38.3271L67.7045 52.1297L68.9479 56.6574Z" fill="#E3E3E3"/>
<path d="M69.2039 59.2098L93.1078 45.4073L93.5321 44.8221V44.0468L92.8592 42.8545L68.9479 56.657L69.6281 57.8493V58.6247L69.2039 59.2098Z" fill="#EAEAEA"/>
<path d="M52.8049 39.0801C52.8049 39.0801 54.4068 40.5284 56.155 40.2797C57.9032 40.031 62.2114 38.2755 68.0338 35.0937C73.8635 31.9119 76.8259 28.7007 77.1551 27.8742C77.4842 27.0403 76.3578 26.1699 76.3578 26.1699L52.8049 39.0874V39.0801Z" fill="#1E1E1E"/>
<path d="M64.7933 13.9985C62.577 15.8857 59.6292 17.7802 57.2154 19.2285C55.4453 20.2891 53.7557 21.2399 52.205 22.0738C47.1799 24.7656 43.625 26.2212 43.625 26.2212C43.625 26.2212 43.625 26.2212 43.6323 26.2285C43.764 26.3528 45.4098 27.8962 48.8183 32.8262C50.9981 35.9788 52.1976 37.9903 52.8048 39.0801C52.8048 39.0801 53.2875 39.775 54.2092 39.4312C54.2384 39.4239 54.2603 39.4093 54.2896 39.402C54.531 39.2996 54.7139 39.2191 54.8528 39.1606C54.8967 39.146 54.9406 39.124 54.9845 39.1021C55.0064 39.1021 55.0357 39.0801 55.0576 39.0728C55.2039 39.0143 55.2405 38.9924 55.2551 38.9924C58.3272 37.6611 61.8163 35.9056 64.5958 34.4062C66.1465 33.5723 67.4777 32.8262 68.3994 32.2849C71.135 30.6611 74.7996 28.1815 76.0577 26.6015C76.1821 26.4479 76.2845 26.3016 76.3576 26.1626C76.3576 26.1626 71.4422 20.1501 64.786 14.0059L64.7933 13.9985Z" fill="#1E2329"/>
<path d="M53.3094 21.474C53.8068 22.3664 55.0357 22.1031 55.3941 21.8763C55.7598 21.6495 58.8027 19.9306 59.2635 19.5722C59.6585 19.2723 59.2488 18.3214 59.1245 18.0508C58.4662 18.4677 57.8298 18.8554 57.2154 19.2211C55.8549 20.033 54.5456 20.7864 53.3021 21.4667L53.3094 21.474Z" fill="#1E1E1E"/>
<path d="M75.9407 26.1261L75.2678 26.1627C75.2678 26.1627 68.5311 21.8544 60.8362 16.9464C62.2113 16.0247 63.5718 15.0373 64.7348 14.0498C65.4151 14.7081 66.1685 15.4688 66.9877 16.3539C70.9156 20.5744 75.9407 26.1261 75.9407 26.1261Z" fill="#313942"/>
<path d="M76.065 26.6018C74.8069 28.1818 71.1423 30.6614 68.4067 32.2852C67.485 32.8265 66.1538 33.5726 64.6031 34.4065C61.8236 35.8986 58.3345 37.6541 55.2624 38.9927C55.2478 38.9927 55.2112 39.0146 55.0649 39.0731C55.043 39.0878 55.0211 39.0951 54.9918 39.1024C54.9479 39.1243 54.904 39.1463 54.8601 39.1609C54.7211 39.2194 54.5383 39.2999 54.2969 39.4023C54.2676 39.4169 54.2457 39.4242 54.2165 39.4316C53.2948 39.7753 52.8121 39.0804 52.8121 39.0804L52.6877 39.4681C52.3732 38.8829 52.0513 38.3124 51.7295 37.7492C51.8977 37.581 52.2269 37.2445 52.6658 36.7471C53.3167 36.0083 61.4652 32.2486 61.6773 32.1243C61.8089 32.0512 61.9406 31.978 62.065 31.9049C69.5477 27.6624 71.018 26.141 71.9469 25.7826C72.1078 25.7168 72.2541 25.6948 72.415 25.6948C73.4976 25.6948 74.4631 25.6948 75.7578 26.1483L76.0723 26.5945L76.065 26.6018Z" fill="#272E36"/>
<path d="M62.3138 32.0215L61.8164 31.7801C61.8164 31.7801 61.8018 29.3004 62.0651 28.9713C62.3284 28.6421 69.782 24.7581 70.0599 24.7947C70.3379 24.8313 73.688 26.7696 73.688 26.7696L62.3138 32.0215Z" fill="#272E36"/>
<path d="M57.3546 21.2254L56.177 21.9056C55.5186 22.286 54.8677 22.7103 54.2386 23.1784C54.0338 23.332 53.9168 23.6392 53.9753 23.9025L54.1216 24.5901C54.1801 24.8461 54.3849 24.9705 54.6043 24.8827C55.2773 24.5974 55.9429 24.2609 56.6012 23.8806L57.7788 23.2003C58.4372 22.82 59.0881 22.3957 59.7172 21.9276C59.922 21.774 60.039 21.4668 59.9805 21.2035L59.8342 20.5159C59.7757 20.2599 59.5709 20.1355 59.3515 20.2233C58.6785 20.5086 58.0129 20.845 57.3546 21.2254Z" fill="#272E36"/>
<path d="M57.6104 22.1028C57.5958 21.7664 57.5226 20.8374 57.5226 20.8374L56.3523 20.8593C56.3523 20.8593 56.484 22.176 56.4986 22.2199C56.5644 22.432 56.8497 22.6734 56.974 22.6587C57.2593 22.6295 57.625 22.4612 57.6104 22.0955V22.1028Z" fill="#272E36"/>
<path d="M57.4275 20.5524C57.6031 20.8011 57.5372 21.123 57.2666 21.2766C56.996 21.4302 56.6376 21.357 56.4547 21.1156C56.2791 20.867 56.3523 20.5451 56.6156 20.3842C56.8863 20.2306 57.2447 20.3037 57.4275 20.5451V20.5524Z" fill="#272E36"/>
<path d="M91.6085 38.327C91.8206 39.0878 86.8028 43.0669 85.2375 44.2445C83.899 45.2466 82.1362 46.3145 79.6858 47.7409C76.9794 49.3281 74.8363 50.2424 67.7046 52.1296C67.2145 52.2613 66.2124 50.7398 66.2124 50.7398L87.7318 37.1348L91.6085 38.3344V38.327Z" fill="#EAEAEA"/>
<path d="M70.4183 51.3906C68.1727 51.61 66.9073 50.7981 66.3587 50.2276C65.8101 49.657 65.5029 50.8274 65.5029 50.8274C65.5029 50.8274 66.9293 53.2704 68.1069 53.2704C69.2846 53.2704 70.4183 51.3906 70.4183 51.3906Z" fill="#E3E3E3"/>
<path d="M43.6249 26.2212C43.6249 26.2212 45.2634 27.6841 48.8183 32.8262C52.3804 37.9684 53.324 40.0823 53.324 40.0823L52.0147 40.1773L47.209 32.1752L42.7399 26.5357L43.6176 26.2212H43.6249Z" fill="#EAEAEA"/>
<path d="M44.0787 1.57844C38.1832 4.03612 37.2323 4.41649 33.4653 6.61085C29.6983 8.80522 25.4193 11.3872 23.5248 13.4426C23.5248 13.4426 22.3765 13.3622 20.7161 13.3475C18.3827 13.3183 15.0326 13.406 12.3921 13.9985C12.3921 13.9985 13.3576 12.8428 15.2887 11.2995C17.2124 9.75609 19.1434 8.30051 23.2396 5.7843C27.3357 3.26078 32.5656 1.2639 33.8091 0.759199C34.1895 0.605593 34.5259 0.517823 34.8185 0.466621C35.4841 0.349588 35.8864 0.437357 35.8864 0.437357C35.8864 0.437357 42.2501 0.868917 44.0934 1.57111L44.0787 1.57844Z" fill="#1E2329"/>
<path d="M4.77002 12.1114C5.22352 11.2775 5.66238 10.3632 6.58401 9.69027C7.50565 9.01733 9.23188 7.43739 14.7251 4.02149C20.211 0.612912 24.9582 -1.62535 26.2382 -1.9033C27.511 -2.18125 28.8495 -1.77163 28.8495 -1.77163L26.7722 2.35378L4.77732 12.0968L4.77002 12.1114Z" fill="#EAEAEA"/>
<g style="mix-blend-mode:screen">
<path d="M64.6031 34.4061C61.8236 35.8982 58.3346 37.6537 55.2625 38.9923C55.2478 38.9923 55.2112 39.0142 55.0649 39.0727C55.043 39.0874 55.0211 39.0947 54.9918 39.102C54.9479 39.1239 54.904 39.1459 54.8601 39.1605C54.7212 39.219 54.5383 39.2995 54.2969 39.4019C54.2677 39.4165 54.2457 39.4239 54.2165 39.4312C53.2948 39.775 52.8121 39.0801 52.8121 39.0801L52.6877 39.4677C48.5477 31.7948 43.625 26.2211 43.625 26.2211C43.625 26.2211 47.1799 24.7655 52.205 22.0737C52.9657 22.6223 56.0305 24.9484 60.4558 29.7174C62.2917 31.6924 63.6303 33.2357 64.5958 34.4061H64.6031Z" fill="#0B0E0F"/>
</g>
<path d="M93.8759 48.2014C93.8832 48.2965 93.8832 48.3843 93.8759 48.4648C93.8759 48.5087 93.8686 48.5452 93.854 48.5818C93.8833 50.074 92.0619 51.7929 89.9846 53.1753C89.9846 52.9632 89.9846 52.8389 89.9773 52.7657V52.6633C90.1016 52.4878 89.5896 51.7198 89.4726 51.7563C89.3556 51.7856 85.9762 54.0165 83.3503 55.5526C80.7244 57.0813 77.3962 58.7637 76.8769 59.0416C76.6355 59.1733 76.3503 59.1733 76.1089 59.6707C75.8675 60.1534 75.67 60.6508 75.6188 60.7898C75.6115 60.8117 75.6042 60.8264 75.6042 60.8264C75.6042 60.8264 75.5749 61.0385 75.4506 61.2872C74.7923 61.5871 74.2437 61.8138 73.8414 61.9308C70.5571 62.9256 69.1893 62.7208 69.1893 62.7208L69.7964 62.3112L93.2761 46.563C93.2761 46.563 93.7735 47.4261 93.8613 48.121C93.8613 48.1502 93.8686 48.1795 93.8759 48.2014Z" fill="#CFD3D6"/>
<path d="M74.9091 59.0928C73.4608 59.8608 70.93 60.3362 69.6207 60.2777C69.5403 61.6748 69.6207 61.7699 69.6207 61.7699C69.6207 61.7699 70.1913 61.9601 71.9102 61.5358C73.6291 61.1189 74.697 60.7166 74.9091 59.0928Z" fill="#AFB4B8"/>
<path d="M93.2103 46.5996C93.0274 47.6602 91.4548 48.9988 90.8916 49.5108C90.9794 51.0176 90.9282 51.2517 90.9282 51.2517C92.157 50.2496 92.9909 49.1816 93.0421 48.9695C93.2103 48.3039 93.2688 48.004 93.203 46.5996H93.2103Z" fill="#AFB4B8"/>
<path d="M73.8414 61.5137C74.2802 61.382 74.8874 61.126 75.6188 60.7896C75.6115 60.8115 75.6042 60.8261 75.6042 60.8261C75.6042 60.8261 75.5749 61.0383 75.4506 61.287C74.7923 61.5869 74.2437 61.8136 73.8414 61.9306C70.5571 62.9254 69.1893 62.7206 69.1893 62.7206L69.7964 62.311C70.484 62.2817 71.7933 62.1354 73.8414 61.5137Z" fill="#AFB4B8"/>
<path d="M93.876 48.2015C93.8834 48.2966 93.8834 48.3844 93.876 48.4649C93.876 48.5088 93.8687 48.5453 93.8541 48.5819C93.8834 50.0741 92.062 51.793 89.9847 53.1754C89.9847 52.9633 89.9847 52.839 89.9774 52.7658C92.0547 51.3834 93.8834 49.6645 93.8541 48.165C93.8541 48.1503 93.8541 48.1357 93.8614 48.1211V48.1138C93.8614 48.143 93.8687 48.1723 93.8687 48.2015H93.876Z" fill="#AFB4B8"/>
<path d="M69.2041 59.2097C69.2041 59.2097 72.737 58.5953 75.2459 57.5493C77.7548 56.5033 77.5866 56.5984 81.5364 54.4406C85.4863 52.2901 93.3056 47.7185 93.5323 44.822C93.7371 42.3424 92.2303 40.916 92.2303 40.916L92.5375 43.4103L92.3327 44.6391L78.1132 53.5556L69.5406 57.8565L69.2041 59.217V59.2097Z" fill="#E3E3E3"/>
<path d="M69.5331 57.8495C69.5331 57.8495 73.066 57.2351 75.5749 56.1891C78.0838 55.1431 77.9155 55.2382 81.8654 53.0804C85.8153 50.93 93.2176 46.6071 93.4443 43.7105C93.4663 42.4012 92.4423 41.1577 92.4423 41.1577L92.018 44.8296L88.8874 46.7753L76.3868 54.1484L70.6303 56.6573L69.5331 57.8495Z" fill="#EAEAEA"/>
<path d="M74.2437 50.2203C74.2437 50.2203 71.4569 47.8504 68.3702 45.6926C65.2834 43.5348 58.9783 39.7605 58.9783 39.7605L59.3659 39.5776C59.3659 39.5776 65.0128 43.0228 67.9532 44.8734C70.8937 46.724 73.9585 49.3206 73.9585 49.3206C73.9585 49.3206 74.2949 49.8985 74.2437 50.2203Z" fill="#E3E3E3"/>
<path d="M87.2488 42.3349C87.2488 42.3349 76.3135 31.1437 75.5016 30.4927C75.8161 30.5146 85.976 40.5648 86.371 41.0329C86.766 41.5011 87.2488 42.3349 87.2488 42.3349Z" fill="#E3E3E3"/>
<path d="M18.3386 13.3697C19.838 12.1774 21.4765 10.8974 22.7931 10.0123C29.8004 5.30173 37.0565 2.20037 37.0565 2.20037L34.8036 0.474121C34.511 0.525323 34.1746 0.613104 33.7942 0.76671C32.5507 1.2641 27.3208 3.26827 23.2247 5.79179C19.1285 8.31531 17.2048 9.7636 15.2738 11.307C13.35 12.8503 12.3772 14.006 12.3772 14.006C12.4796 13.9841 12.5747 13.9622 12.6698 13.9475C14.4399 13.5818 16.488 13.4282 18.3313 13.377L18.3386 13.3697Z" fill="#272E36"/>
<path d="M30.7513 40.9893L30.5172 40.2798V40.2652L31.0439 38.3195C31.0365 38.1293 30.9122 35.1011 30.9122 34.1868C30.9122 33.2724 31.256 30.5075 31.2633 30.4783L31.9143 27.7134L32.0313 27.7426L31.3803 30.5002C31.3803 30.5002 31.0366 33.2578 31.0366 34.1868C31.0366 35.1157 31.1609 38.2902 31.1682 38.3195V38.3341L30.6489 40.2725L30.8683 40.9527L30.7586 40.9893H30.7513Z" fill="#AFB4B8"/>
<path d="M51.598 40.1771L49.6816 39.943C49.6816 39.943 25.0681 24.2021 16.5833 18.8698C16.5833 18.8698 21.7108 15.3881 22.0911 15.2198C22.4641 15.0516 23.8393 15.2198 27.7818 17.1362C31.7317 19.0527 36.7641 22.2345 37.6638 22.8416C38.5635 23.4487 41.8623 25.6723 44.6784 29.1614C47.3263 32.4456 51.598 40.1844 51.598 40.1844V40.1771Z" fill="#1E1E1E"/>
<path d="M49.9303 39.2557C48.0139 38.0269 26.6408 24.3706 17.8926 18.8481C19.6993 17.6266 21.9448 16.1198 22.3691 15.8784C22.3764 15.8784 22.391 15.8784 22.413 15.8784C22.7641 15.8784 23.9636 16.0613 27.4819 17.7729C31.2709 19.6088 36.2155 22.7102 37.2761 23.427C39.9972 25.2557 42.3012 27.333 44.1372 29.6005C46.0902 32.0216 48.994 36.9955 50.3034 39.2996L49.9376 39.2557H49.9303Z" fill="#1E2329"/>
<path d="M33.0919 20.4497C33.0919 20.4497 30.9707 24.7946 30.9707 27.6765L33.582 29.3661C33.582 29.3661 33.4064 23.5511 34.5329 21.4152C33.9111 20.9105 33.0919 20.4497 33.0919 20.4497Z" fill="#1E1E1E"/>
<path d="M50.0837 39.8484C50.0837 39.8484 50.5226 39.7826 50.7054 39.6363C50.8883 39.49 50.7493 38.9414 50.4421 38.7439C50.1349 38.5464 49.2645 38.9853 49.1182 38.9121C48.9719 38.839 48.0941 39.212 48.0941 39.212L48.3794 39.8411L50.0837 39.8557V39.8484Z" fill="#BEC3C7"/>
<path d="M48.3281 37.5586C49.1474 37.3538 49.9812 37.6244 50.0909 38.5534C50.2226 39.6798 49.7325 39.8627 49.4326 40.0016C49.1327 40.1406 48.0136 40.6307 46.6019 40.6453C45.1829 40.66 45.0146 39.9066 45.0146 39.4018C45.0146 39.3287 45.0146 39.336 45.0146 39.2702C45.0585 38.5534 45.3146 38.3339 45.7973 38.195C46.836 37.8877 48.3281 37.5659 48.3281 37.5659V37.5586Z" fill="#BEC3C7"/>
<path d="M49.7767 38.0268C49.3085 37.8805 48.3357 38.0707 47.3775 38.2755C46.4193 38.4803 45.7025 38.4656 45.6293 39.3946C45.5562 40.3235 45.8561 40.5503 46.2511 40.6088C46.646 40.6673 47.3994 40.6673 48.5332 40.3308C49.667 40.0017 49.8279 39.8115 50.0034 39.5043C50.179 39.1898 50.2448 38.1658 49.7767 38.0195V38.0268Z" fill="#E3E3E3"/>
<path d="M62.9721 39.9798L66.9658 38.0342C67.1267 37.9537 67.1121 37.8074 66.9292 37.6977C66.7463 37.588 66.4684 37.566 66.3075 37.6465L62.3137 39.5922C62.1528 39.6726 62.1675 39.8189 62.3503 39.9286C62.5332 40.0383 62.8111 40.0603 62.9721 39.9798Z" fill="#0C100F"/>
<path d="M72.3419 35.0056L75.6115 32.5699C75.7432 32.4748 75.7139 32.3139 75.553 32.2188C75.3921 32.1237 75.1507 32.1237 75.019 32.2188L71.7494 34.6545C71.6178 34.7496 71.647 34.9105 71.8079 35.0056C71.9689 35.1007 72.2102 35.1007 72.3419 35.0056Z" fill="#0C100F"/>
<path d="M32.7262 30.7417C32.4629 31.0635 32.302 31.6048 32.4263 31.9193C32.558 32.2558 34.8986 33.6822 35.1327 33.7407C35.3668 33.7992 35.5423 33.1482 35.5057 32.9507C35.4692 32.7532 32.7262 30.7417 32.7262 30.7417Z" fill="#AFB4B8"/>
<path d="M34.6577 31.7363L33.0558 30.7196C32.851 30.588 32.6755 30.6757 32.6608 30.9244V31.0122C32.6462 31.2536 32.8071 31.5608 33.0119 31.6924L35.2063 33.0895C35.455 33.2431 35.594 32.9798 35.433 32.658C35.2355 32.263 34.9503 31.9338 34.6431 31.7363H34.6577Z" fill="#CFD3D6"/>
<path d="M35.3522 33.192C35.3084 33.192 35.2498 33.1774 35.184 33.1335L32.9823 31.7364C32.7556 31.5901 32.5873 31.2683 32.602 31.0049V30.9172C32.6093 30.7782 32.6678 30.6758 32.7629 30.6246C32.858 30.5734 32.975 30.588 33.092 30.6685L34.6939 31.6852C35.0085 31.8827 35.301 32.2265 35.4985 32.6288C35.6009 32.8336 35.6009 33.0384 35.4912 33.1408C35.4693 33.1627 35.4254 33.192 35.3522 33.192ZM32.8799 30.7197C32.8799 30.7197 32.836 30.7197 32.8141 30.7343C32.7629 30.7636 32.7263 30.8294 32.7263 30.9245V31.0123C32.7117 31.2317 32.8653 31.517 33.0482 31.6413L35.2498 33.0384C35.2864 33.0603 35.3595 33.0969 35.4107 33.053C35.4693 33.0018 35.4839 32.8555 35.3961 32.6873C35.2059 32.3069 34.9207 31.9778 34.6281 31.7949L33.0262 30.7782C32.975 30.7416 32.9238 30.727 32.8799 30.727V30.7197Z" fill="#AFB4B8"/>
<path d="M33.3042 31.3704C33.3042 31.5021 33.2018 31.5533 33.0921 31.4801C32.9824 31.407 32.8946 31.2461 32.9019 31.1144C32.9019 30.9827 33.0043 30.9315 33.114 31.0047C33.2238 31.0778 33.3115 31.2387 33.3042 31.3704Z" fill="#0C100F"/>
<path d="M17.7974 21.2915C17.5341 21.6133 17.3805 22.1546 17.4975 22.4692C17.6219 22.8056 19.9699 24.232 20.2039 24.2905C20.438 24.349 20.6135 23.698 20.5769 23.5005C20.5404 23.303 17.7974 21.2915 17.7974 21.2915Z" fill="#AFB4B8"/>
<path d="M19.7285 22.293L18.1266 21.2763C17.9218 21.1446 17.7463 21.2324 17.7316 21.4811V21.5688C17.717 21.8102 17.8779 22.1174 18.0827 22.2491L20.2844 23.6462C20.5331 23.7998 20.6721 23.5365 20.5112 23.2146C20.3137 22.8196 20.0284 22.4905 19.7212 22.293H19.7285Z" fill="#CFD3D6"/>
<path d="M20.4234 23.7413C20.3795 23.7413 20.321 23.7267 20.2552 23.6828L18.0535 22.2857C17.8267 22.1394 17.6585 21.8176 17.6731 21.5543V21.4665C17.6804 21.3275 17.739 21.2251 17.834 21.1739C17.9291 21.1227 18.0462 21.1374 18.1632 21.2178L19.7651 22.2345C20.0796 22.432 20.3722 22.7758 20.5697 23.1781C20.6721 23.3829 20.6721 23.5877 20.5624 23.6901C20.5404 23.7121 20.4966 23.7413 20.4234 23.7413ZM17.9511 21.2763C17.9511 21.2763 17.9072 21.2763 17.8853 21.2909C17.8341 21.3202 17.7975 21.386 17.7975 21.4811V21.5689C17.7829 21.7956 17.9291 22.0736 18.1193 22.198L20.321 23.595C20.3576 23.617 20.4307 23.6535 20.4819 23.6097C20.5404 23.5585 20.5551 23.4122 20.4673 23.2439C20.2771 22.8636 19.9992 22.5344 19.6993 22.3516L18.0974 21.3348C18.0462 21.2983 17.995 21.2836 17.9511 21.2836V21.2763Z" fill="#AFB4B8"/>
<path d="M18.3754 21.9275C18.3754 22.0592 18.273 22.1104 18.1633 22.0372C18.0535 21.9641 17.9658 21.8032 17.9731 21.6715C17.9731 21.5399 18.0755 21.4887 18.1852 21.5618C18.2949 21.635 18.3827 21.7959 18.3754 21.9275Z" fill="#0C100F"/>
<path d="M7.99585 13.9252C7.99585 13.9252 8.10557 14.5616 10.8339 15.1687C13.5622 15.7758 23.393 13.874 23.393 13.874L12.0188 14.2763L7.98853 13.9252H7.99585Z" fill="#E3E3E3"/>
<path d="M67.1999 58.2809C67.1999 58.2809 69.4308 59.3123 71.6837 58.6686L73.9366 58.0249L69.0285 59.7584L66.9438 58.7929L67.1925 58.2809H67.1999Z" fill="#CFD3D6"/>
<defs>
<linearGradient id="paint0_linear_28_5657" x1="21.7401" y1="35.9126" x2="14.5937" y2="23.529" gradientUnits="userSpaceOnUse">
<stop stop-color="#181818"/>
<stop offset="0.27" stop-color="#262626"/>
<stop offset="0.77" stop-color="#2E2E2E"/>
</linearGradient>
<linearGradient id="paint1_linear_28_5657" x1="20.0722" y1="36.8784" x2="12.9186" y2="24.4949" gradientUnits="userSpaceOnUse">
<stop stop-color="#181818"/>
<stop offset="0.27" stop-color="#262626"/>
<stop offset="0.77" stop-color="#2E2E2E"/>
</linearGradient>
<linearGradient id="paint2_linear_28_5657" x1="12.3261" y1="36.0005" x2="17.3658" y2="27.2742" gradientUnits="userSpaceOnUse">
<stop stop-color="#161616"/>
<stop offset="0.3" stop-color="#1A1A1A"/>
<stop offset="0.79" stop-color="#1D1D1D"/>
<stop offset="0.8" stop-color="#1E1E1E"/>
</linearGradient>
<linearGradient id="paint3_linear_28_5657" x1="64.7786" y1="60.7602" x2="57.6323" y2="48.3767" gradientUnits="userSpaceOnUse">
<stop stop-color="#181818"/>
<stop offset="0.27" stop-color="#262626"/>
<stop offset="0.77" stop-color="#2E2E2E"/>
</linearGradient>
<linearGradient id="paint4_linear_28_5657" x1="63.111" y1="61.726" x2="55.9574" y2="49.3425" gradientUnits="userSpaceOnUse">
<stop stop-color="#181818"/>
<stop offset="0.27" stop-color="#262626"/>
<stop offset="0.77" stop-color="#2E2E2E"/>
</linearGradient>
<linearGradient id="paint5_linear_28_5657" x1="37.532" y1="21.4521" x2="42.5718" y2="12.7258" gradientUnits="userSpaceOnUse">
<stop stop-color="#161616"/>
<stop offset="0.3" stop-color="#1A1A1A"/>
<stop offset="0.79" stop-color="#1D1D1D"/>
<stop offset="0.8" stop-color="#1E1E1E"/>
</linearGradient>
<linearGradient id="paint6_linear_28_5657" x1="80.5709" y1="46.2998" x2="85.6106" y2="37.5735" gradientUnits="userSpaceOnUse">
<stop stop-color="#161616"/>
<stop offset="0.3" stop-color="#1A1A1A"/>
<stop offset="0.79" stop-color="#1D1D1D"/>
<stop offset="0.8" stop-color="#1E1E1E"/>
</linearGradient>
<linearGradient id="paint7_linear_28_5657" x1="12.3261" y1="36.0005" x2="17.3658" y2="27.2742" gradientUnits="userSpaceOnUse">
<stop stop-color="#141414"/>
<stop offset="0.44" stop-color="#1E1E1E"/>
<stop offset="0.78" stop-color="#202020"/>
<stop offset="0.98" stop-color="#282828"/>
<stop offset="1" stop-color="#2A2A2A"/>
</linearGradient>
<linearGradient id="paint8_linear_28_5657" x1="12.2967" y1="35.8905" x2="17.1462" y2="27.4934" gradientUnits="userSpaceOnUse">
<stop stop-color="#161616"/>
<stop offset="0.3" stop-color="#1A1A1A"/>
<stop offset="0.79" stop-color="#1D1D1D"/>
<stop offset="0.8" stop-color="#1E1E1E"/>
</linearGradient>
<linearGradient id="paint9_linear_28_5657" x1="17.446" y1="36.0811" x2="12.2454" y2="27.0769" gradientUnits="userSpaceOnUse">
<stop offset="0.27" stop-color="#ECEEF7"/>
<stop offset="0.77" stop-color="#9C9AA8"/>
</linearGradient>
<linearGradient id="paint10_linear_28_5657" x1="14.769" y1="33.2212" x2="17.3364" y2="28.7813" gradientUnits="userSpaceOnUse">
<stop offset="0.26" stop-color="#393843"/>
<stop offset="0.78" stop-color="#23222E"/>
</linearGradient>
<linearGradient id="paint11_linear_28_5657" x1="15.1714" y1="29.9366" x2="17.2268" y2="30.5217" gradientUnits="userSpaceOnUse">
<stop stop-color="#ADAEB8"/>
<stop offset="0.08" stop-color="#BABBC5"/>
<stop offset="0.2" stop-color="#C9CBD3"/>
<stop offset="0.34" stop-color="#D2D4DC"/>
<stop offset="0.55" stop-color="#D5D7DF"/>
<stop offset="0.66" stop-color="#C0C1CA"/>
<stop offset="1" stop-color="#868490"/>
</linearGradient>
<linearGradient id="paint12_linear_28_5657" x1="16.1221" y1="33.8356" x2="17.7898" y2="33.1626" gradientUnits="userSpaceOnUse">
<stop stop-color="#ADAEB8"/>
<stop offset="0.08" stop-color="#BABBC5"/>
<stop offset="0.2" stop-color="#C9CBD3"/>
<stop offset="0.34" stop-color="#D2D4DC"/>
<stop offset="0.55" stop-color="#D5D7DF"/>
<stop offset="0.66" stop-color="#C0C1CA"/>
<stop offset="1" stop-color="#868490"/>
</linearGradient>
<linearGradient id="paint13_linear_28_5657" x1="13.2989" y1="30.434" x2="14.2645" y2="28.7663" gradientUnits="userSpaceOnUse">
<stop stop-color="#ADAEB8"/>
<stop offset="0.08" stop-color="#BABBC5"/>
<stop offset="0.2" stop-color="#C9CBD3"/>
<stop offset="0.34" stop-color="#D2D4DC"/>
<stop offset="0.55" stop-color="#D5D7DF"/>
<stop offset="0.66" stop-color="#C0C1CA"/>
<stop offset="1" stop-color="#868490"/>
</linearGradient>
<linearGradient id="paint14_linear_28_5657" x1="55.3649" y1="60.8481" x2="60.4046" y2="52.1219" gradientUnits="userSpaceOnUse">
<stop stop-color="#161616"/>
<stop offset="0.3" stop-color="#1A1A1A"/>
<stop offset="0.79" stop-color="#1D1D1D"/>
<stop offset="0.8" stop-color="#1E1E1E"/>
</linearGradient>
<linearGradient id="paint15_linear_28_5657" x1="55.3649" y1="60.8481" x2="60.4046" y2="52.1219" gradientUnits="userSpaceOnUse">
<stop stop-color="#141414"/>
<stop offset="0.44" stop-color="#1E1E1E"/>
<stop offset="0.78" stop-color="#202020"/>
<stop offset="0.98" stop-color="#282828"/>
<stop offset="1" stop-color="#2A2A2A"/>
</linearGradient>
<linearGradient id="paint16_linear_28_5657" x1="55.3356" y1="60.7382" x2="60.1852" y2="52.3411" gradientUnits="userSpaceOnUse">
<stop stop-color="#161616"/>
<stop offset="0.3" stop-color="#1A1A1A"/>
<stop offset="0.79" stop-color="#1D1D1D"/>
<stop offset="0.8" stop-color="#1E1E1E"/>
</linearGradient>
<linearGradient id="paint17_linear_28_5657" x1="60.4851" y1="60.9361" x2="55.2844" y2="51.9245" gradientUnits="userSpaceOnUse">
<stop offset="0.27" stop-color="#ECEEF7"/>
<stop offset="0.77" stop-color="#9C9AA8"/>
</linearGradient>
<linearGradient id="paint18_linear_28_5657" x1="57.8082" y1="58.0757" x2="60.3756" y2="53.6285" gradientUnits="userSpaceOnUse">
<stop offset="0.26" stop-color="#393843"/>
<stop offset="0.78" stop-color="#23222E"/>
</linearGradient>
<linearGradient id="paint19_linear_28_5657" x1="58.2029" y1="54.7842" x2="60.2656" y2="55.3694" gradientUnits="userSpaceOnUse">
<stop stop-color="#ADAEB8"/>
<stop offset="0.08" stop-color="#BABBC5"/>
<stop offset="0.2" stop-color="#C9CBD3"/>
<stop offset="0.34" stop-color="#D2D4DC"/>
<stop offset="0.55" stop-color="#D5D7DF"/>
<stop offset="0.66" stop-color="#C0C1CA"/>
<stop offset="1" stop-color="#868490"/>
</linearGradient>
<linearGradient id="paint20_linear_28_5657" x1="59.1613" y1="58.69" x2="60.829" y2="58.0171" gradientUnits="userSpaceOnUse">
<stop stop-color="#ADAEB8"/>
<stop offset="0.08" stop-color="#BABBC5"/>
<stop offset="0.2" stop-color="#C9CBD3"/>
<stop offset="0.34" stop-color="#D2D4DC"/>
<stop offset="0.55" stop-color="#D5D7DF"/>
<stop offset="0.66" stop-color="#C0C1CA"/>
<stop offset="1" stop-color="#868490"/>
</linearGradient>
<linearGradient id="paint21_linear_28_5657" x1="56.338" y1="55.289" x2="57.3035" y2="53.6212" gradientUnits="userSpaceOnUse">
<stop stop-color="#ADAEB8"/>
<stop offset="0.08" stop-color="#BABBC5"/>
<stop offset="0.2" stop-color="#C9CBD3"/>
<stop offset="0.34" stop-color="#D2D4DC"/>
<stop offset="0.55" stop-color="#D5D7DF"/>
<stop offset="0.66" stop-color="#C0C1CA"/>
<stop offset="1" stop-color="#868490"/>
</linearGradient>
</defs>
</svg>
