<svg width="16" height="17" viewBox="0 0 16 17" fill="none" xmlns="http://www.w3.org/2000/svg">
<path d="M12.5713 10.7858L14.857 10.2144L15.4284 12.5001" stroke="#000001" stroke-linecap="round" stroke-linejoin="round"/>
<path d="M14.8571 10.2144C14.3494 11.6528 13.4274 12.9087 12.2071 13.8239C10.9868 14.7392 9.52292 15.2727 7.99991 15.3572C6.59204 15.3575 5.21822 14.9244 4.06504 14.1167C2.91186 13.3091 2.03522 12.1661 1.5542 10.8429" stroke="#000001" stroke-linecap="round" stroke-linejoin="round"/>
<path d="M3.42843 6.21429L1.14272 6.78571L0.571289 4.5" stroke="#000001" stroke-linecap="round" stroke-linejoin="round"/>
<path d="M1.14258 6.78592C2.10258 4.15735 5.05115 1.64307 7.99972 1.64307C9.41445 1.64704 10.7933 2.0885 11.9473 2.90693C13.1013 3.72535 13.9739 4.88067 14.4454 6.21449" stroke="#000001" stroke-linecap="round" stroke-linejoin="round"/>
</svg>
